{"glyphs":{"0":{"ha":2244,"x_min":31,"x_max":2214,"o":"m 1373 254 q 1481 336 1416 310 q 1437 231 1455 265 q 1397 189 1419 197 q 1356 199 1362 177 q 1373 254 1350 221 m 612 524 q 651 511 639 566 q 656 418 661 465 l 654 408 l 654 408 q 611 460 626 423 q 612 524 596 496 m 2212 537 q 2197 465 2214 498 q 2205 437 2205 452 q 2178 355 2206 393 q 2007 276 2108 282 q 1929 302 1963 275 q 1902 330 1916 313 q 1780 271 1855 273 q 1727 280 1751 271 q 1726 276 1727 279 q 1725 273 1725 274 q 1689 129 1700 199 q 1687 98 1693 113 q 1667 75 1681 83 q 1640 66 1653 66 q 1607 80 1622 66 q 1562 134 1579 105 q 1511 81 1541 102 q 1412 43 1468 47 q 1325 96 1357 49 q 1289 150 1305 117 q 1278 205 1276 178 q 1276 208 1278 206 q 1274 211 1274 210 q 1233 201 1253 201 q 1177 219 1202 202 q 1138 263 1152 235 q 1128 283 1135 268 q 1126 286 1128 284 q 1124 288 1125 287 q 1122 290 1122 289 q 1116 254 1117 270 q 1090 212 1115 226 q 1065 205 1078 205 q 1041 212 1053 205 q 1023 223 1032 216 q 1012 219 1019 220 q 994 217 1002 217 q 946 228 968 216 q 909 262 924 240 q 841 221 876 223 l 829 221 q 748 258 779 218 q 694 206 728 226 q 623 185 661 186 q 530 224 568 186 q 534 182 530 204 q 511 132 539 149 q 484 123 497 123 q 455 133 468 123 q 376 227 406 172 q 347 270 359 249 q 355 175 338 222 q 354 125 369 151 q 311 100 340 100 q 217 146 255 102 q 147 279 161 202 q 119 271 136 271 q 102 273 109 271 q 51 316 70 287 q 32 380 31 346 q 34 395 33 387 q 46 424 36 402 q 73 463 57 446 q 120 501 88 481 q 193 534 151 522 q 226 644 212 602 q 251 705 240 686 q 269 729 262 724 q 286 738 275 734 q 306 741 297 741 q 408 679 348 741 q 414 671 410 677 q 493 820 447 747 q 532 857 508 844 q 583 869 556 869 q 665 848 626 868 q 729 751 709 806 q 705 707 730 722 q 676 677 690 696 q 736 627 713 657 q 746 601 745 615 q 748 599 747 600 q 750 597 749 598 q 782 640 764 623 q 871 674 820 674 q 959 635 924 676 q 983 637 971 637 q 1076 838 1017 743 q 1115 875 1090 862 q 1167 887 1140 888 q 1249 866 1210 886 q 1276 824 1274 853 q 1275 822 1276 823 q 1275 821 1275 821 q 1470 824 1326 824 l 1556 824 q 1671 842 1615 824 q 1689 846 1683 846 q 1726 831 1710 846 q 1763 777 1747 804 q 1773 722 1784 753 q 1761 698 1767 709 q 1789 686 1777 697 q 1805 659 1802 675 q 1807 648 1807 652 q 1827 650 1817 650 q 1898 621 1869 652 q 1940 660 1914 642 q 2042 696 1986 695 q 2121 675 2084 696 q 2178 616 2157 653 q 2212 537 2210 582 m 447 229 q 463 449 431 321 q 546 676 494 577 q 642 803 597 774 q 633 807 638 804 q 613 813 628 809 q 586 818 599 818 q 559 813 573 819 q 536 793 545 807 q 460 650 491 721 q 417 529 430 578 q 400 433 404 479 q 397 365 395 387 q 401 327 398 343 q 371 407 381 361 q 360 493 360 452 q 362 568 359 533 q 368 624 364 603 l 372 644 q 357 659 366 650 q 329 680 348 667 q 302 690 311 693 q 233 492 286 684 q 163 469 193 484 q 118 438 133 454 q 95 408 104 422 q 84 384 85 393 l 82 375 q 218 431 104 407 q 199 349 203 375 q 198 279 193 307 q 215 236 203 251 q 241 214 228 221 q 264 206 254 208 l 274 205 q 257 285 258 235 q 268 385 256 335 q 292 481 279 435 q 316 556 305 527 l 328 585 q 347 403 331 489 q 447 229 365 298 m 905 366 q 926 332 908 344 q 965 322 944 319 q 963 325 964 323 q 958 336 961 328 q 952 356 954 345 q 951 388 951 368 q 955 432 951 408 q 992 587 967 505 q 976 587 986 587 q 947 581 966 587 q 921 563 927 574 q 878 473 897 518 q 839 399 859 429 q 795 367 810 355 q 797 424 785 376 q 833 516 810 471 q 875 582 859 568 q 921 586 890 595 q 903 616 928 605 q 838 616 871 632 q 817 603 826 612 q 747 452 763 537 q 701 406 732 422 q 711 483 712 444 q 688 570 709 547 q 632 589 667 593 q 696 596 662 608 q 693 600 695 597 q 685 608 691 602 q 673 619 680 614 q 657 630 667 624 q 638 639 648 637 q 617 643 629 642 q 595 640 606 645 q 541 577 568 630 q 500 460 513 524 q 499 361 488 396 q 528 315 508 333 q 571 291 547 296 q 621 298 594 286 q 670 342 648 311 q 693 382 684 363 q 741 411 721 390 q 742 367 739 387 q 800 326 749 323 q 852 374 822 327 q 903 467 883 420 l 923 513 q 905 366 899 442 m 1217 312 q 1213 316 1215 313 q 1204 330 1210 319 q 1196 353 1199 340 q 1193 388 1193 366 q 1200 435 1194 410 q 1247 578 1216 505 l 1200 601 q 1183 600 1192 605 q 1042 440 1096 534 q 1126 677 1070 562 q 1225 822 1181 793 q 1217 826 1222 823 q 1197 832 1212 828 q 1170 837 1182 836 q 1142 831 1157 838 q 1120 812 1128 825 q 1006 529 1038 680 q 983 366 986 446 q 997 337 985 351 q 1019 316 1008 323 l 1029 309 q 1083 460 1034 393 q 1173 556 1122 518 q 1166 539 1171 550 q 1153 498 1162 528 q 1138 443 1143 469 q 1133 389 1133 417 q 1143 344 1133 360 q 1178 310 1160 318 q 1206 307 1196 302 l 1217 312 m 1316 264 l 1317 264 q 1305 315 1305 283 q 1313 388 1304 347 q 1335 471 1322 428 q 1365 560 1348 513 q 1399 643 1383 606 q 1431 714 1415 679 q 1588 718 1583 718 q 1649 744 1622 723 q 1689 795 1676 764 q 1556 774 1624 774 q 1450 773 1527 773 q 1324 772 1373 774 q 1249 768 1276 771 q 1188 737 1215 760 q 1150 680 1162 713 q 1261 707 1203 707 q 1354 711 1297 710 q 1310 593 1353 706 q 1251 412 1267 479 q 1257 326 1238 368 q 1316 264 1275 284 m 1851 450 q 1876 505 1869 481 q 1881 541 1883 529 q 1872 568 1879 553 q 1841 598 1864 591 q 1799 594 1819 606 q 1693 500 1732 560 q 1756 648 1753 646 l 1736 648 q 1674 621 1688 646 q 1610 443 1644 538 l 1604 426 q 1552 395 1563 401 q 1585 492 1564 435 q 1622 587 1607 549 l 1637 625 q 1562 602 1580 622 q 1526 550 1558 597 q 1465 470 1493 503 q 1425 444 1436 437 q 1453 524 1414 452 q 1510 623 1493 596 q 1490 622 1502 623 q 1452 610 1477 621 q 1417 583 1426 600 q 1369 477 1384 519 q 1367 418 1354 435 q 1394 407 1375 407 q 1437 419 1413 406 q 1481 456 1461 431 l 1554 552 q 1493 369 1519 446 q 1452 345 1478 360 q 1414 322 1425 329 q 1386 299 1403 315 q 1354 264 1369 284 q 1333 226 1339 245 q 1328 191 1326 206 q 1339 164 1330 175 q 1362 150 1348 153 q 1398 153 1377 146 q 1444 176 1419 159 q 1495 238 1476 199 q 1539 354 1514 276 q 1544 369 1542 363 q 1594 397 1577 389 q 1556 271 1571 336 q 1562 225 1550 250 q 1588 186 1574 201 l 1603 171 q 1639 342 1596 197 q 1697 478 1659 415 q 1764 551 1721 520 q 1820 572 1807 581 q 1821 540 1826 564 q 1805 493 1817 515 q 1753 427 1788 453 q 1674 398 1717 401 q 1685 391 1678 395 q 1714 380 1692 387 q 1756 376 1735 374 q 1803 396 1776 378 q 1851 450 1830 414 m 2024 593 q 2070 619 2048 618 q 2092 600 2093 619 q 2064 553 2091 580 q 1989 536 2031 526 q 2012 510 1997 519 q 2046 503 2028 500 q 2104 528 2081 503 q 2124 589 2128 554 q 2100 627 2123 610 q 2043 646 2077 644 q 1969 620 2009 648 q 1911 555 1935 595 q 1887 470 1887 515 q 1923 396 1887 425 q 1985 382 1949 376 q 2053 406 2021 388 q 2104 444 2085 423 q 2117 491 2117 465 q 2081 452 2105 471 q 2031 423 2056 433 q 1984 410 2006 412 q 1954 421 1962 408 q 1963 500 1939 448 q 2024 593 1988 553 m 575 499 q 596 432 576 463 q 649 385 616 401 q 616 319 635 334 q 574 311 597 304 q 554 371 555 316 q 566 469 553 426 q 575 499 574 497 m 1021 -155 q 997 -147 1007 -157 q 989 -126 988 -138 q 994 -104 989 -115 q 1008 -87 1000 -94 q 1031 -81 1019 -81 q 1054 -90 1044 -81 q 1062 -111 1063 -98 q 1057 -133 1062 -123 q 1042 -149 1053 -142 q 1021 -155 1032 -155 m 374 -234 l 421 2 l 1870 2 l 1822 -234 l 374 -234 m 1678 -61 l 1673 -83 l 1710 -83 l 1691 -176 l 1718 -176 l 1737 -83 l 1773 -83 l 1778 -61 l 1678 -61 m 1528 -61 l 1505 -176 l 1531 -176 l 1546 -104 l 1589 -176 l 1611 -176 l 1634 -61 l 1607 -61 l 1593 -133 l 1550 -61 l 1528 -61 m 1349 -93 q 1340 -128 1340 -109 q 1347 -154 1340 -142 q 1367 -172 1354 -165 q 1396 -178 1382 -178 q 1434 -169 1416 -178 q 1459 -144 1449 -161 q 1468 -109 1468 -129 q 1461 -83 1468 -94 q 1441 -65 1453 -71 q 1411 -59 1427 -59 q 1375 -68 1392 -59 q 1349 -93 1358 -77 m 1226 -61 l 1203 -176 l 1230 -176 l 1238 -134 l 1291 -134 l 1296 -113 l 1242 -113 l 1249 -82 l 1309 -82 l 1313 -61 l 1226 -61 m 971 -93 q 962 -128 962 -110 q 968 -154 962 -142 q 988 -172 976 -165 q 1018 -178 1004 -178 q 1055 -169 1038 -178 q 1080 -144 1071 -160 q 1089 -109 1089 -129 q 1082 -83 1089 -94 q 1063 -65 1075 -71 q 1034 -59 1049 -59 q 996 -68 1013 -59 q 971 -93 982 -75 m 795 -61 l 772 -176 l 796 -176 l 810 -107 l 834 -164 l 846 -164 l 890 -108 l 876 -176 l 901 -176 l 924 -61 l 901 -61 l 845 -133 l 817 -61 l 795 -61 m 654 -61 l 632 -176 l 721 -176 l 726 -155 l 663 -155 l 668 -128 l 722 -128 l 726 -107 l 672 -107 l 677 -82 l 737 -82 l 742 -61 l 654 -61 m 489 -61 l 466 -176 l 522 -176 q 560 -168 541 -176 q 585 -144 576 -159 q 594 -109 594 -129 q 587 -83 594 -94 q 568 -66 580 -71 q 537 -61 555 -61 l 489 -61 m 1398 -155 q 1375 -147 1385 -157 q 1367 -126 1367 -138 q 1373 -104 1367 -115 q 1387 -87 1378 -94 q 1409 -81 1397 -81 q 1432 -90 1422 -81 q 1440 -111 1441 -98 q 1436 -133 1440 -123 q 1421 -149 1431 -142 q 1398 -155 1411 -155 m 547 -149 q 523 -154 536 -154 l 497 -154 l 511 -83 l 534 -83 q 559 -90 548 -81 q 567 -111 568 -100 q 562 -133 567 -122 q 547 -149 556 -144 z "},"1":{"ha":2244,"x_min":31,"x_max":2214,"o":"m 1373 254 q 1481 336 1416 310 q 1437 231 1455 265 q 1397 189 1419 197 q 1356 199 1362 177 q 1373 254 1350 221 m 612 524 q 651 511 639 566 q 656 418 661 465 l 654 408 l 654 408 q 611 460 626 423 q 612 524 596 496 m 2212 537 q 2197 465 2214 498 q 2205 437 2205 452 q 2178 355 2206 393 q 2007 276 2108 282 q 1929 302 1963 275 q 1902 330 1913 315 q 1780 271 1855 273 q 1727 280 1751 271 q 1726 276 1727 279 q 1725 273 1725 274 q 1689 129 1700 199 q 1687 98 1693 113 q 1667 75 1681 83 q 1640 66 1653 66 q 1607 80 1622 66 q 1562 134 1579 105 q 1511 81 1541 102 q 1412 43 1468 47 q 1325 96 1357 49 q 1289 150 1305 117 q 1278 205 1276 178 q 1276 208 1278 206 q 1274 211 1274 210 q 1233 201 1253 201 q 1177 219 1202 202 q 1138 263 1152 235 q 1128 283 1135 268 q 1126 286 1128 284 q 1124 288 1125 287 q 1122 290 1122 289 q 1116 254 1117 270 q 1090 212 1115 226 q 1065 205 1078 205 q 1041 212 1053 205 q 1023 223 1032 216 q 1012 219 1019 220 q 994 217 1002 217 q 946 228 968 216 q 909 262 924 240 q 841 221 876 223 l 829 221 q 748 258 779 218 q 694 206 728 226 q 623 185 661 186 q 530 224 568 186 q 534 182 530 204 q 511 132 539 149 q 484 123 497 123 q 455 133 468 123 q 376 227 406 172 q 347 270 361 245 q 355 175 338 222 q 354 125 369 151 q 311 100 340 100 q 217 146 255 102 q 147 279 161 202 q 119 271 136 271 q 102 273 109 271 q 51 316 70 287 q 32 380 31 346 q 34 395 33 387 q 46 424 36 402 q 73 463 57 446 q 120 501 88 481 q 193 534 151 522 q 226 644 212 602 q 251 705 240 686 q 269 729 262 724 q 286 738 275 734 q 306 741 297 741 q 408 679 348 741 q 414 671 410 677 q 493 820 447 747 q 532 857 508 844 q 583 869 556 869 q 665 848 626 868 q 729 751 709 806 q 705 707 730 722 q 676 677 690 696 q 736 627 713 657 q 746 601 745 615 l 750 597 q 782 640 764 623 q 871 674 820 674 q 959 635 924 676 q 983 637 971 637 q 1076 838 1017 743 q 1115 875 1090 862 q 1167 887 1140 888 q 1249 866 1210 886 q 1276 824 1274 853 q 1275 822 1276 823 q 1275 821 1275 821 q 1470 824 1326 824 l 1556 824 q 1671 842 1615 824 q 1689 846 1683 846 q 1726 831 1710 846 q 1763 777 1747 804 q 1773 722 1784 753 q 1761 698 1767 709 q 1789 686 1777 697 q 1805 659 1802 675 q 1807 648 1807 652 q 1827 650 1817 650 q 1898 621 1869 652 q 1940 660 1914 642 q 2042 696 1986 695 q 2121 675 2084 696 q 2178 616 2157 653 q 2212 537 2210 582 m 447 229 q 463 449 431 321 q 546 676 494 577 q 642 803 597 774 q 633 807 638 804 q 613 813 628 809 q 586 818 599 818 q 559 813 573 819 q 536 793 545 807 q 460 650 491 721 q 417 529 430 578 q 400 433 404 479 q 397 365 395 387 q 401 327 398 343 q 371 407 381 361 q 360 493 360 452 q 362 568 359 533 q 368 624 364 603 l 372 644 q 357 659 366 650 q 329 680 348 667 q 302 690 311 693 q 233 492 286 684 q 163 469 193 484 q 118 438 133 454 q 95 408 104 422 q 84 384 85 393 l 82 375 q 218 431 104 407 q 200 349 205 383 q 199 279 194 307 q 216 236 203 251 q 241 214 228 221 q 264 206 254 208 l 274 205 q 257 285 258 235 q 268 385 256 335 q 292 481 279 435 q 316 556 305 527 l 328 585 q 347 403 331 489 q 447 229 365 298 m 905 366 q 926 332 908 344 q 965 322 944 319 q 963 325 964 323 q 958 336 961 328 q 952 356 954 345 q 951 388 951 368 q 955 432 951 408 q 992 587 967 505 q 976 587 986 587 q 947 581 966 587 q 921 563 927 574 q 878 473 897 518 q 839 399 859 429 q 795 367 810 355 q 797 424 785 376 q 833 516 810 471 q 875 582 859 568 q 921 586 890 595 q 903 616 928 605 q 838 616 871 632 q 817 603 826 612 q 747 452 763 537 q 701 406 732 422 q 711 483 712 444 q 688 570 709 547 q 632 589 667 593 q 696 596 662 608 q 693 600 695 597 q 685 608 691 602 q 673 619 680 614 q 657 630 667 624 q 638 639 648 637 q 617 643 629 642 q 595 640 606 645 q 541 577 568 630 q 500 460 513 524 q 499 361 488 396 q 528 315 508 333 q 571 291 547 296 q 621 298 594 286 q 670 342 648 311 q 693 382 684 363 q 741 411 721 390 q 742 367 739 387 q 800 326 749 323 q 852 374 822 327 q 903 467 883 420 l 923 513 q 905 366 899 442 m 1217 312 q 1213 316 1215 313 q 1204 330 1210 319 q 1196 353 1199 340 q 1193 388 1193 366 q 1200 435 1194 410 q 1247 578 1216 505 l 1200 601 q 1183 600 1192 605 q 1042 440 1096 534 q 1126 677 1070 562 q 1225 822 1181 793 q 1217 826 1222 823 q 1197 832 1212 828 q 1170 837 1182 836 q 1142 831 1157 838 q 1120 812 1128 825 q 1006 529 1038 680 q 983 366 986 446 q 997 337 985 351 q 1019 316 1008 323 l 1029 309 q 1083 460 1034 393 q 1173 556 1122 518 q 1166 539 1171 550 q 1153 498 1162 528 q 1138 443 1143 469 q 1133 389 1133 417 q 1143 344 1133 360 q 1178 310 1160 318 q 1206 307 1196 302 l 1217 312 m 1317 264 l 1316 264 q 1304 315 1305 283 q 1313 388 1303 347 q 1335 471 1322 428 q 1365 560 1348 513 q 1399 643 1383 606 q 1432 714 1415 679 q 1588 718 1582 718 q 1649 744 1622 724 q 1690 795 1676 764 q 1556 774 1625 774 q 1451 773 1527 773 q 1325 772 1374 774 q 1250 768 1276 771 q 1188 737 1215 760 q 1150 680 1162 713 q 1261 707 1203 707 q 1354 711 1297 710 q 1310 593 1353 706 q 1251 412 1267 479 q 1257 326 1238 368 q 1317 264 1276 284 m 1851 450 q 1876 505 1869 481 q 1881 541 1883 529 q 1873 568 1880 553 q 1842 597 1864 590 q 1799 594 1819 605 q 1693 500 1733 560 q 1756 648 1754 646 l 1737 648 q 1674 621 1689 646 q 1611 443 1645 538 l 1605 426 q 1552 395 1567 403 q 1585 492 1564 435 q 1622 587 1607 549 l 1638 625 q 1562 602 1580 622 q 1526 550 1558 597 q 1465 470 1493 503 q 1426 444 1436 437 q 1454 524 1415 452 q 1510 623 1493 597 q 1490 622 1502 623 q 1452 610 1477 621 q 1417 583 1427 600 q 1400 549 1407 563 q 1385 517 1394 535 q 1372 485 1377 498 q 1364 458 1367 471 q 1361 434 1360 444 q 1367 418 1362 424 q 1394 407 1375 407 q 1438 419 1413 406 q 1482 456 1462 431 l 1554 552 q 1493 369 1520 446 q 1452 344 1478 359 q 1414 322 1426 329 q 1386 299 1403 315 q 1354 264 1369 284 q 1331 218 1337 241 q 1331 179 1324 195 q 1352 154 1337 163 q 1391 151 1366 145 q 1444 176 1415 156 q 1484 219 1467 192 q 1512 273 1501 247 q 1538 350 1522 300 q 1544 369 1542 362 q 1594 397 1577 389 q 1556 271 1571 336 q 1562 225 1550 250 q 1588 186 1574 201 l 1603 171 q 1639 342 1596 197 q 1697 478 1659 413 q 1765 551 1723 520 q 1820 572 1807 581 q 1822 540 1826 564 q 1806 493 1817 515 q 1753 427 1789 453 q 1674 398 1717 401 q 1685 391 1678 395 q 1714 380 1692 387 q 1756 376 1735 374 q 1803 396 1776 378 q 1851 450 1830 414 m 2024 593 q 2070 619 2048 618 q 2092 600 2093 619 q 2064 553 2091 581 q 1989 536 2030 527 q 2012 510 1997 519 q 2046 503 2028 500 q 2104 528 2081 503 q 2124 589 2127 553 q 2100 627 2123 610 q 2043 646 2077 644 q 1969 620 2009 648 q 1911 555 1935 595 q 1887 470 1887 515 q 1923 396 1887 425 q 1985 382 1949 376 q 2053 406 2021 388 q 2104 444 2085 423 q 2117 491 2117 465 q 2081 452 2105 471 q 2031 423 2056 433 q 1985 410 2007 412 q 1955 421 1963 408 q 1963 501 1939 448 q 2024 593 1988 554 m 575 499 q 596 432 576 463 q 649 385 616 401 q 616 319 635 334 q 574 311 597 304 q 554 371 555 316 q 566 469 553 426 q 575 499 574 497 m 1021 -155 q 997 -147 1007 -157 q 989 -126 988 -138 q 994 -104 989 -115 q 1008 -87 1000 -94 q 1031 -81 1019 -81 q 1054 -90 1044 -81 q 1062 -111 1063 -98 q 1057 -133 1062 -123 q 1042 -149 1053 -142 q 1021 -155 1032 -155 m 374 -234 l 421 2 l 1870 2 l 1822 -234 l 374 -234 m 1678 -61 l 1673 -83 l 1710 -83 l 1691 -176 l 1718 -176 l 1737 -83 l 1773 -83 l 1778 -61 l 1678 -61 m 1528 -61 l 1505 -176 l 1531 -176 l 1546 -104 l 1589 -176 l 1611 -176 l 1634 -61 l 1607 -61 l 1593 -133 l 1550 -61 l 1528 -61 m 1349 -93 q 1340 -128 1340 -109 q 1347 -154 1340 -142 q 1367 -172 1354 -165 q 1396 -178 1382 -178 q 1434 -169 1416 -178 q 1459 -144 1449 -161 q 1468 -109 1468 -129 q 1461 -83 1468 -94 q 1441 -65 1453 -71 q 1411 -59 1427 -59 q 1375 -68 1392 -59 q 1349 -93 1358 -77 m 1226 -61 l 1203 -176 l 1230 -176 l 1238 -134 l 1291 -134 l 1296 -113 l 1242 -113 l 1249 -82 l 1309 -82 l 1313 -61 l 1226 -61 m 971 -93 q 962 -128 962 -110 q 968 -154 962 -142 q 988 -172 976 -165 q 1018 -178 1004 -178 q 1055 -169 1038 -178 q 1080 -144 1071 -160 q 1089 -109 1089 -129 q 1082 -83 1089 -94 q 1063 -65 1075 -71 q 1034 -59 1049 -59 q 996 -68 1013 -59 q 971 -93 982 -75 m 795 -61 l 772 -176 l 796 -176 l 810 -107 l 834 -164 l 846 -164 l 890 -108 l 876 -176 l 901 -176 l 924 -61 l 901 -61 l 845 -133 l 817 -61 l 795 -61 m 654 -61 l 632 -176 l 721 -176 l 726 -155 l 663 -155 l 668 -128 l 722 -128 l 726 -107 l 672 -107 l 677 -82 l 737 -82 l 742 -61 l 654 -61 m 489 -61 l 466 -176 l 522 -176 q 560 -168 541 -176 q 585 -144 576 -159 q 594 -109 594 -129 q 587 -83 594 -94 q 568 -66 580 -71 q 537 -61 555 -61 l 489 -61 m 1398 -155 q 1375 -147 1385 -157 q 1367 -126 1367 -138 q 1373 -104 1367 -115 q 1387 -87 1378 -94 q 1409 -81 1397 -81 q 1432 -90 1422 -81 q 1440 -111 1441 -98 q 1436 -133 1440 -123 q 1421 -149 1431 -142 q 1398 -155 1411 -155 m 547 -149 q 523 -154 536 -154 l 497 -154 l 511 -83 l 534 -83 q 559 -90 548 -81 q 567 -111 568 -100 q 562 -133 567 -122 q 547 -149 556 -144 z "},"2":{"ha":2243,"x_min":31,"x_max":2214,"o":"m 1373 254 q 1481 336 1415 309 q 1437 231 1455 265 q 1397 189 1419 197 q 1356 199 1362 177 q 1373 254 1350 221 m 612 524 q 651 511 639 566 q 656 418 661 465 l 654 408 l 654 408 q 611 460 626 423 q 612 524 596 496 m 2212 537 q 2196 465 2214 499 q 2205 437 2205 451 q 2178 355 2206 393 q 2007 276 2108 282 q 1929 302 1963 275 q 1902 330 1917 311 q 1780 271 1855 273 q 1727 280 1751 271 q 1726 276 1727 279 q 1725 273 1725 274 q 1689 129 1700 199 q 1687 98 1693 113 q 1667 75 1681 83 q 1640 66 1653 66 q 1607 80 1622 66 q 1562 134 1579 105 q 1511 81 1541 102 q 1412 43 1468 47 q 1325 96 1357 49 q 1288 150 1304 119 q 1278 205 1276 177 q 1276 208 1278 206 q 1274 211 1274 210 q 1233 201 1253 201 q 1177 219 1202 202 q 1138 263 1152 235 q 1128 283 1135 268 q 1126 286 1128 284 q 1124 288 1125 287 q 1122 290 1122 289 q 1116 254 1117 270 q 1090 212 1115 226 q 1065 205 1078 205 q 1041 212 1053 205 q 1023 223 1032 216 q 1012 219 1019 220 q 994 217 1002 217 q 946 228 968 216 q 909 262 924 240 q 841 221 876 223 l 829 221 q 748 258 779 218 q 694 206 728 226 q 623 185 661 186 q 530 224 568 186 q 534 182 530 204 q 511 132 539 149 q 484 123 497 123 q 455 133 468 123 q 376 227 406 172 q 346 270 356 252 q 355 175 337 224 q 354 125 369 151 q 311 100 340 100 q 217 146 255 102 q 147 279 161 202 q 119 271 136 271 q 102 273 109 271 q 51 316 70 287 q 32 380 31 346 q 34 395 33 387 q 46 424 36 402 q 73 463 57 446 q 120 501 88 481 q 193 534 151 522 q 226 644 212 602 q 251 705 240 686 q 269 729 262 724 q 286 738 275 734 q 306 741 297 741 q 408 679 348 741 q 414 671 410 677 q 493 820 447 747 q 532 857 508 844 q 583 869 556 869 q 665 848 626 868 q 729 751 709 806 q 705 707 730 722 q 676 677 690 696 q 736 627 713 657 q 746 601 745 615 q 748 599 747 600 q 750 597 749 598 q 782 640 764 623 q 871 674 820 674 q 959 635 924 676 q 983 637 971 637 q 1076 838 1017 743 q 1115 875 1090 862 q 1167 887 1140 888 q 1249 866 1210 886 q 1276 824 1274 853 q 1275 822 1276 823 q 1275 821 1275 821 q 1470 824 1326 824 l 1556 824 q 1671 842 1615 824 q 1689 846 1683 846 q 1725 831 1710 846 q 1763 777 1746 804 q 1773 722 1784 752 q 1760 698 1769 711 q 1789 686 1776 697 q 1805 659 1801 675 q 1806 648 1806 652 q 1827 650 1816 650 q 1898 621 1869 652 q 1939 660 1916 643 q 2042 696 1985 695 q 2121 675 2084 696 q 2178 616 2157 653 q 2212 537 2210 582 m 447 229 q 463 449 431 321 q 546 676 494 577 q 642 803 597 774 q 633 807 638 804 q 613 813 628 809 q 586 818 599 818 q 559 813 573 819 q 536 793 545 807 q 460 650 491 721 q 417 529 430 578 q 400 433 404 479 q 397 365 395 387 q 401 327 398 343 q 371 407 381 361 q 360 493 360 452 q 362 568 359 533 q 368 624 364 603 l 372 644 q 357 659 366 650 q 329 680 348 667 q 302 690 311 693 q 233 492 286 684 q 163 469 193 484 q 118 438 133 454 q 95 408 104 422 q 84 384 85 393 l 82 375 q 218 431 104 407 q 199 349 203 375 q 198 279 193 307 q 215 236 203 251 q 241 214 228 221 q 264 206 254 208 l 274 205 q 257 285 258 235 q 268 385 256 335 q 292 481 279 435 q 316 556 305 527 l 328 585 q 347 403 331 489 q 447 229 365 298 m 905 366 q 925 332 908 344 q 964 322 943 319 q 962 325 964 323 q 957 336 960 328 q 952 356 954 345 q 950 388 950 368 q 954 432 950 408 q 991 587 966 505 q 976 587 985 587 q 946 581 966 587 q 921 563 927 574 q 877 474 897 518 q 838 399 858 429 q 813 369 823 377 q 795 367 804 360 q 797 424 785 376 q 833 516 810 471 q 875 582 859 568 q 921 586 890 595 q 903 617 928 605 q 837 616 871 631 q 816 603 825 612 q 747 452 762 537 q 701 406 732 422 q 711 483 712 446 q 688 570 709 547 q 632 589 667 593 q 696 596 662 608 q 693 600 695 597 q 685 608 691 602 q 673 619 679 614 q 657 630 667 624 q 638 639 647 637 q 617 643 629 642 q 594 640 605 645 q 541 577 568 630 q 500 460 513 524 q 499 361 488 396 q 528 315 508 333 q 571 291 547 296 q 621 298 594 286 q 670 342 648 311 q 693 382 684 363 q 741 411 720 389 q 742 367 739 390 q 800 326 749 323 q 852 374 822 327 q 903 467 883 420 l 923 513 q 905 366 899 442 m 1216 312 l 1217 312 q 1213 316 1215 313 q 1204 330 1210 319 q 1196 353 1199 340 q 1193 388 1193 366 q 1200 435 1194 410 q 1246 578 1217 509 l 1200 601 q 1183 600 1191 606 q 1042 440 1096 535 q 1125 678 1070 562 q 1225 822 1181 793 q 1216 826 1221 823 q 1196 832 1211 828 q 1169 837 1181 836 q 1142 831 1156 838 q 1119 812 1127 825 q 1006 529 1037 680 q 983 366 987 449 q 997 337 985 351 q 1018 316 1008 323 l 1028 309 q 1082 460 1034 393 q 1173 556 1121 517 q 1166 539 1171 550 q 1153 498 1162 528 q 1138 443 1143 469 q 1133 389 1133 417 q 1143 344 1133 360 q 1178 310 1160 318 q 1206 307 1196 302 l 1216 312 m 1316 264 q 1304 315 1305 283 q 1313 388 1303 347 q 1334 471 1322 428 q 1365 560 1347 513 q 1399 643 1383 606 q 1431 714 1415 679 q 1588 718 1583 718 q 1649 744 1622 723 q 1689 795 1676 764 q 1556 774 1624 774 q 1450 773 1527 773 q 1324 772 1373 774 q 1249 768 1276 771 q 1188 737 1215 760 q 1149 680 1161 713 q 1261 707 1202 707 q 1354 711 1297 710 q 1309 592 1352 705 q 1251 412 1266 479 q 1256 326 1238 368 q 1316 264 1275 284 m 1851 450 q 1876 505 1869 481 q 1881 541 1883 529 q 1872 568 1879 553 q 1841 598 1864 591 q 1799 594 1819 606 q 1693 500 1732 560 q 1756 648 1753 646 l 1736 648 q 1674 621 1688 646 q 1610 443 1644 538 l 1604 426 q 1552 395 1561 400 q 1585 492 1564 435 q 1622 587 1607 549 l 1637 625 q 1561 602 1579 622 q 1525 550 1557 597 q 1464 470 1493 503 q 1425 444 1436 437 q 1453 524 1413 452 q 1510 623 1492 595 q 1489 622 1501 623 q 1451 610 1476 621 q 1417 583 1426 600 q 1400 549 1407 563 q 1384 517 1393 535 q 1371 485 1376 498 q 1363 458 1367 471 q 1361 434 1360 444 q 1367 418 1362 424 q 1394 407 1375 407 q 1437 419 1413 406 q 1481 456 1461 431 l 1554 552 q 1493 369 1519 446 q 1452 345 1478 360 q 1414 322 1425 329 q 1386 299 1403 315 q 1354 264 1369 284 q 1333 226 1339 245 q 1328 191 1326 206 q 1339 164 1330 175 q 1362 150 1348 153 q 1398 153 1377 146 q 1444 176 1419 159 q 1483 219 1466 192 q 1511 273 1501 247 q 1537 350 1521 300 q 1544 369 1541 362 q 1594 397 1575 389 q 1556 271 1571 336 q 1562 225 1550 250 q 1588 186 1574 201 l 1603 171 q 1638 342 1596 197 q 1697 478 1659 413 q 1764 551 1721 520 q 1820 572 1807 581 q 1821 540 1826 564 q 1805 493 1817 515 q 1753 427 1788 453 q 1674 398 1717 401 q 1685 391 1678 395 q 1714 380 1692 387 q 1756 376 1735 374 q 1803 396 1776 378 q 1851 450 1830 414 m 2024 593 q 2076 618 2052 623 q 2091 595 2094 615 q 2063 553 2087 575 q 1988 536 2030 527 q 2012 510 1996 519 q 2046 503 2028 500 q 2104 528 2081 503 q 2124 589 2127 553 q 2100 627 2123 610 q 2043 646 2077 644 q 1969 620 2009 648 q 1924 573 1944 602 q 1893 514 1904 545 q 1889 450 1882 482 q 1923 396 1896 418 q 1985 382 1949 376 q 2053 406 2021 388 q 2104 444 2085 423 q 2117 491 2117 465 q 2080 452 2104 471 q 2031 423 2056 433 q 1984 410 2006 412 q 1954 421 1962 408 q 1963 500 1939 448 q 2024 593 1988 553 m 575 499 q 596 432 576 463 q 649 385 616 401 q 616 319 635 334 q 574 311 597 304 q 554 371 555 316 q 566 469 553 426 q 575 499 574 497 m 1020 -155 q 997 -147 1007 -157 q 989 -126 988 -138 q 994 -104 989 -115 q 1008 -87 1000 -94 q 1031 -81 1019 -81 q 1054 -90 1044 -81 q 1062 -111 1063 -98 q 1057 -133 1062 -123 q 1042 -149 1053 -142 q 1020 -155 1032 -155 m 374 -234 l 421 2 l 1870 2 l 1822 -234 l 374 -234 m 1678 -61 l 1673 -83 l 1710 -83 l 1691 -176 l 1718 -176 l 1737 -83 l 1773 -83 l 1778 -61 l 1678 -61 m 1528 -61 l 1505 -176 l 1531 -176 l 1546 -104 l 1589 -176 l 1611 -176 l 1634 -61 l 1607 -61 l 1593 -133 l 1550 -61 l 1528 -61 m 1349 -93 q 1340 -128 1340 -109 q 1347 -154 1340 -142 q 1367 -172 1354 -165 q 1396 -178 1382 -178 q 1433 -169 1415 -178 q 1459 -144 1450 -159 q 1468 -109 1468 -129 q 1461 -83 1468 -94 q 1441 -65 1453 -71 q 1411 -59 1427 -59 q 1374 -68 1391 -59 q 1349 -93 1360 -75 m 1226 -61 l 1203 -176 l 1230 -176 l 1238 -134 l 1291 -134 l 1295 -113 l 1242 -113 l 1249 -82 l 1308 -82 l 1313 -61 l 1226 -61 m 970 -93 q 962 -128 962 -109 q 968 -154 962 -142 q 988 -172 976 -165 q 1018 -178 1004 -178 q 1055 -169 1038 -178 q 1080 -144 1070 -161 q 1089 -109 1089 -129 q 1082 -83 1089 -94 q 1063 -65 1075 -71 q 1033 -59 1048 -59 q 996 -68 1013 -59 q 970 -93 980 -77 m 794 -61 l 771 -176 l 796 -176 l 810 -107 l 833 -164 l 846 -164 l 890 -108 l 876 -176 l 901 -176 l 924 -61 l 901 -61 l 845 -133 l 816 -61 l 794 -61 m 654 -61 l 631 -176 l 721 -176 l 725 -155 l 662 -155 l 667 -128 l 722 -128 l 726 -107 l 672 -107 l 677 -82 l 737 -82 l 742 -61 l 654 -61 m 489 -61 l 466 -176 l 522 -176 q 559 -168 541 -176 q 585 -144 577 -158 q 594 -109 594 -129 q 587 -83 594 -94 q 568 -66 580 -71 q 537 -61 555 -61 l 489 -61 m 1398 -155 q 1375 -147 1385 -157 q 1367 -126 1367 -138 q 1372 -104 1367 -113 q 1387 -87 1377 -94 q 1409 -81 1397 -81 q 1432 -90 1422 -81 q 1440 -111 1441 -98 q 1436 -133 1440 -123 q 1421 -149 1431 -142 q 1398 -155 1411 -155 m 547 -149 q 523 -154 536 -154 l 497 -154 l 511 -83 l 534 -83 q 559 -90 548 -81 q 567 -111 568 -100 q 562 -133 567 -122 q 547 -149 556 -144 z "},"3":{"ha":2244,"x_min":31,"x_max":2214,"o":"m 1373 254 q 1481 336 1416 310 q 1437 231 1455 265 q 1397 189 1419 197 q 1356 199 1362 177 q 1373 254 1350 221 m 612 524 q 651 511 639 566 q 656 418 661 465 l 654 408 l 654 408 q 611 460 626 423 q 612 524 596 496 m 2212 537 q 2197 465 2214 498 q 2205 437 2205 452 q 2178 355 2206 393 q 2007 276 2108 282 q 1929 302 1963 275 q 1902 330 1916 313 q 1780 271 1855 273 q 1727 280 1751 271 q 1726 276 1727 279 q 1725 273 1725 274 q 1689 129 1700 199 q 1687 98 1693 113 q 1667 75 1681 83 q 1640 66 1653 66 q 1607 80 1622 66 q 1562 134 1579 105 q 1511 81 1541 102 q 1412 43 1468 47 q 1325 96 1357 49 q 1289 150 1305 117 q 1278 205 1276 178 q 1276 208 1278 206 q 1274 211 1274 210 q 1233 201 1253 201 q 1177 219 1202 202 q 1138 263 1152 235 q 1128 283 1135 268 q 1126 286 1128 284 q 1124 288 1125 287 q 1122 290 1122 289 q 1116 254 1117 270 q 1090 212 1115 226 q 1065 205 1078 205 q 1041 212 1053 205 q 1023 223 1032 216 q 1012 219 1019 220 q 994 217 1002 217 q 946 228 968 216 q 909 262 924 240 q 841 221 876 223 l 829 221 q 748 258 779 218 q 694 206 728 226 q 623 185 661 186 q 530 224 568 186 q 534 182 530 204 q 511 132 539 149 q 484 123 497 123 q 455 133 468 123 q 376 227 406 172 q 347 270 361 245 q 355 175 338 222 q 354 125 369 151 q 311 100 340 100 q 217 146 255 102 q 147 279 161 202 q 119 271 136 271 q 102 273 109 271 q 51 316 70 287 q 32 380 31 346 q 34 395 33 387 q 46 424 36 402 q 73 463 57 446 q 120 501 88 481 q 193 534 151 522 q 226 644 212 602 q 251 705 240 686 q 269 729 262 724 q 286 738 275 734 q 306 741 297 741 q 408 679 348 741 q 414 671 410 677 q 493 820 447 747 q 532 857 508 844 q 583 869 556 869 q 665 848 626 868 q 729 751 709 806 q 705 707 730 722 q 676 677 690 696 q 736 627 713 657 q 746 601 745 615 l 750 597 q 782 640 764 623 q 871 674 820 674 q 959 635 924 676 q 983 637 971 637 q 1076 838 1017 743 q 1115 875 1090 862 q 1167 887 1140 888 q 1249 866 1210 886 q 1276 824 1274 853 q 1275 822 1276 823 q 1275 821 1275 821 q 1470 824 1326 824 l 1556 824 q 1671 842 1615 824 q 1689 846 1683 846 q 1726 831 1710 846 q 1763 777 1747 804 q 1773 722 1784 753 q 1761 698 1767 709 q 1789 686 1777 697 q 1805 659 1802 675 q 1807 648 1807 652 q 1827 650 1817 650 q 1898 621 1869 652 q 1940 660 1914 642 q 2042 696 1986 695 q 2121 675 2084 696 q 2178 616 2157 653 q 2212 537 2210 582 m 447 229 q 463 449 431 321 q 546 676 494 577 q 642 803 597 774 q 633 807 638 804 q 613 813 628 809 q 586 818 599 818 q 559 813 573 819 q 536 793 545 807 q 460 650 491 721 q 417 529 430 578 q 400 433 404 479 q 397 365 395 387 q 401 327 398 343 q 371 407 381 361 q 360 493 360 452 q 362 568 359 533 q 368 624 364 603 l 372 644 q 357 659 366 650 q 329 680 348 667 q 302 690 311 693 q 233 492 286 684 q 163 469 193 484 q 118 438 133 454 q 95 408 104 422 q 84 384 85 393 l 82 375 q 218 431 104 407 q 200 349 205 383 q 199 279 194 307 q 216 236 203 251 q 241 214 228 221 q 264 206 254 208 l 274 205 q 257 285 258 235 q 268 385 256 335 q 292 481 279 435 q 316 556 305 527 l 328 585 q 347 403 331 489 q 447 229 365 298 m 905 366 q 926 332 908 344 q 965 322 944 319 q 963 325 964 323 q 958 336 961 328 q 952 356 954 345 q 951 388 951 368 q 955 432 951 408 q 992 587 967 505 q 976 587 986 587 q 947 581 966 587 q 921 563 927 574 q 878 473 897 518 q 839 399 859 429 q 795 367 810 355 q 797 424 785 376 q 833 516 810 471 q 875 582 859 568 q 921 586 890 595 q 903 616 928 605 q 838 616 871 632 q 817 603 826 612 q 747 452 763 537 q 701 406 732 422 q 711 483 712 444 q 688 570 709 547 q 632 589 667 593 q 696 596 662 608 q 693 600 695 597 q 685 608 691 602 q 673 619 680 614 q 657 630 667 624 q 638 639 648 637 q 617 643 629 642 q 595 640 606 645 q 541 577 568 630 q 500 460 513 524 q 499 361 488 396 q 528 315 508 333 q 571 291 547 296 q 621 298 594 286 q 670 342 648 311 q 693 382 684 363 q 741 411 721 390 q 742 367 739 387 q 800 326 749 323 q 852 374 822 327 q 903 467 883 420 l 923 513 q 905 366 899 442 m 1217 312 q 1213 316 1215 313 q 1204 330 1210 319 q 1196 353 1199 340 q 1193 388 1193 366 q 1200 435 1194 410 q 1247 578 1216 505 l 1200 601 q 1183 600 1192 605 q 1042 440 1096 534 q 1126 677 1070 562 q 1225 822 1181 793 q 1217 826 1222 823 q 1197 832 1212 828 q 1170 837 1182 836 q 1142 831 1157 838 q 1120 812 1128 825 q 1006 529 1038 680 q 983 366 986 446 q 997 337 985 351 q 1019 316 1008 323 l 1029 309 q 1083 460 1034 393 q 1173 556 1122 518 q 1166 539 1171 550 q 1153 498 1162 528 q 1138 443 1143 469 q 1133 389 1133 417 q 1143 344 1133 360 q 1178 310 1160 318 q 1206 307 1196 302 l 1217 312 m 1317 264 q 1305 315 1305 283 q 1313 388 1304 347 q 1335 471 1322 428 q 1365 559 1348 513 q 1399 643 1383 606 q 1432 714 1415 680 q 1588 718 1582 718 q 1649 744 1622 724 q 1690 795 1676 764 q 1556 774 1625 774 q 1451 773 1527 773 q 1325 772 1374 774 q 1250 768 1276 771 q 1188 737 1215 760 q 1150 680 1162 713 q 1261 707 1203 707 q 1354 711 1297 710 q 1310 593 1353 706 q 1251 412 1267 479 q 1257 326 1238 368 q 1317 264 1276 284 m 1851 450 q 1876 505 1869 481 q 1881 541 1883 529 q 1872 568 1879 553 q 1842 597 1864 590 q 1799 594 1819 605 q 1693 500 1733 560 q 1756 648 1753 646 l 1737 649 q 1674 621 1689 646 q 1611 443 1645 538 l 1605 425 q 1552 395 1573 406 q 1585 492 1564 435 q 1622 587 1607 549 l 1638 625 q 1562 602 1580 622 q 1526 550 1558 597 q 1465 470 1493 503 q 1425 444 1436 437 q 1453 524 1414 452 q 1510 623 1493 596 q 1490 622 1502 623 q 1452 610 1477 621 q 1417 583 1427 600 q 1400 549 1407 563 q 1385 517 1394 535 q 1372 485 1377 498 q 1364 458 1367 471 q 1361 434 1360 444 q 1367 418 1362 424 q 1394 407 1375 407 q 1438 419 1413 406 q 1482 456 1462 431 l 1554 552 q 1493 369 1519 446 q 1452 345 1478 360 q 1414 322 1425 329 q 1386 299 1403 315 q 1354 264 1369 284 q 1331 218 1337 241 q 1331 179 1324 195 q 1352 154 1337 163 q 1391 151 1366 145 q 1444 176 1415 156 q 1484 219 1467 192 q 1512 273 1501 247 q 1538 350 1522 300 q 1544 369 1542 362 q 1594 397 1577 389 q 1556 271 1571 336 q 1562 225 1550 250 q 1588 186 1574 201 l 1603 171 q 1639 342 1596 197 q 1697 478 1659 413 q 1765 551 1723 520 q 1820 572 1807 581 q 1822 540 1826 564 q 1806 493 1817 515 q 1753 427 1789 453 q 1674 398 1717 401 q 1685 391 1678 395 q 1714 380 1692 387 q 1756 376 1735 374 q 1803 396 1776 378 q 1851 450 1830 414 m 2024 593 l 2025 593 q 2077 618 2052 623 q 2091 595 2095 615 q 2064 553 2088 575 q 1989 536 2030 527 q 2012 510 1997 519 q 2046 503 2028 500 q 2104 528 2081 503 q 2124 589 2127 553 q 2100 627 2123 610 q 2043 646 2077 644 q 1969 620 2009 648 q 1911 555 1935 595 q 1887 470 1887 515 q 1923 396 1887 425 q 1985 382 1949 376 q 2053 406 2021 388 q 2104 444 2085 423 q 2117 491 2117 465 q 2081 452 2105 471 q 2031 423 2056 433 q 1985 410 2007 412 q 1955 421 1963 408 q 1963 501 1939 448 q 2024 593 1988 554 m 576 499 q 596 432 577 463 q 649 385 616 401 q 616 319 635 334 q 574 311 597 304 q 554 371 555 316 q 566 469 553 426 q 576 499 570 483 m 1021 -155 q 997 -147 1007 -157 q 989 -126 988 -138 q 994 -104 989 -115 q 1008 -87 1000 -94 q 1031 -81 1019 -81 q 1054 -90 1044 -81 q 1062 -111 1063 -98 q 1057 -133 1062 -123 q 1042 -149 1053 -142 q 1021 -155 1032 -155 m 374 -234 l 421 2 l 1870 2 l 1822 -234 l 374 -234 m 1678 -61 l 1673 -83 l 1710 -83 l 1691 -176 l 1718 -176 l 1737 -83 l 1773 -83 l 1778 -61 l 1678 -61 m 1528 -61 l 1506 -176 l 1531 -176 l 1546 -104 l 1589 -176 l 1611 -176 l 1634 -61 l 1607 -61 l 1593 -133 l 1550 -61 l 1528 -61 m 1349 -93 q 1340 -128 1340 -109 q 1347 -154 1340 -142 q 1367 -172 1354 -165 q 1396 -178 1382 -178 q 1434 -169 1416 -178 q 1459 -144 1449 -161 q 1468 -109 1468 -129 q 1461 -83 1468 -94 q 1441 -65 1453 -71 q 1411 -59 1427 -59 q 1375 -68 1392 -59 q 1349 -93 1358 -77 m 1226 -61 l 1203 -176 l 1230 -176 l 1238 -134 l 1291 -134 l 1296 -113 l 1242 -113 l 1249 -82 l 1309 -82 l 1313 -61 l 1226 -61 m 971 -93 q 962 -128 962 -110 q 968 -154 962 -142 q 988 -172 976 -165 q 1018 -178 1004 -178 q 1055 -169 1038 -178 q 1080 -144 1071 -160 q 1089 -109 1089 -129 q 1082 -83 1089 -94 q 1063 -65 1075 -71 q 1034 -59 1049 -59 q 996 -68 1013 -59 q 971 -93 982 -75 m 795 -61 l 772 -176 l 796 -176 l 810 -107 l 834 -164 l 846 -164 l 890 -108 l 876 -176 l 901 -176 l 924 -61 l 901 -61 l 845 -133 l 817 -61 l 795 -61 m 654 -61 l 632 -176 l 721 -176 l 726 -155 l 663 -155 l 668 -128 l 722 -128 l 726 -107 l 672 -107 l 677 -82 l 737 -82 l 742 -61 l 654 -61 m 489 -61 l 467 -176 l 522 -176 q 560 -168 541 -176 q 585 -144 576 -159 q 594 -109 594 -129 q 587 -83 594 -94 q 568 -66 580 -71 q 538 -61 555 -61 l 489 -61 m 1398 -155 q 1375 -147 1385 -157 q 1367 -126 1367 -138 q 1373 -104 1367 -115 q 1387 -87 1378 -94 q 1409 -81 1397 -81 q 1432 -90 1422 -81 q 1440 -111 1441 -98 q 1436 -133 1440 -123 q 1421 -149 1431 -142 q 1398 -155 1411 -155 m 547 -149 q 523 -154 536 -154 l 497 -154 l 511 -83 l 534 -83 q 559 -90 548 -81 q 567 -111 568 -100 q 562 -133 567 -122 q 547 -149 556 -144 z "},"4":{"ha":2244,"x_min":31,"x_max":2214,"o":"m 1373 254 q 1481 336 1416 310 q 1437 231 1455 265 q 1397 189 1419 197 q 1356 199 1362 177 q 1373 254 1350 221 m 612 524 q 652 510 640 566 q 656 416 661 464 q 655 408 656 412 l 654 408 q 611 460 626 423 q 612 524 596 496 m 2212 537 q 2197 465 2214 498 q 2205 437 2205 452 q 2178 355 2206 393 q 2007 276 2108 282 q 1929 302 1963 275 q 1902 330 1913 315 q 1780 271 1855 273 q 1727 280 1751 271 q 1726 276 1727 279 q 1725 273 1725 274 q 1689 129 1700 199 q 1687 98 1693 113 q 1667 75 1681 83 q 1640 66 1653 66 q 1607 80 1622 66 q 1562 134 1579 105 q 1511 81 1541 102 q 1412 43 1468 47 q 1325 96 1357 49 q 1289 150 1305 117 q 1278 205 1276 178 q 1276 208 1278 206 q 1274 211 1274 210 q 1233 201 1253 201 q 1177 219 1202 202 q 1138 263 1152 235 q 1128 283 1135 268 q 1126 286 1128 284 q 1124 288 1125 287 q 1122 290 1122 289 q 1116 254 1117 270 q 1090 212 1115 226 q 1065 205 1078 205 q 1041 212 1053 205 q 1023 223 1032 216 q 1012 219 1019 220 q 994 217 1002 217 q 946 228 968 216 q 909 262 924 240 q 841 221 876 223 l 829 221 q 748 258 779 218 q 694 206 728 226 q 623 185 661 186 q 530 224 568 186 q 534 182 530 204 q 511 132 539 149 q 484 123 497 123 q 455 133 468 123 q 376 227 406 172 q 347 270 361 245 q 355 175 338 222 q 354 125 369 151 q 311 100 340 100 l 311 100 q 218 146 256 102 q 148 279 162 202 q 119 271 136 271 q 102 273 109 271 q 51 316 70 287 q 32 380 31 346 q 34 395 33 387 q 46 424 36 402 q 73 463 57 446 q 120 501 88 481 q 193 534 151 522 q 226 644 212 602 q 251 705 240 686 q 269 729 262 724 q 286 738 275 734 q 306 741 297 741 q 408 679 348 741 q 414 671 410 677 q 493 820 447 747 q 532 857 508 844 q 584 869 557 869 q 665 848 625 868 q 729 751 709 806 q 706 707 730 722 q 676 677 689 694 q 736 627 713 657 q 746 601 745 615 l 750 597 q 782 640 764 623 q 871 674 820 674 q 959 635 924 676 q 983 637 971 637 q 1077 838 1017 741 q 1116 875 1091 862 q 1167 887 1140 888 q 1249 866 1210 886 q 1276 824 1274 853 l 1276 821 q 1470 824 1326 824 l 1556 824 q 1672 842 1615 824 q 1690 846 1684 846 q 1726 831 1710 846 q 1763 777 1744 808 q 1773 722 1784 752 q 1761 698 1767 709 q 1789 686 1777 697 q 1805 659 1802 675 q 1807 648 1807 652 q 1827 650 1817 650 q 1898 621 1869 652 q 1940 660 1914 642 q 2042 696 1986 695 q 2121 675 2084 696 q 2178 616 2157 653 q 2212 537 2210 582 m 447 229 q 463 449 431 321 q 546 676 494 577 q 642 803 597 774 q 633 807 638 804 q 613 813 628 809 q 586 818 599 818 q 559 813 573 819 q 536 793 545 807 q 460 650 491 721 q 417 529 430 578 q 400 433 404 479 q 397 365 395 387 q 401 327 398 343 q 371 407 381 361 q 360 492 360 452 q 362 567 359 532 q 368 623 364 602 l 372 644 q 367 649 370 646 q 353 662 363 653 q 335 677 343 671 q 317 688 326 683 q 302 690 307 692 q 233 492 286 684 q 163 469 193 484 q 118 438 133 454 q 95 408 104 422 q 84 384 85 393 l 82 375 q 218 431 104 407 q 199 349 203 375 q 198 279 193 307 q 215 236 203 251 q 241 214 228 221 q 264 206 254 208 l 274 205 q 257 285 258 235 q 268 385 256 335 q 292 481 279 435 q 316 556 305 527 l 328 585 q 347 403 331 489 q 447 229 365 298 m 905 366 q 926 332 908 344 q 964 322 943 319 q 962 325 964 323 q 957 336 960 328 q 952 356 954 345 q 950 388 950 368 q 954 432 950 408 q 991 587 966 505 q 976 587 985 587 q 946 581 966 587 q 921 563 927 574 q 877 474 897 518 q 838 399 858 429 q 813 369 823 377 q 795 367 804 360 q 797 424 785 376 q 833 516 810 471 q 875 582 859 568 q 921 586 890 595 q 903 616 928 605 q 838 616 871 632 q 817 603 826 612 q 747 452 763 537 q 701 406 732 422 q 711 483 712 444 q 688 570 709 547 q 632 589 667 593 q 696 596 662 608 q 693 600 695 597 q 685 608 691 602 q 673 619 679 614 q 657 630 667 624 q 638 639 647 637 q 617 643 629 642 q 594 640 605 645 q 541 577 568 630 q 500 460 513 524 q 499 361 488 396 q 528 315 508 333 q 571 291 547 296 q 621 298 594 286 q 670 342 648 311 q 693 382 684 363 q 741 411 721 390 q 742 367 739 387 q 800 326 749 323 q 852 374 822 327 q 903 467 883 420 l 923 513 q 905 366 899 442 m 1217 312 q 1213 316 1215 313 q 1204 330 1210 319 q 1196 353 1199 340 q 1193 388 1193 366 q 1200 435 1194 410 q 1247 578 1216 505 l 1200 601 q 1183 600 1192 605 q 1042 440 1096 534 q 1126 677 1070 562 q 1225 822 1181 793 q 1217 826 1222 823 q 1197 832 1212 828 q 1170 837 1182 836 q 1142 831 1157 838 q 1120 812 1128 825 q 1006 529 1038 680 q 983 366 986 446 q 997 337 985 351 q 1019 316 1008 323 l 1029 309 q 1083 460 1034 393 q 1173 556 1122 518 q 1166 539 1171 550 q 1153 498 1162 528 q 1138 443 1143 469 q 1133 389 1133 417 q 1143 344 1133 360 q 1178 310 1160 318 q 1206 307 1196 302 l 1217 312 m 1317 264 q 1305 315 1305 283 q 1313 388 1304 347 q 1335 471 1322 428 q 1365 559 1348 513 q 1399 643 1383 606 q 1432 714 1415 680 q 1588 718 1582 718 q 1649 744 1622 723 q 1689 795 1676 764 q 1556 774 1624 774 q 1451 773 1527 773 q 1325 772 1374 774 q 1250 768 1276 771 q 1188 737 1215 760 q 1150 680 1162 713 q 1261 707 1203 707 q 1354 711 1297 710 q 1310 593 1353 706 q 1251 412 1267 479 q 1257 326 1238 368 q 1317 264 1276 284 m 1851 450 q 1876 505 1869 481 q 1881 541 1883 529 q 1872 568 1879 553 q 1842 597 1864 590 q 1799 594 1819 605 q 1693 500 1733 560 q 1756 648 1754 646 l 1737 648 q 1674 621 1689 645 q 1611 442 1645 538 l 1605 425 q 1552 395 1573 406 q 1585 492 1564 435 q 1622 587 1607 549 l 1638 625 q 1562 602 1580 622 q 1526 550 1558 597 q 1465 470 1493 503 q 1425 444 1436 437 q 1453 523 1414 452 q 1510 622 1492 595 q 1490 621 1502 622 q 1452 610 1477 620 q 1417 583 1427 600 q 1400 549 1407 563 q 1385 517 1394 535 q 1372 485 1377 498 q 1364 458 1367 471 q 1361 434 1360 444 q 1367 418 1362 424 q 1394 406 1375 407 q 1438 418 1413 406 q 1482 455 1462 431 l 1554 552 q 1493 369 1519 446 q 1452 345 1478 360 q 1414 322 1425 329 q 1386 299 1403 315 q 1354 264 1369 284 q 1329 208 1333 236 q 1338 163 1326 180 q 1379 149 1350 147 q 1444 176 1408 150 q 1495 236 1476 199 q 1539 353 1513 274 q 1544 369 1542 363 q 1594 397 1577 389 q 1556 271 1571 336 q 1562 225 1550 250 q 1588 186 1574 201 l 1603 171 q 1639 342 1596 197 q 1697 478 1659 413 q 1765 551 1723 520 q 1820 572 1807 581 q 1822 540 1826 564 q 1806 493 1817 515 q 1753 427 1789 453 q 1674 398 1717 401 q 1685 391 1678 395 q 1714 380 1692 387 q 1756 376 1735 374 q 1803 396 1776 378 q 1851 450 1830 414 m 2024 593 q 2070 619 2048 618 q 2092 600 2093 619 q 2064 553 2091 580 q 1989 536 2031 526 q 2012 510 1997 519 q 2046 503 2028 500 q 2104 528 2081 503 q 2124 589 2128 553 q 2100 627 2123 610 q 2043 646 2077 644 q 1969 620 2009 648 q 1911 555 1935 595 q 1887 470 1887 515 q 1923 395 1887 425 q 1985 381 1949 376 q 2053 405 2021 387 q 2104 444 2085 423 q 2117 491 2117 465 q 2081 452 2105 471 q 2031 423 2056 433 q 1985 410 2007 412 q 1955 421 1963 408 q 1963 501 1939 448 q 2024 593 1988 554 m 575 499 q 596 432 576 463 q 649 385 616 401 q 616 319 635 334 q 574 311 597 304 q 554 371 555 316 q 566 469 553 426 q 575 499 574 497 m 1021 -155 q 997 -147 1007 -157 q 989 -126 988 -138 q 994 -104 989 -115 q 1008 -87 1000 -94 q 1031 -81 1019 -81 q 1054 -90 1044 -80 q 1062 -111 1063 -98 q 1057 -133 1062 -123 q 1042 -149 1053 -142 q 1021 -155 1032 -155 m 374 -234 l 421 2 l 1870 2 l 1822 -234 l 374 -234 m 1678 -61 l 1673 -83 l 1710 -83 l 1691 -176 l 1718 -176 l 1737 -83 l 1773 -83 l 1778 -61 l 1678 -61 m 1528 -61 l 1505 -176 l 1531 -176 l 1546 -104 l 1589 -176 l 1611 -176 l 1634 -61 l 1607 -61 l 1593 -133 l 1550 -61 l 1528 -61 m 1349 -93 q 1340 -128 1340 -109 q 1347 -154 1340 -142 q 1367 -172 1354 -165 q 1396 -178 1382 -178 q 1434 -169 1416 -178 q 1459 -144 1449 -161 q 1468 -109 1468 -129 q 1461 -83 1468 -94 q 1441 -65 1453 -71 q 1411 -59 1427 -59 q 1375 -68 1392 -59 q 1349 -93 1358 -77 m 1226 -61 l 1203 -176 l 1230 -176 l 1238 -134 l 1291 -134 l 1296 -113 l 1242 -113 l 1249 -82 l 1309 -82 l 1313 -61 l 1226 -61 m 971 -93 q 962 -128 962 -110 q 968 -154 962 -142 q 988 -172 976 -165 q 1018 -178 1004 -178 q 1055 -169 1038 -178 q 1080 -144 1071 -160 q 1089 -109 1089 -129 q 1082 -83 1089 -94 q 1063 -65 1075 -71 q 1033 -59 1049 -59 q 996 -68 1013 -59 q 971 -93 982 -75 m 795 -61 l 772 -176 l 796 -176 l 810 -107 l 834 -164 l 846 -164 l 890 -108 l 876 -176 l 901 -176 l 924 -61 l 901 -61 l 845 -133 l 817 -61 l 795 -61 m 654 -61 l 631 -176 l 721 -176 l 725 -155 l 663 -155 l 668 -128 l 722 -128 l 726 -107 l 672 -107 l 677 -82 l 737 -82 l 742 -61 l 654 -61 m 489 -61 l 466 -176 l 522 -176 q 560 -168 541 -176 q 585 -144 576 -159 q 594 -109 594 -129 q 587 -83 594 -94 q 568 -66 580 -71 q 537 -61 555 -61 l 489 -61 m 1398 -155 q 1375 -147 1385 -156 q 1367 -126 1367 -138 q 1373 -104 1367 -115 q 1387 -87 1378 -94 q 1409 -81 1397 -81 q 1432 -90 1422 -81 q 1440 -111 1441 -98 q 1436 -133 1440 -123 q 1421 -149 1431 -142 q 1398 -155 1411 -155 m 547 -149 q 523 -154 536 -154 l 497 -154 l 511 -83 l 534 -83 q 559 -90 548 -81 q 567 -111 568 -100 q 562 -133 567 -122 q 547 -149 556 -144 z "},"5":{"ha":2244,"x_min":31,"x_max":2214,"o":"m 1373 254 q 1481 336 1416 310 q 1437 231 1455 265 q 1397 189 1419 197 q 1356 199 1362 177 q 1373 254 1350 221 m 612 524 q 651 511 639 566 q 656 418 661 465 l 654 408 l 654 408 q 611 460 626 423 q 612 524 596 496 m 2212 537 q 2196 465 2214 499 q 2205 437 2205 452 q 2178 355 2206 393 q 2007 276 2108 282 q 1929 302 1963 275 q 1902 330 1919 310 q 1780 271 1855 273 q 1727 281 1753 271 q 1726 277 1727 279 q 1725 273 1725 275 q 1689 130 1700 199 q 1687 98 1693 113 q 1666 74 1681 83 q 1635 67 1652 65 q 1607 80 1619 68 q 1562 135 1580 104 q 1511 81 1541 102 q 1412 44 1468 47 q 1325 96 1356 50 q 1288 150 1304 119 q 1278 206 1275 177 q 1276 209 1278 208 q 1274 211 1274 210 q 1233 201 1253 201 q 1177 219 1202 202 q 1138 263 1152 235 q 1128 283 1135 268 q 1126 286 1128 284 q 1124 288 1125 287 q 1122 290 1122 289 q 1116 254 1117 270 q 1101 219 1116 233 q 1065 205 1086 205 q 1041 212 1053 205 q 1023 223 1032 216 q 1012 219 1019 220 q 994 218 1006 218 q 946 229 968 217 q 909 262 924 241 q 841 221 876 223 l 829 221 q 748 258 779 218 q 694 207 728 226 q 623 186 661 187 q 530 224 567 187 q 534 182 530 204 q 511 132 539 149 q 483 124 498 123 q 455 133 467 124 q 376 227 406 172 q 347 270 359 249 q 355 175 338 222 q 354 125 369 151 q 311 100 340 100 q 217 146 255 102 q 147 280 161 202 q 119 271 134 271 q 102 274 111 271 q 51 317 70 288 q 32 380 31 346 q 34 395 33 387 q 46 424 36 402 q 73 463 57 446 q 120 501 88 481 q 193 534 151 522 q 226 644 212 602 q 251 705 240 686 q 269 729 262 724 q 286 738 275 734 q 306 741 297 741 q 408 680 349 741 q 410 677 409 679 q 412 674 411 676 q 414 671 414 672 q 493 821 448 749 q 583 869 525 871 q 665 848 627 867 q 729 751 709 806 q 705 707 730 722 q 676 677 690 696 q 736 627 713 657 q 746 601 745 615 q 748 599 747 600 q 750 597 749 598 q 782 640 764 623 q 871 674 820 674 q 959 635 924 676 q 983 637 967 637 q 1076 838 1017 743 q 1115 875 1090 862 q 1167 887 1140 888 q 1249 866 1210 886 q 1276 824 1274 853 q 1275 822 1276 823 q 1275 821 1275 821 q 1470 824 1326 824 q 1514 824 1485 824 q 1556 825 1542 825 q 1671 843 1615 825 q 1726 831 1702 855 q 1763 777 1747 804 q 1773 722 1784 753 q 1761 698 1767 709 q 1789 686 1777 697 q 1805 659 1802 675 q 1807 648 1807 652 q 1827 650 1817 650 q 1898 621 1869 652 q 1940 660 1914 642 q 2042 696 1986 695 q 2121 675 2084 696 q 2178 616 2157 653 q 2212 537 2210 582 m 447 229 q 463 449 431 321 q 546 676 494 577 q 642 803 597 774 q 633 807 638 804 q 613 813 628 809 q 586 818 599 818 q 559 813 573 819 q 536 793 545 807 q 460 650 491 721 q 417 529 430 578 q 400 433 404 479 q 397 365 395 387 q 401 327 398 343 q 371 407 381 361 q 360 493 360 452 q 362 568 359 533 q 368 624 364 603 l 372 644 q 357 659 366 650 q 330 680 349 667 q 302 690 311 693 q 233 492 286 684 q 163 469 193 484 q 118 438 133 454 q 95 408 104 422 q 84 384 85 393 l 82 375 q 218 431 104 407 q 199 349 203 375 q 198 279 193 307 q 215 236 203 251 q 241 214 228 221 q 264 206 254 208 l 274 205 q 257 285 258 235 q 268 385 256 335 q 292 481 279 435 q 316 556 305 527 l 328 585 q 347 403 331 489 q 447 229 365 298 m 905 366 q 926 332 908 344 q 964 322 943 319 q 959 332 962 325 q 951 366 956 338 q 955 432 947 393 q 992 587 967 505 q 976 587 986 587 q 947 581 966 587 q 921 563 927 574 q 878 473 897 518 q 839 399 859 429 q 795 367 810 355 q 797 424 785 376 q 833 516 810 471 q 875 582 859 568 q 921 586 890 595 q 903 616 928 605 q 838 616 871 632 q 817 603 826 612 q 747 452 763 537 q 701 406 732 422 q 711 483 712 444 q 688 570 709 547 q 632 589 667 593 q 696 596 662 608 q 693 600 695 597 q 685 608 691 602 q 673 619 680 614 q 657 630 667 624 q 638 639 648 637 q 617 643 629 642 q 595 640 606 645 q 541 577 568 630 q 500 460 513 524 q 499 361 488 396 q 528 315 508 333 q 571 291 547 296 q 621 298 594 286 q 670 342 648 311 q 693 382 684 363 q 741 411 721 390 q 742 367 739 387 q 800 326 749 323 q 852 374 822 327 q 903 467 883 420 l 923 513 q 905 366 899 442 m 1217 312 q 1213 316 1215 313 q 1204 330 1210 319 q 1196 353 1199 340 q 1193 388 1193 366 q 1200 435 1194 410 q 1247 578 1216 505 l 1200 601 q 1183 600 1192 605 q 1042 440 1096 534 q 1126 677 1070 562 q 1225 822 1181 793 q 1217 826 1222 823 q 1197 832 1212 828 q 1170 837 1182 836 q 1142 831 1157 838 q 1120 812 1128 825 q 1006 529 1038 680 q 983 366 986 446 q 997 337 985 351 q 1019 316 1008 323 l 1029 309 q 1083 460 1034 393 q 1173 556 1122 518 q 1166 539 1171 550 q 1153 498 1162 528 q 1138 443 1143 469 q 1133 389 1133 417 q 1143 344 1133 360 q 1178 310 1160 318 q 1206 307 1196 302 l 1217 312 m 1317 264 q 1305 315 1305 283 q 1313 388 1304 347 q 1335 471 1322 428 q 1365 559 1348 513 q 1399 643 1383 606 q 1432 714 1415 680 q 1588 718 1582 718 q 1649 744 1622 723 q 1689 795 1676 764 q 1556 774 1624 774 q 1451 773 1527 773 q 1325 772 1374 774 q 1250 768 1276 771 q 1188 737 1215 760 q 1150 680 1162 713 q 1261 707 1203 707 q 1354 711 1297 710 q 1310 593 1353 706 q 1251 412 1267 479 q 1257 326 1238 368 q 1317 264 1276 284 m 1851 450 q 1876 505 1869 481 q 1881 541 1883 529 q 1873 568 1880 553 q 1842 598 1864 591 q 1799 594 1820 606 q 1693 500 1733 560 q 1756 648 1754 646 l 1737 648 q 1674 621 1689 646 q 1611 443 1645 538 l 1605 426 q 1552 395 1564 401 q 1585 492 1564 435 q 1622 587 1607 549 l 1638 625 q 1562 602 1580 622 q 1526 550 1558 597 q 1465 470 1493 503 q 1426 444 1436 437 q 1453 524 1414 452 q 1510 623 1493 595 q 1490 622 1502 623 q 1452 610 1477 621 q 1417 583 1427 600 q 1400 549 1407 563 q 1385 517 1394 535 q 1372 485 1377 498 q 1364 458 1367 471 q 1361 434 1360 444 q 1367 418 1362 424 q 1394 407 1375 407 q 1438 419 1413 406 q 1482 456 1462 431 l 1554 552 q 1493 369 1520 446 q 1452 344 1478 359 q 1414 322 1426 329 q 1386 299 1403 315 q 1354 264 1369 284 q 1331 218 1337 241 q 1331 179 1324 195 q 1352 154 1337 163 q 1391 151 1366 145 q 1444 176 1415 156 q 1484 219 1467 192 q 1512 273 1501 247 q 1538 350 1522 300 q 1544 369 1542 362 q 1594 397 1577 389 q 1556 271 1571 336 q 1563 225 1550 250 q 1590 186 1575 201 l 1604 171 q 1639 342 1596 197 q 1697 478 1659 413 q 1765 551 1723 520 q 1820 572 1807 581 q 1822 540 1826 564 q 1806 493 1817 515 q 1753 427 1789 453 q 1674 398 1717 401 q 1685 391 1678 395 q 1714 380 1692 387 q 1756 376 1735 374 q 1803 396 1776 378 q 1851 450 1830 414 m 2024 593 q 2070 619 2048 618 q 2092 600 2093 619 q 2064 553 2091 581 q 1989 536 2030 527 q 2012 510 1997 519 q 2046 503 2028 500 q 2104 528 2081 503 q 2124 589 2127 553 q 2100 627 2123 610 q 2043 646 2077 644 q 1969 620 2009 648 q 1911 555 1935 595 q 1887 470 1887 515 q 1923 396 1887 425 q 1985 382 1949 376 q 2053 406 2021 388 q 2104 444 2085 423 q 2117 491 2117 465 q 2081 452 2105 471 q 2031 423 2056 433 q 1985 410 2007 412 q 1955 421 1963 408 q 1963 501 1939 448 q 2024 593 1988 554 m 575 499 q 596 432 576 463 q 649 385 616 401 q 616 319 635 334 q 574 311 597 304 q 554 371 555 316 q 566 469 553 426 q 575 499 574 497 m 1021 -155 q 997 -147 1007 -157 q 989 -126 988 -138 q 994 -104 989 -115 q 1031 -81 1005 -80 q 1054 -90 1044 -81 q 1062 -111 1063 -98 q 1057 -133 1062 -123 q 1021 -155 1046 -157 m 374 -234 l 421 2 l 1870 2 l 1822 -234 l 374 -234 m 1678 -61 l 1673 -83 l 1710 -83 l 1691 -176 l 1718 -176 l 1737 -83 l 1773 -83 l 1778 -61 l 1678 -61 m 1528 -61 l 1505 -176 l 1531 -176 l 1546 -104 l 1589 -176 l 1611 -176 l 1634 -61 l 1607 -61 l 1593 -133 l 1550 -61 l 1528 -61 m 1349 -93 l 1350 -93 q 1340 -128 1340 -110 q 1347 -154 1340 -142 q 1367 -172 1354 -165 q 1396 -178 1382 -178 q 1434 -169 1416 -178 q 1459 -144 1449 -160 q 1468 -109 1468 -129 q 1461 -83 1468 -94 q 1441 -65 1453 -71 q 1411 -59 1427 -59 q 1375 -68 1392 -59 q 1349 -93 1359 -75 m 1226 -61 l 1203 -176 l 1230 -176 l 1238 -134 l 1291 -134 l 1296 -113 l 1242 -113 l 1249 -82 l 1309 -82 l 1313 -61 l 1226 -61 m 971 -93 q 962 -128 962 -110 q 968 -154 962 -142 q 988 -172 976 -165 q 1018 -178 1004 -178 q 1055 -169 1038 -178 q 1080 -144 1070 -161 q 1089 -109 1089 -129 q 1082 -83 1089 -94 q 1063 -65 1075 -71 q 1034 -59 1049 -59 q 996 -68 1013 -59 q 971 -93 981 -77 m 795 -61 l 772 -176 l 796 -176 l 810 -107 l 834 -164 l 846 -164 l 890 -108 l 876 -176 l 901 -176 l 924 -61 l 901 -61 l 845 -133 l 817 -61 l 795 -61 m 655 -61 l 631 -176 l 721 -176 l 725 -155 l 663 -155 l 667 -128 l 722 -128 l 726 -107 l 672 -107 l 677 -82 l 737 -82 l 742 -61 l 655 -61 m 489 -61 l 467 -176 l 522 -176 q 560 -168 541 -176 q 585 -144 576 -159 q 594 -109 594 -129 q 587 -83 594 -94 q 568 -66 580 -71 q 538 -61 555 -61 l 489 -61 m 1398 -155 q 1375 -147 1385 -157 q 1367 -126 1367 -138 q 1373 -104 1367 -115 q 1387 -87 1378 -94 q 1409 -81 1397 -81 q 1432 -90 1422 -81 q 1440 -111 1441 -98 q 1436 -133 1440 -123 q 1398 -155 1424 -157 m 547 -149 q 523 -154 536 -154 l 497 -154 l 511 -83 l 534 -83 q 559 -90 548 -81 q 567 -111 568 -100 q 562 -133 567 -122 q 547 -149 556 -144 z "},"6":{"ha":2244,"x_min":31,"x_max":2214,"o":"m 1373 254 q 1481 336 1416 310 q 1437 231 1455 265 q 1397 189 1419 197 q 1356 199 1362 177 q 1373 254 1350 221 m 612 524 q 651 511 639 566 q 656 418 661 465 l 654 408 l 654 408 q 611 460 626 423 q 612 524 596 496 m 2212 537 q 2197 465 2214 498 q 2205 437 2205 453 q 2178 355 2206 393 q 2007 276 2108 282 q 1929 302 1963 275 q 1902 330 1917 311 q 1780 271 1855 273 q 1727 281 1753 271 q 1726 277 1727 279 q 1725 273 1725 275 q 1689 130 1700 199 q 1687 98 1693 113 q 1666 74 1681 83 q 1635 67 1652 65 q 1607 80 1619 68 q 1562 135 1580 104 q 1511 81 1540 101 q 1412 44 1468 47 q 1325 96 1356 50 q 1289 150 1305 117 q 1278 206 1276 178 q 1276 209 1278 208 q 1274 211 1274 210 q 1233 201 1253 201 q 1177 219 1202 202 q 1138 263 1152 235 q 1128 283 1135 268 q 1126 286 1128 284 q 1124 288 1125 287 q 1122 290 1122 289 q 1116 254 1117 270 q 1101 219 1116 233 q 1065 205 1086 205 q 1041 212 1053 205 q 1023 223 1032 216 q 1012 219 1019 220 q 994 218 1006 218 q 946 229 968 217 q 909 262 924 241 q 841 221 876 223 l 829 221 q 748 258 779 218 q 694 207 728 226 q 623 186 661 187 q 530 224 567 187 q 534 182 530 204 q 511 132 539 149 q 483 124 498 123 q 455 133 467 124 q 376 227 406 172 q 347 270 359 249 q 355 175 338 222 q 354 125 369 151 q 311 100 340 100 q 217 146 255 102 q 147 280 161 202 q 119 271 134 271 q 102 274 111 271 q 51 317 70 288 q 32 380 31 346 q 34 395 33 387 q 46 424 36 402 q 73 463 57 446 q 120 501 88 481 q 193 534 151 522 q 226 644 212 602 q 251 705 240 686 q 269 729 262 724 q 286 738 275 734 q 306 741 297 741 q 408 680 349 741 q 410 677 409 679 q 412 674 411 676 q 414 671 414 672 q 493 821 448 749 q 583 869 525 871 q 665 848 627 867 q 729 751 709 806 q 705 707 730 722 q 676 677 690 696 q 736 627 713 657 q 746 601 745 615 q 748 599 747 600 q 750 597 749 598 q 782 640 764 623 q 871 674 820 674 q 959 635 924 676 q 983 637 967 637 q 1076 838 1017 743 q 1115 875 1090 862 q 1167 887 1140 888 q 1249 866 1210 886 q 1276 824 1274 853 q 1275 822 1276 823 q 1275 821 1275 821 q 1470 824 1326 824 q 1514 824 1485 824 q 1556 825 1542 825 q 1671 843 1615 825 q 1726 831 1702 855 q 1763 777 1747 804 q 1773 722 1784 753 q 1761 698 1767 709 q 1789 686 1777 697 q 1805 659 1802 675 q 1807 648 1807 652 q 1827 650 1817 650 q 1898 621 1869 652 q 1940 660 1914 642 q 2042 696 1986 695 q 2121 675 2084 696 q 2178 616 2157 653 q 2212 537 2210 582 m 447 229 q 463 449 431 321 q 546 676 494 577 q 642 803 597 774 q 633 807 638 804 q 613 813 628 809 q 586 818 599 818 q 559 813 573 819 q 536 793 545 807 q 460 650 491 721 q 417 529 430 578 q 400 433 404 479 q 397 365 395 387 q 401 327 398 343 q 371 407 381 361 q 360 493 360 452 q 362 568 359 533 q 368 624 364 603 l 372 644 q 357 659 366 650 q 329 680 348 667 q 302 690 311 693 q 233 492 286 684 q 163 469 193 484 q 118 438 133 454 q 95 408 104 422 q 84 384 85 393 l 82 375 q 218 431 104 407 q 199 349 203 375 q 198 279 193 307 q 215 236 203 251 q 241 214 228 221 q 264 206 254 208 l 274 205 q 257 285 258 235 q 268 385 256 335 q 292 481 279 435 q 316 556 305 527 l 328 585 q 347 403 331 489 q 447 229 365 298 m 905 366 q 926 332 908 344 q 964 322 943 319 q 959 332 962 325 q 951 366 956 338 q 955 432 947 393 q 992 587 967 505 q 976 587 986 587 q 947 581 966 587 q 921 563 927 574 q 878 473 897 518 q 839 399 859 429 q 795 367 810 355 q 797 424 785 376 q 833 516 810 471 q 875 582 859 568 q 921 586 890 595 q 903 616 928 605 q 838 616 871 632 q 817 603 826 612 q 747 452 763 537 q 701 406 732 422 q 711 483 712 444 q 688 570 709 547 q 632 589 667 593 q 696 596 662 608 q 693 600 695 597 q 685 608 691 602 q 673 619 679 614 q 657 630 667 624 q 638 639 647 637 q 617 643 629 642 q 594 640 605 645 q 541 577 568 630 q 500 460 513 524 q 499 361 488 396 q 528 315 508 333 q 571 291 547 296 q 621 298 594 286 q 670 342 648 311 q 693 382 684 363 q 741 411 721 390 q 742 367 739 387 q 800 326 749 323 q 852 374 822 327 q 903 467 883 420 l 923 513 q 905 366 899 442 m 1217 312 q 1213 316 1215 313 q 1204 330 1210 319 q 1196 353 1199 340 q 1193 388 1193 366 q 1200 435 1194 410 q 1247 578 1216 505 l 1200 601 q 1183 600 1192 605 q 1042 440 1096 534 q 1126 677 1070 562 q 1225 822 1181 793 q 1217 826 1222 823 q 1197 832 1212 828 q 1170 837 1182 836 q 1142 831 1157 838 q 1120 812 1128 825 q 1006 529 1038 680 q 983 366 986 446 q 997 337 985 351 q 1019 316 1008 323 l 1029 309 q 1083 460 1034 393 q 1173 556 1122 518 q 1166 539 1171 550 q 1153 498 1162 528 q 1138 443 1143 469 q 1133 389 1133 417 q 1143 344 1133 360 q 1178 310 1160 318 q 1206 307 1196 302 l 1217 312 m 1316 264 l 1317 264 q 1305 315 1305 283 q 1313 388 1304 347 q 1335 471 1322 428 q 1365 560 1348 513 q 1399 643 1383 606 q 1431 714 1415 679 q 1588 718 1583 718 q 1649 744 1622 723 q 1689 795 1676 764 q 1556 774 1624 774 q 1450 773 1527 773 q 1324 772 1373 774 q 1249 768 1276 771 q 1188 737 1215 760 q 1150 680 1162 713 q 1261 707 1203 707 q 1354 711 1297 710 q 1310 593 1353 706 q 1251 412 1267 479 q 1257 326 1238 368 q 1316 264 1275 284 m 1851 450 q 1876 505 1869 481 q 1881 541 1883 529 q 1872 568 1879 553 q 1842 598 1864 591 q 1799 594 1820 606 q 1693 500 1733 560 q 1756 648 1753 646 l 1737 649 q 1674 621 1689 646 q 1611 443 1645 538 l 1605 426 q 1552 395 1564 401 q 1585 492 1564 435 q 1622 587 1607 549 l 1638 625 q 1562 602 1580 622 q 1526 550 1558 597 q 1465 470 1493 503 q 1425 444 1436 437 q 1453 524 1414 452 q 1510 623 1493 596 q 1490 622 1502 623 q 1452 610 1477 621 q 1417 583 1427 600 q 1400 549 1407 563 q 1385 517 1394 535 q 1372 485 1377 498 q 1364 458 1367 471 q 1361 434 1360 444 q 1367 418 1362 424 q 1394 407 1375 407 q 1438 419 1413 406 q 1482 456 1462 431 l 1554 552 q 1493 369 1519 446 q 1452 345 1478 360 q 1414 322 1425 329 q 1386 299 1403 315 q 1354 264 1369 284 q 1331 218 1337 241 q 1331 179 1324 195 q 1352 154 1337 163 q 1391 151 1366 145 q 1444 176 1415 156 q 1484 219 1467 192 q 1512 273 1501 247 q 1538 350 1522 300 q 1544 369 1542 362 q 1594 397 1577 389 q 1556 271 1571 336 q 1562 225 1550 250 q 1588 186 1574 201 l 1603 171 q 1639 342 1596 197 q 1697 478 1659 415 q 1764 551 1721 520 q 1820 572 1807 581 q 1821 540 1826 564 q 1805 493 1817 515 q 1753 427 1788 453 q 1674 398 1717 401 q 1685 391 1678 395 q 1714 380 1692 387 q 1756 376 1735 374 q 1803 396 1776 378 q 1851 450 1830 414 m 2024 593 q 2076 618 2052 623 q 2091 595 2094 615 q 2063 553 2087 575 q 1988 536 2030 527 q 2012 510 1996 519 q 2046 503 2028 500 q 2104 528 2081 503 q 2124 589 2127 553 q 2100 627 2123 610 q 2043 646 2077 644 q 1969 620 2009 648 q 1911 555 1935 595 q 1887 470 1887 515 q 1923 396 1887 425 q 1985 382 1949 376 q 2053 406 2021 388 q 2104 444 2085 423 q 2117 491 2117 465 q 2081 452 2105 471 q 2031 423 2056 433 q 1984 410 2006 412 q 1954 421 1962 408 q 1963 500 1939 448 q 2024 593 1988 553 m 576 499 q 596 432 577 463 q 649 385 616 401 q 616 319 635 334 q 574 311 597 304 q 554 371 555 316 q 566 469 553 426 q 576 499 570 483 m 1021 -155 q 997 -147 1007 -157 q 989 -126 988 -138 q 994 -104 989 -115 q 1031 -81 1005 -80 q 1054 -90 1044 -81 q 1062 -111 1063 -98 q 1057 -133 1062 -123 q 1021 -155 1046 -157 m 374 -234 l 421 2 l 1870 2 l 1822 -234 l 374 -234 m 1678 -61 l 1673 -83 l 1710 -83 l 1691 -176 l 1718 -176 l 1737 -83 l 1773 -83 l 1778 -61 l 1678 -61 m 1528 -61 l 1505 -176 l 1531 -176 l 1546 -104 l 1589 -176 l 1611 -176 l 1634 -61 l 1607 -61 l 1593 -133 l 1550 -61 l 1528 -61 m 1349 -93 q 1340 -128 1340 -109 q 1347 -154 1340 -142 q 1367 -172 1354 -165 q 1396 -178 1382 -178 q 1434 -169 1416 -178 q 1459 -144 1449 -161 q 1468 -109 1468 -129 q 1461 -83 1468 -94 q 1441 -65 1453 -71 q 1411 -59 1427 -59 q 1375 -68 1392 -59 q 1349 -93 1359 -75 m 1226 -61 l 1203 -176 l 1230 -176 l 1238 -134 l 1291 -134 l 1296 -113 l 1242 -113 l 1249 -82 l 1309 -82 l 1313 -61 l 1226 -61 m 971 -93 q 962 -128 962 -110 q 968 -154 962 -142 q 988 -172 976 -165 q 1018 -178 1004 -178 q 1055 -169 1038 -178 q 1080 -144 1071 -160 q 1089 -109 1089 -129 q 1082 -83 1089 -94 q 1063 -65 1075 -71 q 1034 -59 1049 -59 q 996 -68 1013 -59 q 971 -93 981 -77 m 795 -61 l 772 -176 l 796 -176 l 810 -107 l 834 -164 l 846 -164 l 890 -108 l 876 -176 l 901 -176 l 924 -61 l 901 -61 l 845 -133 l 817 -61 l 795 -61 m 654 -61 l 631 -176 l 721 -176 l 725 -155 l 663 -155 l 667 -128 l 722 -128 l 726 -107 l 672 -107 l 677 -82 l 737 -82 l 742 -61 l 654 -61 m 489 -61 l 466 -176 l 522 -176 q 560 -168 541 -176 q 585 -144 576 -159 q 594 -109 594 -129 q 587 -83 594 -94 q 568 -66 580 -71 q 537 -61 555 -61 l 489 -61 m 1398 -155 q 1375 -147 1385 -156 q 1367 -126 1367 -138 q 1372 -104 1367 -113 q 1387 -87 1377 -94 q 1409 -81 1397 -81 q 1432 -90 1422 -81 q 1440 -111 1441 -98 q 1436 -133 1440 -123 q 1398 -155 1424 -157 m 547 -149 q 523 -154 536 -154 l 497 -154 l 511 -83 l 534 -83 q 559 -90 548 -81 q 567 -111 568 -100 q 562 -133 567 -122 q 547 -149 556 -144 z "},"7":{"ha":2244,"x_min":31,"x_max":2214,"o":"m 1373 254 q 1481 336 1416 310 q 1437 231 1455 265 q 1397 189 1419 197 q 1356 199 1362 177 q 1373 254 1350 221 m 612 524 q 651 511 639 566 q 656 418 661 465 l 654 408 l 654 408 q 611 460 626 423 q 612 524 596 496 m 2212 537 q 2196 465 2214 499 q 2205 437 2205 452 q 2178 355 2206 393 q 2007 276 2108 282 q 1929 302 1963 275 q 1902 330 1917 311 q 1780 271 1854 273 q 1727 281 1753 271 q 1725 277 1727 279 q 1724 273 1724 275 q 1689 130 1701 203 q 1687 98 1693 113 q 1666 74 1681 83 q 1635 67 1652 65 q 1607 80 1619 68 q 1562 135 1580 104 q 1510 81 1540 102 q 1411 44 1468 47 q 1325 96 1356 50 q 1288 150 1304 119 q 1278 206 1275 177 q 1276 209 1278 208 q 1274 211 1274 210 q 1233 201 1253 201 q 1177 219 1202 202 q 1138 263 1152 235 q 1128 283 1135 268 q 1126 286 1128 284 q 1124 288 1125 287 q 1122 290 1122 289 q 1116 254 1116 266 q 1100 219 1115 233 q 1065 205 1086 205 q 1041 212 1053 205 q 1023 223 1032 216 q 1012 219 1019 220 q 994 218 1006 218 q 945 229 968 217 q 909 262 923 241 q 841 221 875 223 l 829 221 q 784 230 806 220 q 747 258 762 239 q 694 207 727 226 q 623 186 661 187 q 530 224 567 187 q 534 182 530 204 q 511 132 539 150 q 483 124 498 123 q 455 133 467 124 q 376 227 406 172 q 346 270 356 252 q 355 175 337 222 q 354 125 368 151 q 311 100 340 100 q 217 146 255 102 q 147 280 161 202 q 119 271 134 271 q 102 274 111 271 q 51 317 70 288 q 32 380 31 346 q 34 395 33 387 q 46 424 36 402 q 73 463 57 446 q 120 501 88 481 q 193 534 151 522 q 226 644 212 602 q 251 705 240 686 q 269 729 262 724 q 286 738 275 734 q 306 741 297 741 q 408 680 349 741 q 410 677 409 679 q 412 674 411 676 q 414 671 414 672 q 493 821 448 749 q 583 869 525 871 q 665 848 627 867 q 729 751 709 806 q 705 707 730 722 q 676 677 690 696 q 736 627 713 657 q 746 601 745 615 q 748 599 747 600 q 750 597 749 598 q 782 640 764 623 q 871 674 820 674 q 959 635 924 676 q 983 637 967 637 q 1076 838 1017 743 q 1115 875 1090 862 q 1167 887 1140 888 q 1249 866 1210 886 q 1276 824 1274 853 q 1275 822 1276 823 q 1275 821 1275 821 q 1470 824 1326 824 q 1514 824 1485 824 q 1556 825 1542 825 q 1671 843 1615 825 q 1726 831 1702 855 q 1763 777 1747 804 q 1773 722 1784 753 q 1761 698 1767 709 q 1789 686 1777 697 q 1805 659 1802 675 q 1807 648 1807 652 q 1827 650 1817 650 q 1898 621 1869 652 q 1940 660 1914 642 q 2042 696 1986 695 q 2121 675 2084 696 q 2178 616 2157 653 q 2212 537 2210 582 m 447 229 q 463 449 431 321 q 546 676 494 577 q 642 803 597 774 q 633 807 638 804 q 613 813 628 809 q 586 818 599 818 q 559 813 573 819 q 536 793 545 807 q 460 650 491 721 q 417 529 430 578 q 400 433 404 479 q 397 365 395 387 q 401 327 398 343 q 371 407 381 361 q 360 493 360 452 q 362 568 359 533 q 368 624 364 603 l 372 644 q 357 659 366 650 q 329 680 348 667 q 302 690 311 693 q 233 492 286 684 q 163 469 193 484 q 118 438 133 454 q 95 408 104 422 q 84 384 85 393 l 82 375 q 218 431 104 407 q 199 349 203 375 q 198 279 193 307 q 215 236 203 251 q 241 214 228 221 q 264 206 254 208 l 274 205 q 257 285 258 235 q 268 385 256 335 q 292 481 279 435 q 316 556 305 527 l 328 585 q 347 403 331 489 q 447 229 365 298 m 905 366 q 926 332 908 344 q 964 322 943 319 q 959 332 962 325 q 951 366 956 338 q 955 432 947 393 q 992 587 967 505 q 976 587 986 587 q 947 581 966 587 q 921 563 927 574 q 878 473 897 518 q 839 399 859 429 q 795 367 810 355 q 797 424 785 376 q 833 516 810 471 q 875 582 859 568 q 921 586 890 595 q 903 616 928 605 q 838 616 871 632 q 817 603 826 612 q 747 452 763 537 q 701 406 732 422 q 711 483 712 444 q 688 570 709 547 q 632 589 667 593 q 696 596 662 608 q 693 600 695 597 q 685 608 691 602 q 673 619 680 614 q 657 630 667 624 q 638 639 648 637 q 617 643 629 642 q 595 640 606 645 q 541 577 568 630 q 500 460 513 524 q 499 361 488 396 q 528 315 508 333 q 571 291 547 296 q 621 298 594 286 q 670 342 648 311 q 693 382 684 363 q 741 411 721 390 q 742 367 739 387 q 800 326 749 323 q 852 374 822 327 q 903 467 883 420 l 923 513 q 905 366 899 442 m 1217 312 q 1213 316 1215 313 q 1204 330 1210 319 q 1196 353 1199 340 q 1193 388 1193 366 q 1200 435 1194 410 q 1247 578 1216 505 l 1200 601 q 1183 600 1192 605 q 1042 440 1096 534 q 1126 677 1070 562 q 1225 822 1181 793 q 1217 826 1222 823 q 1197 832 1212 828 q 1170 837 1182 836 q 1142 831 1157 838 q 1120 812 1128 825 q 1006 529 1038 680 q 983 366 986 446 q 997 337 985 351 q 1019 316 1008 323 l 1029 309 q 1083 460 1034 393 q 1173 556 1122 518 q 1166 539 1171 550 q 1153 498 1162 528 q 1138 443 1143 469 q 1133 389 1133 417 q 1143 344 1133 360 q 1178 310 1160 318 q 1206 307 1196 302 l 1217 312 m 1316 264 l 1317 264 q 1305 315 1305 283 q 1313 388 1304 347 q 1335 471 1322 428 q 1365 560 1348 513 q 1399 643 1383 606 q 1431 714 1415 679 q 1588 718 1583 718 q 1649 744 1622 723 q 1689 795 1676 764 q 1556 774 1624 774 q 1450 773 1527 773 q 1324 772 1373 774 q 1249 768 1276 771 q 1188 737 1215 760 q 1150 680 1162 713 q 1261 707 1203 707 q 1354 711 1297 710 q 1310 593 1353 706 q 1251 412 1267 479 q 1257 326 1238 368 q 1316 264 1275 284 m 1851 450 q 1876 505 1869 481 q 1881 541 1883 529 q 1872 568 1879 553 q 1842 597 1864 590 q 1799 594 1819 605 q 1693 500 1733 560 q 1756 648 1753 646 l 1737 649 q 1674 621 1689 646 q 1611 443 1645 538 q 1607 434 1609 440 q 1605 426 1605 429 q 1552 395 1567 403 q 1585 492 1564 435 q 1622 587 1607 549 l 1638 625 q 1562 602 1580 622 q 1526 550 1558 597 q 1465 470 1493 503 q 1425 444 1436 437 q 1453 524 1414 452 q 1510 623 1493 596 q 1490 622 1502 623 q 1452 610 1477 621 q 1417 583 1427 600 q 1400 549 1407 563 q 1385 517 1394 535 q 1372 485 1377 498 q 1364 458 1367 471 q 1361 434 1360 444 q 1367 418 1362 424 q 1394 407 1375 407 q 1438 419 1413 406 q 1482 456 1462 431 l 1554 552 q 1493 369 1519 446 q 1452 345 1478 360 q 1414 322 1425 329 q 1386 299 1403 315 q 1354 264 1369 284 q 1331 218 1337 241 q 1331 179 1324 195 q 1352 154 1337 163 q 1391 151 1366 145 q 1444 176 1415 156 q 1484 219 1467 192 q 1512 273 1501 247 q 1538 350 1522 300 q 1544 369 1542 362 q 1594 397 1577 389 q 1556 271 1571 336 q 1562 225 1550 250 q 1588 186 1574 201 l 1603 171 q 1639 342 1596 197 q 1697 478 1659 415 q 1764 551 1721 520 q 1820 572 1807 581 q 1821 540 1826 564 q 1805 493 1817 515 q 1753 427 1788 453 q 1674 398 1717 401 q 1685 391 1678 395 q 1714 380 1692 387 q 1756 376 1735 374 q 1803 396 1776 378 q 1851 450 1830 414 m 2024 593 q 2076 618 2052 623 q 2091 595 2094 615 q 2063 553 2087 575 q 1988 536 2030 527 q 2012 510 1996 519 q 2046 503 2028 500 q 2104 528 2081 503 q 2124 589 2127 553 q 2100 627 2123 610 q 2043 646 2077 644 q 1969 620 2009 648 q 1911 555 1935 595 q 1887 470 1887 515 q 1923 396 1887 425 q 1985 382 1949 376 q 2053 406 2021 388 q 2104 444 2085 423 q 2117 491 2117 465 q 2081 452 2105 471 q 2031 423 2056 433 q 1984 410 2006 412 q 1954 421 1962 408 q 1963 500 1939 448 q 2024 593 1988 553 m 575 499 q 596 432 576 463 q 649 385 616 401 q 616 319 635 334 q 574 311 597 304 q 554 371 555 316 q 566 469 553 426 q 575 499 574 497 m 1021 -155 q 998 -147 1008 -156 q 989 -126 988 -138 q 994 -104 989 -115 q 1031 -81 1005 -80 q 1054 -90 1044 -81 q 1063 -111 1063 -99 q 1057 -133 1063 -122 q 1021 -155 1046 -157 m 374 -234 l 421 2 l 1870 2 l 1822 -234 l 374 -234 m 1678 -61 l 1673 -83 l 1710 -83 l 1691 -176 l 1718 -176 l 1737 -83 l 1773 -83 l 1778 -61 l 1678 -61 m 1528 -61 l 1505 -176 l 1531 -176 l 1546 -104 l 1589 -176 l 1611 -176 l 1634 -61 l 1607 -61 l 1593 -133 l 1550 -61 l 1528 -61 m 1349 -93 q 1340 -128 1340 -109 q 1347 -154 1340 -142 q 1367 -172 1354 -165 q 1396 -178 1382 -178 q 1434 -169 1416 -178 q 1459 -144 1449 -161 q 1468 -109 1468 -129 q 1461 -83 1468 -94 q 1441 -65 1453 -71 q 1411 -59 1427 -59 q 1375 -68 1392 -59 q 1349 -93 1359 -75 m 1226 -61 l 1203 -176 l 1230 -176 l 1238 -134 l 1291 -134 l 1296 -113 l 1242 -113 l 1249 -82 l 1309 -82 l 1313 -61 l 1226 -61 m 971 -93 q 962 -128 962 -110 q 968 -154 962 -142 q 988 -172 976 -165 q 1018 -178 1004 -178 q 1055 -169 1038 -178 q 1080 -144 1071 -160 q 1089 -109 1089 -129 q 1082 -83 1089 -94 q 1063 -65 1075 -71 q 1034 -59 1049 -59 q 996 -68 1013 -59 q 971 -93 981 -77 m 795 -61 l 772 -176 l 796 -176 l 810 -107 l 834 -164 l 846 -164 l 890 -108 l 876 -176 l 901 -176 l 924 -61 l 901 -61 l 845 -133 l 817 -61 l 795 -61 m 654 -61 l 632 -176 l 721 -176 l 726 -155 l 663 -155 l 668 -128 l 722 -128 l 726 -107 l 672 -107 l 677 -82 l 737 -82 l 742 -61 l 654 -61 m 489 -61 l 466 -176 l 522 -176 q 560 -168 541 -176 q 585 -144 576 -159 q 594 -109 594 -129 q 587 -83 594 -94 q 568 -66 580 -71 q 537 -61 555 -61 l 489 -61 m 1398 -155 q 1375 -147 1385 -156 q 1367 -126 1367 -138 q 1373 -104 1367 -115 q 1387 -87 1378 -94 q 1409 -81 1397 -81 q 1432 -90 1422 -81 q 1440 -111 1441 -98 q 1436 -133 1440 -123 q 1398 -155 1424 -157 m 547 -149 q 523 -154 536 -154 l 497 -154 l 511 -83 l 534 -83 q 559 -90 548 -81 q 567 -111 568 -100 q 562 -133 567 -122 q 547 -149 556 -144 z "},"8":{"ha":2244,"x_min":31,"x_max":2214,"o":"m 1373 254 q 1481 336 1416 310 q 1437 231 1455 265 q 1397 189 1419 197 q 1356 199 1362 177 q 1373 254 1350 221 m 612 524 q 651 510 639 566 q 656 416 661 464 q 655 408 656 412 l 655 408 q 611 460 627 423 q 612 524 596 496 m 2212 537 q 2196 465 2214 499 q 2205 437 2205 452 q 2178 355 2206 393 q 2007 276 2108 282 q 1929 302 1963 275 q 1902 330 1914 314 q 1780 271 1854 273 q 1727 281 1753 271 q 1726 277 1727 279 q 1725 273 1725 275 q 1689 130 1700 199 q 1687 98 1693 113 q 1666 74 1681 83 q 1635 67 1652 65 q 1607 80 1619 68 q 1562 135 1580 104 q 1510 81 1540 102 q 1412 44 1468 47 q 1325 96 1356 50 q 1288 150 1304 119 q 1278 206 1275 177 q 1276 209 1278 208 q 1274 211 1274 210 q 1233 201 1253 201 q 1177 219 1202 202 q 1138 263 1152 235 q 1128 283 1135 268 q 1126 286 1128 284 q 1124 288 1125 287 q 1122 290 1122 289 q 1116 254 1117 270 q 1101 219 1116 233 q 1065 205 1086 205 q 1041 212 1053 205 q 1023 223 1032 216 q 1012 219 1019 220 q 994 218 1006 218 q 946 229 968 217 q 909 262 924 241 q 841 221 876 223 l 829 221 q 748 258 779 218 q 694 207 728 226 q 623 186 661 187 q 530 224 567 187 q 534 182 530 204 q 511 132 539 149 q 483 124 498 123 q 455 133 467 124 q 376 227 406 172 q 346 270 356 252 q 355 175 337 224 q 354 125 369 151 q 311 100 340 100 q 217 146 255 102 q 147 280 161 202 q 119 271 134 271 q 102 274 111 271 q 51 317 70 288 q 32 380 31 346 q 34 395 33 387 q 46 424 36 402 q 73 463 57 446 q 120 501 88 481 q 193 534 151 522 q 226 644 212 602 q 251 705 240 686 q 269 729 262 724 q 286 738 275 734 q 306 741 297 741 q 408 680 349 741 q 410 677 409 679 q 412 674 411 676 q 414 671 414 672 q 493 821 448 749 q 583 869 525 871 q 665 848 627 867 q 729 751 709 806 q 705 707 730 722 q 676 677 690 696 q 736 627 713 657 q 746 601 745 615 q 748 599 747 600 q 750 597 749 598 q 782 640 764 623 q 871 674 820 674 q 959 635 924 676 q 983 637 967 637 q 1077 838 1017 741 q 1116 875 1091 862 q 1167 887 1140 888 q 1249 866 1210 886 q 1276 824 1274 853 l 1276 821 q 1470 824 1326 824 q 1514 824 1485 824 q 1556 825 1542 825 q 1671 843 1615 825 q 1726 831 1702 855 q 1763 777 1747 804 q 1773 722 1784 752 q 1761 698 1769 711 q 1789 686 1777 697 q 1805 659 1802 675 q 1807 648 1807 652 q 1827 650 1817 650 q 1898 621 1869 652 q 1940 660 1914 642 q 2043 696 1986 695 q 2121 675 2085 696 q 2178 616 2157 653 q 2212 537 2210 582 m 447 229 q 463 449 431 321 q 546 676 494 577 q 642 803 597 774 q 633 807 638 804 q 613 813 628 809 q 586 818 599 818 q 559 813 573 819 q 536 793 545 807 q 460 650 491 721 q 417 529 430 578 q 400 433 404 479 q 397 365 395 387 q 401 327 398 343 q 371 407 381 361 q 360 493 360 452 q 362 568 359 533 q 368 624 364 603 l 372 644 q 357 659 366 650 q 329 680 348 667 q 302 690 311 693 q 233 492 286 684 q 163 469 193 484 q 118 438 133 454 q 95 408 104 422 q 84 384 85 393 l 82 375 q 218 431 104 407 q 200 349 205 383 q 199 279 194 307 q 216 236 203 251 q 241 214 228 221 q 264 206 254 208 l 274 205 q 257 285 258 235 q 268 385 256 335 q 292 481 279 435 q 316 556 305 527 l 328 585 q 347 403 331 489 q 447 229 365 298 m 905 366 q 926 332 908 344 q 965 322 944 319 q 963 325 964 323 q 958 336 961 328 q 952 356 954 345 q 951 388 951 368 q 955 432 951 408 q 992 587 967 505 q 976 587 986 587 q 947 581 966 587 q 921 563 927 574 q 878 473 897 518 q 839 399 859 429 q 795 367 810 355 q 797 424 785 376 q 833 516 810 471 q 875 582 859 568 q 921 586 890 595 q 903 616 928 605 q 838 616 871 632 q 817 603 826 612 q 747 452 763 537 q 701 406 732 422 q 711 483 712 444 q 688 570 709 547 q 632 589 667 593 q 696 596 662 608 q 693 600 695 597 q 685 608 691 602 q 673 619 680 614 q 657 630 667 624 q 638 639 648 637 q 617 643 629 642 q 595 640 606 645 q 541 577 568 630 q 500 460 513 524 q 499 361 488 396 q 528 315 508 333 q 571 291 547 296 q 621 298 594 286 q 670 342 648 311 q 693 382 684 363 q 741 411 721 390 q 742 367 739 387 q 800 326 749 323 q 852 374 822 327 q 903 467 883 420 l 923 513 q 905 366 899 442 m 1217 312 q 1213 316 1215 313 q 1204 330 1210 319 q 1196 353 1199 340 q 1193 388 1193 366 q 1200 435 1194 410 q 1247 578 1216 505 l 1200 601 q 1183 600 1192 605 q 1042 440 1096 534 q 1126 677 1070 562 q 1225 822 1181 793 q 1217 826 1222 823 q 1197 832 1212 828 q 1169 837 1182 836 q 1142 831 1156 838 q 1119 812 1127 825 q 1006 529 1038 681 q 983 366 987 450 q 997 337 985 351 q 1018 316 1008 323 l 1028 309 q 1083 460 1034 391 q 1173 556 1122 518 q 1166 539 1171 550 q 1153 498 1162 528 q 1138 443 1143 469 q 1133 389 1133 417 q 1143 344 1133 360 q 1178 310 1160 318 q 1206 307 1196 302 l 1217 312 m 1316 264 l 1317 264 q 1305 315 1305 283 q 1313 388 1304 347 q 1335 471 1322 428 q 1365 560 1348 513 q 1399 643 1383 606 q 1431 714 1415 679 q 1588 718 1583 718 q 1649 744 1622 723 q 1689 795 1676 764 q 1556 774 1624 774 q 1451 773 1527 773 q 1325 772 1374 774 q 1249 768 1276 771 q 1188 737 1215 760 q 1150 680 1162 713 q 1261 707 1203 707 q 1354 711 1297 710 q 1310 593 1353 706 q 1251 412 1267 479 q 1257 326 1238 368 q 1316 264 1275 284 m 1851 450 q 1876 505 1869 481 q 1881 541 1883 529 q 1872 568 1879 553 q 1842 598 1864 591 q 1799 594 1820 606 q 1693 500 1733 560 q 1756 648 1753 646 l 1737 649 q 1674 621 1689 646 q 1611 443 1645 538 l 1605 426 q 1552 395 1564 401 q 1585 492 1564 435 q 1622 587 1607 549 l 1638 625 q 1562 602 1580 622 q 1526 550 1558 597 q 1465 470 1493 503 q 1425 444 1436 437 q 1453 524 1414 452 q 1510 623 1493 596 q 1490 622 1502 623 q 1452 610 1477 621 q 1417 583 1427 600 q 1400 549 1407 563 q 1385 517 1394 535 q 1372 485 1377 498 q 1364 458 1367 471 q 1361 434 1360 444 q 1367 418 1362 424 q 1394 407 1375 407 q 1438 419 1413 406 q 1482 456 1462 431 l 1554 552 q 1493 369 1519 446 q 1452 345 1478 360 q 1414 322 1425 329 q 1386 299 1403 315 q 1354 264 1369 284 q 1331 218 1337 241 q 1331 179 1324 195 q 1352 154 1337 163 q 1391 151 1366 145 q 1444 176 1415 156 q 1475 204 1462 189 q 1501 249 1488 220 q 1519 294 1514 277 q 1540 357 1525 311 q 1544 369 1543 365 q 1594 397 1577 389 q 1556 271 1571 336 q 1562 225 1550 250 q 1588 186 1574 201 l 1603 171 q 1639 342 1596 197 q 1697 478 1659 415 q 1764 551 1721 520 q 1820 572 1807 581 q 1822 540 1826 564 q 1806 493 1817 515 q 1753 427 1789 453 q 1674 398 1717 401 q 1685 391 1678 395 q 1714 380 1692 387 q 1756 376 1735 374 q 1803 396 1776 378 q 1851 450 1830 414 m 2024 593 q 2076 618 2051 623 q 2091 595 2094 615 q 2064 553 2088 576 q 1988 536 2030 526 q 2012 510 1996 519 q 2046 503 2028 500 q 2104 528 2081 503 q 2124 589 2127 553 q 2100 627 2123 610 q 2043 646 2077 644 q 1969 620 2009 648 q 1911 555 1935 595 q 1887 470 1887 515 q 1923 396 1887 425 q 1985 382 1949 376 q 2053 406 2021 388 q 2104 444 2085 423 q 2117 491 2117 465 q 2081 452 2105 471 q 2031 423 2056 433 q 1984 410 2006 412 q 1954 421 1962 408 q 1963 500 1939 448 q 2024 593 1988 553 m 575 499 q 596 432 576 463 q 649 385 616 401 q 616 319 635 334 q 574 311 597 304 q 554 371 555 316 q 566 469 553 426 q 575 499 574 497 m 1021 -155 q 997 -147 1007 -157 q 989 -126 988 -138 q 994 -104 989 -115 q 1031 -81 1005 -80 q 1054 -90 1044 -81 q 1062 -111 1063 -98 q 1057 -133 1062 -123 q 1021 -155 1046 -157 m 374 -234 l 421 2 l 1870 2 l 1822 -234 l 374 -234 m 1678 -61 l 1673 -83 l 1710 -83 l 1691 -176 l 1718 -176 l 1737 -83 l 1773 -83 l 1778 -61 l 1678 -61 m 1528 -61 l 1505 -176 l 1531 -176 l 1546 -104 l 1589 -176 l 1611 -176 l 1634 -61 l 1607 -61 l 1593 -133 l 1550 -61 l 1528 -61 m 1350 -93 q 1340 -128 1340 -110 q 1347 -154 1340 -142 q 1367 -172 1354 -165 q 1396 -178 1382 -178 q 1434 -169 1416 -178 q 1459 -144 1449 -160 q 1468 -109 1468 -129 q 1461 -83 1468 -94 q 1442 -65 1453 -71 q 1411 -59 1428 -59 q 1375 -68 1392 -59 q 1350 -93 1360 -75 m 1226 -61 l 1203 -176 l 1230 -176 l 1238 -134 l 1291 -134 l 1296 -113 l 1242 -113 l 1249 -82 l 1309 -82 l 1313 -61 l 1226 -61 m 971 -93 q 962 -128 962 -109 q 968 -154 962 -144 q 988 -172 976 -165 q 1018 -178 1004 -178 q 1055 -169 1038 -178 q 1080 -144 1070 -161 q 1089 -109 1089 -129 q 1082 -83 1089 -94 q 1063 -65 1075 -71 q 1034 -59 1049 -59 q 996 -68 1013 -59 q 971 -93 982 -75 m 795 -61 l 772 -176 l 796 -176 l 810 -107 l 834 -164 l 846 -164 l 890 -108 l 876 -176 l 901 -176 l 924 -61 l 901 -61 l 845 -133 l 817 -61 l 795 -61 m 655 -61 l 631 -176 l 721 -176 l 725 -155 l 663 -155 l 667 -128 l 722 -128 l 726 -107 l 672 -107 l 677 -82 l 737 -82 l 742 -61 l 655 -61 m 490 -61 l 467 -176 l 522 -176 q 560 -168 541 -176 q 585 -144 576 -159 q 594 -109 594 -129 q 587 -83 594 -94 q 568 -66 580 -71 q 538 -61 555 -61 l 490 -61 m 1398 -155 q 1375 -147 1385 -157 q 1367 -126 1367 -138 q 1373 -104 1367 -115 q 1409 -81 1383 -80 q 1432 -90 1422 -81 q 1440 -111 1441 -98 q 1436 -133 1440 -123 q 1398 -155 1424 -157 m 562 -133 q 547 -149 557 -143 q 523 -154 536 -154 l 497 -154 l 511 -83 l 534 -83 q 559 -90 548 -81 q 567 -111 568 -100 q 562 -133 567 -123 z "},"9":{"ha":2244,"x_min":31,"x_max":2214,"o":"m 1373 254 q 1481 336 1416 310 q 1437 231 1455 265 q 1397 189 1419 197 q 1356 199 1362 177 q 1373 254 1350 221 m 612 524 q 651 510 639 566 q 656 416 661 463 q 654 408 655 412 l 654 408 q 611 460 626 423 q 612 524 596 496 m 2212 537 q 2196 465 2214 499 q 2205 437 2205 452 q 2178 355 2206 393 q 2007 276 2108 282 q 1929 302 1963 275 q 1902 330 1914 314 q 1780 271 1854 273 q 1727 281 1753 271 q 1725 277 1727 279 q 1724 273 1724 275 q 1689 130 1701 203 q 1687 98 1693 113 q 1666 74 1681 83 q 1635 67 1652 65 q 1607 80 1619 68 q 1562 135 1580 104 q 1510 81 1540 102 q 1411 44 1468 47 q 1325 96 1356 50 q 1288 150 1304 119 q 1278 206 1275 178 q 1275 209 1277 208 q 1273 211 1274 210 q 1233 201 1253 201 q 1177 219 1202 202 q 1138 263 1152 235 q 1128 283 1135 268 q 1126 286 1128 284 q 1124 288 1125 287 q 1122 290 1122 289 q 1116 254 1116 266 q 1100 219 1115 233 q 1065 205 1086 205 q 1041 212 1053 205 q 1023 223 1032 216 q 1012 219 1019 220 q 994 218 1006 218 q 945 229 968 217 q 909 262 923 241 q 840 221 875 223 l 829 221 q 784 230 806 220 q 747 258 762 239 q 694 207 727 226 q 623 186 661 187 q 530 224 567 187 q 534 182 530 204 q 511 132 539 150 q 483 124 498 123 q 455 133 467 124 q 376 227 406 172 q 346 270 356 252 q 355 175 337 222 q 354 125 368 151 q 311 100 340 100 q 217 146 255 102 q 147 280 161 202 q 119 271 134 271 q 102 274 111 271 q 51 317 70 288 q 32 380 31 346 q 34 395 33 387 q 46 424 36 402 q 73 463 57 446 q 120 501 88 481 q 193 534 151 522 q 226 644 212 602 q 251 705 240 686 q 269 729 262 724 q 286 738 275 734 q 306 741 297 741 q 408 680 349 741 q 410 677 409 679 q 412 674 411 676 q 414 671 414 672 q 493 821 448 749 q 583 869 525 871 q 665 848 627 867 q 729 751 709 806 q 705 707 730 722 q 676 677 690 696 q 736 627 713 657 q 746 601 745 615 q 748 599 747 600 q 750 597 749 598 q 782 640 764 623 q 871 674 820 674 q 959 635 924 676 q 983 637 967 637 q 1076 838 1017 743 q 1115 875 1090 862 q 1167 887 1140 888 q 1249 866 1210 886 q 1276 824 1274 853 q 1275 822 1276 823 q 1275 821 1275 821 q 1470 824 1326 824 q 1514 824 1485 824 q 1556 825 1542 825 q 1671 843 1615 825 q 1726 831 1702 855 q 1763 777 1747 804 q 1773 722 1784 752 q 1761 698 1769 711 q 1789 686 1777 697 q 1805 659 1802 675 q 1807 648 1807 652 q 1827 650 1817 650 q 1898 621 1869 652 q 1940 660 1914 642 q 2042 696 1986 695 q 2121 675 2084 696 q 2178 616 2157 653 q 2212 537 2210 582 m 447 229 q 463 449 431 321 q 546 676 494 577 q 642 803 597 774 q 633 807 638 804 q 613 813 628 809 q 586 818 599 818 q 559 813 573 819 q 536 793 545 807 q 460 650 491 721 q 417 529 430 578 q 400 433 404 479 q 397 365 395 387 q 401 327 398 343 q 371 407 381 361 q 360 493 360 452 q 362 568 359 533 q 368 624 364 603 l 372 644 q 357 659 366 650 q 329 680 348 667 q 302 690 311 693 q 233 492 286 684 q 163 469 193 484 q 118 438 133 454 q 95 408 104 422 q 84 384 85 393 l 82 375 q 218 431 104 407 q 199 349 203 375 q 198 279 193 307 q 215 236 203 251 q 241 214 228 221 q 264 206 254 208 l 274 205 q 257 285 258 235 q 268 385 256 335 q 292 481 279 435 q 316 556 305 527 l 328 585 q 347 403 331 489 q 447 229 365 298 m 905 366 q 926 332 908 344 q 964 322 943 319 q 959 332 962 325 q 951 366 956 338 q 955 432 947 393 q 992 587 967 505 q 976 587 986 587 q 947 581 966 587 q 921 563 927 574 q 878 473 897 518 q 839 399 859 429 q 795 367 810 355 q 797 424 785 376 q 833 516 810 471 q 875 582 859 568 q 921 586 890 595 q 903 616 928 605 q 838 616 871 632 q 817 603 826 612 q 747 452 763 537 q 701 406 732 422 q 711 483 712 444 q 688 570 709 547 q 632 589 667 593 q 696 596 662 608 q 693 600 695 597 q 685 608 691 602 q 673 619 680 614 q 657 630 667 624 q 638 639 648 637 q 617 643 629 642 q 595 640 606 645 q 541 577 568 630 q 500 460 513 524 q 499 361 488 396 q 528 315 508 333 q 571 291 547 296 q 621 298 594 286 q 670 342 648 311 q 693 382 684 363 q 741 411 721 390 q 742 367 739 387 q 800 326 749 323 q 852 374 822 327 q 903 467 883 420 l 923 513 q 905 366 899 442 m 1217 312 q 1213 316 1215 313 q 1204 330 1210 319 q 1196 353 1199 340 q 1193 388 1193 366 q 1200 435 1194 410 q 1247 578 1216 505 l 1200 601 q 1183 600 1192 605 q 1042 440 1096 534 q 1126 677 1070 562 q 1225 822 1181 793 q 1217 826 1222 823 q 1197 832 1212 828 q 1170 837 1182 836 q 1142 831 1157 838 q 1120 812 1128 825 q 1006 529 1038 680 q 983 366 987 450 q 997 337 985 351 q 1019 316 1008 323 l 1029 309 q 1083 460 1034 393 q 1173 556 1122 518 q 1166 539 1171 550 q 1153 498 1162 528 q 1138 443 1143 469 q 1133 389 1133 417 q 1143 344 1133 360 q 1178 310 1160 318 q 1206 307 1196 302 l 1217 312 m 1317 264 q 1305 315 1305 283 q 1313 388 1304 347 q 1335 471 1322 428 q 1365 559 1348 513 q 1399 643 1383 606 q 1432 714 1415 680 q 1588 718 1582 718 q 1649 744 1622 723 q 1689 795 1676 764 q 1556 774 1624 774 q 1451 773 1527 773 q 1325 772 1374 774 q 1250 768 1276 771 q 1189 737 1215 760 q 1150 680 1162 713 q 1261 707 1203 707 q 1354 711 1297 710 q 1310 593 1353 706 q 1251 412 1267 479 q 1257 326 1238 368 q 1317 264 1276 284 m 1851 450 q 1876 505 1869 481 q 1881 541 1883 529 q 1873 568 1880 553 q 1842 598 1864 591 q 1799 594 1820 606 q 1693 500 1733 560 q 1756 648 1754 646 l 1737 648 q 1674 621 1689 646 q 1611 443 1645 538 l 1605 426 q 1552 395 1562 400 q 1586 492 1565 435 q 1622 587 1607 549 l 1638 625 q 1562 602 1580 622 q 1526 550 1558 597 q 1465 470 1493 503 q 1426 444 1436 437 q 1454 524 1415 452 q 1510 623 1493 597 q 1490 622 1502 623 q 1452 610 1477 621 q 1417 583 1427 600 q 1400 549 1407 563 q 1385 517 1394 535 q 1372 485 1377 498 q 1364 458 1367 471 q 1361 434 1360 444 q 1367 418 1362 424 q 1394 407 1375 407 q 1438 419 1413 406 q 1482 456 1462 431 l 1554 552 q 1493 369 1520 446 q 1452 344 1478 359 q 1414 322 1426 329 q 1386 299 1403 315 q 1354 264 1369 284 q 1331 218 1337 241 q 1331 179 1324 195 q 1352 154 1337 163 q 1391 151 1366 145 q 1444 176 1415 156 q 1475 204 1462 189 q 1501 249 1488 220 q 1519 294 1514 277 q 1540 357 1525 311 q 1544 369 1543 365 q 1594 397 1577 389 q 1556 271 1571 336 q 1563 225 1550 250 q 1590 186 1575 201 l 1604 171 q 1639 342 1596 197 q 1697 478 1659 413 q 1765 551 1723 520 q 1820 572 1807 581 q 1822 540 1826 564 q 1806 493 1817 515 q 1753 427 1789 453 q 1674 398 1717 401 q 1685 391 1678 395 q 1714 380 1692 387 q 1756 376 1735 374 q 1803 396 1776 378 q 1851 450 1830 414 m 2024 593 q 2070 619 2048 618 q 2092 600 2093 619 q 2064 553 2091 581 q 1989 536 2030 527 q 2012 510 1997 519 q 2046 503 2028 500 q 2104 528 2081 503 q 2124 589 2127 553 q 2100 627 2123 610 q 2043 646 2077 644 q 1969 620 2009 648 q 1911 555 1935 595 q 1887 470 1887 515 q 1923 396 1887 425 q 1985 382 1949 376 q 2053 406 2021 388 q 2104 444 2085 423 q 2117 491 2117 465 q 2081 452 2105 471 q 2031 423 2056 433 q 1985 410 2007 412 q 1955 421 1963 408 q 1963 501 1939 448 q 2024 593 1988 554 m 575 499 q 596 432 576 463 q 649 385 616 401 q 616 319 635 334 q 574 311 597 304 q 554 371 555 316 q 566 469 553 426 q 575 499 574 497 m 1021 -155 q 997 -147 1007 -157 q 989 -126 988 -138 q 994 -104 989 -115 q 1031 -81 1005 -80 q 1054 -90 1044 -81 q 1062 -111 1063 -98 q 1057 -133 1062 -123 q 1021 -155 1046 -157 m 374 -234 l 421 2 l 1870 2 l 1822 -234 l 374 -234 m 1678 -61 l 1673 -83 l 1710 -83 l 1691 -176 l 1718 -176 l 1737 -83 l 1773 -83 l 1778 -61 l 1678 -61 m 1528 -61 l 1505 -176 l 1531 -176 l 1546 -104 l 1589 -176 l 1611 -176 l 1634 -61 l 1607 -61 l 1593 -133 l 1550 -61 l 1528 -61 m 1350 -93 q 1340 -128 1340 -110 q 1347 -154 1340 -142 q 1367 -172 1354 -165 q 1396 -178 1382 -178 q 1434 -169 1416 -178 q 1459 -144 1449 -160 q 1468 -109 1468 -129 q 1461 -83 1468 -94 q 1441 -65 1453 -71 q 1411 -59 1427 -59 q 1375 -68 1392 -59 q 1350 -93 1360 -75 m 1226 -61 l 1203 -176 l 1230 -176 l 1238 -134 l 1291 -134 l 1296 -113 l 1242 -113 l 1249 -82 l 1309 -82 l 1313 -61 l 1226 -61 m 971 -93 q 962 -128 962 -110 q 968 -154 962 -142 q 988 -172 976 -165 q 1018 -178 1004 -178 q 1055 -169 1038 -178 q 1080 -144 1070 -161 q 1089 -109 1089 -129 q 1082 -83 1089 -94 q 1063 -65 1075 -71 q 1034 -59 1049 -59 q 996 -68 1013 -59 q 971 -93 982 -75 m 795 -61 l 772 -176 l 796 -176 l 810 -107 l 834 -164 l 846 -164 l 890 -108 l 876 -176 l 901 -176 l 924 -61 l 901 -61 l 845 -133 l 817 -61 l 795 -61 m 655 -61 l 632 -176 l 721 -176 l 726 -155 l 663 -155 l 668 -128 l 722 -128 l 726 -107 l 672 -107 l 677 -82 l 737 -82 l 742 -61 l 655 -61 m 489 -61 l 466 -176 l 522 -176 q 560 -168 541 -176 q 585 -144 576 -159 q 594 -109 594 -129 q 587 -83 594 -94 q 568 -66 580 -71 q 538 -61 555 -61 l 489 -61 m 1398 -155 q 1375 -147 1385 -157 q 1367 -126 1367 -138 q 1372 -104 1367 -113 q 1409 -81 1383 -80 q 1432 -90 1422 -81 q 1440 -111 1441 -98 q 1436 -133 1440 -123 q 1398 -155 1424 -157 m 547 -149 q 523 -154 536 -154 l 497 -154 l 511 -83 l 534 -83 q 559 -90 548 -81 q 567 -111 568 -100 q 562 -133 567 -122 q 547 -149 556 -144 z "},"\u0000":{"ha":0,"x_min":0,"x_max":0,"o":""},"\n":{"ha":0,"x_min":0,"x_max":0,"o":""},"\r":{"ha":0,"x_min":0,"x_max":0,"o":""}," ":{"ha":383,"x_min":0,"x_max":0,"o":""},"!":{"ha":2244,"x_min":31,"x_max":2214,"o":"m 1373 252 q 1481 334 1416 308 q 1437 229 1455 263 q 1397 187 1419 195 q 1356 197 1362 175 q 1373 252 1350 219 m 612 522 q 651 509 639 564 q 656 416 661 463 l 654 406 l 654 406 q 611 458 626 421 q 612 522 596 494 m 2212 535 q 2196 463 2214 497 q 2205 435 2205 450 q 2178 353 2206 391 q 2007 274 2108 280 q 1929 300 1963 273 q 1902 328 1917 309 q 1780 269 1854 271 q 1727 279 1753 269 q 1725 275 1727 277 q 1724 271 1724 273 q 1689 127 1701 202 q 1687 96 1693 111 q 1666 72 1681 81 q 1635 65 1652 63 q 1607 78 1619 66 q 1562 132 1579 103 q 1510 79 1541 100 q 1411 41 1467 45 q 1325 94 1357 47 q 1288 148 1304 117 q 1278 203 1276 175 q 1276 206 1278 204 q 1274 209 1274 208 q 1233 199 1253 199 q 1177 217 1202 200 q 1138 261 1152 233 q 1128 281 1135 266 q 1126 283 1128 282 q 1124 286 1125 285 q 1122 288 1122 287 q 1116 252 1116 264 q 1100 217 1115 231 q 1065 203 1086 203 q 1041 209 1053 203 q 1023 221 1036 212 q 1012 217 1019 218 q 994 215 1002 215 q 946 226 968 214 q 909 260 923 238 q 841 219 875 221 l 829 219 q 784 228 806 218 q 747 256 762 237 q 694 204 727 224 q 623 183 661 184 q 530 222 568 184 q 534 180 530 202 q 511 130 539 148 q 483 122 498 121 q 455 131 467 122 q 376 225 406 170 q 346 268 356 250 q 355 173 337 220 q 354 123 368 149 q 311 98 340 98 q 217 144 255 100 q 147 277 161 200 q 119 269 136 269 q 102 271 109 269 q 51 314 70 285 q 32 378 31 344 q 34 393 33 385 q 46 422 36 400 q 73 461 57 444 q 120 499 88 479 q 193 532 151 519 q 226 642 212 600 q 251 703 240 684 q 269 727 262 722 q 286 736 275 732 q 306 739 297 739 q 408 677 348 739 q 414 669 410 675 q 493 818 447 745 q 532 854 508 842 q 583 867 556 867 q 665 846 626 866 q 729 749 709 804 q 705 705 730 720 q 676 675 690 694 q 736 625 713 655 q 746 599 745 613 q 748 597 747 598 q 750 595 749 596 q 782 637 764 621 q 871 672 820 672 q 959 633 924 674 q 983 635 971 635 q 1076 836 1017 741 q 1115 873 1090 860 q 1167 885 1140 886 q 1249 864 1210 884 q 1276 822 1274 851 q 1275 820 1276 821 q 1275 819 1275 819 q 1470 822 1326 822 l 1556 822 q 1671 840 1615 822 q 1689 844 1683 844 q 1726 829 1710 844 q 1763 774 1747 802 q 1773 720 1784 751 q 1761 696 1767 707 q 1789 684 1777 695 q 1805 657 1802 673 q 1807 646 1807 650 q 1827 648 1817 648 q 1898 618 1869 650 q 1940 658 1914 640 q 2042 694 1985 692 q 2121 672 2084 694 q 2178 614 2157 651 q 2212 535 2210 580 m 447 226 q 452 390 435 296 q 499 567 468 484 q 570 714 531 649 q 642 801 609 780 q 633 805 638 802 q 613 811 628 807 q 586 816 599 816 q 559 811 573 817 q 536 791 545 805 q 460 648 491 719 q 417 527 430 576 q 400 431 404 477 q 397 363 395 385 q 401 325 398 341 q 371 405 381 359 q 360 490 360 450 q 362 565 359 530 q 368 621 364 600 l 372 642 q 367 647 370 644 q 353 660 363 651 q 335 675 343 669 q 317 686 326 681 q 302 688 307 690 q 233 490 286 682 q 163 467 193 481 q 118 436 133 452 q 95 406 104 420 q 84 382 85 391 l 82 373 q 218 429 104 405 q 199 347 203 373 q 198 277 193 304 q 215 234 203 249 q 241 212 228 219 q 264 204 254 205 l 274 203 q 257 283 258 233 q 268 383 256 333 q 292 479 279 433 q 316 553 305 525 l 328 583 q 347 401 331 487 q 447 226 365 295 m 905 364 q 926 330 908 342 q 964 320 943 317 q 962 323 964 321 q 957 334 960 326 q 952 354 954 343 q 950 386 950 366 q 954 430 950 406 q 991 584 966 502 q 976 584 985 585 q 946 578 966 584 q 921 561 927 572 q 877 472 897 516 q 838 397 858 427 q 813 366 823 375 q 795 364 804 357 q 798 421 785 374 q 833 514 810 469 q 875 580 859 566 q 921 584 890 593 q 903 614 928 603 q 838 614 871 629 q 817 600 826 609 q 747 450 762 533 q 701 403 731 418 q 711 481 712 443 q 688 568 709 545 q 632 587 667 591 q 696 594 662 606 q 693 597 695 595 q 685 606 691 600 q 673 617 679 612 q 657 628 667 622 q 638 637 647 635 q 617 641 629 640 q 594 637 605 643 q 541 575 568 628 q 500 458 513 522 q 499 359 488 394 q 528 313 508 331 q 571 289 547 294 q 621 296 594 283 q 670 340 648 309 q 693 380 684 361 q 741 409 720 387 q 742 365 739 388 q 800 323 749 319 q 852 372 822 325 q 903 465 883 418 l 923 511 q 905 364 899 440 m 1217 309 l 1217 310 q 1213 314 1215 311 q 1204 327 1210 317 q 1196 351 1199 338 q 1193 386 1193 363 q 1200 433 1194 408 q 1247 575 1216 503 l 1200 598 q 1183 597 1192 602 q 1042 438 1095 531 q 1126 675 1070 559 q 1225 819 1181 791 q 1217 823 1222 821 q 1197 830 1212 825 q 1169 834 1182 834 q 1142 829 1156 835 q 1119 810 1127 823 q 1006 527 1038 679 q 983 363 986 444 q 997 335 985 349 q 1019 314 1008 321 l 1029 307 q 1083 458 1034 390 q 1173 553 1122 515 q 1166 536 1171 547 q 1153 496 1162 526 q 1138 441 1143 467 q 1133 387 1133 415 q 1143 342 1133 358 q 1165 316 1154 326 q 1185 306 1176 307 q 1201 304 1194 304 q 1213 307 1208 304 l 1217 309 m 1316 262 l 1317 262 q 1305 313 1305 281 q 1313 386 1304 345 q 1335 469 1322 426 q 1365 558 1348 511 q 1399 641 1383 604 q 1431 712 1415 677 q 1588 715 1564 713 q 1649 741 1622 720 q 1689 793 1676 762 q 1556 772 1624 772 q 1451 771 1531 772 q 1324 770 1371 771 q 1249 765 1276 768 q 1188 734 1215 758 q 1149 678 1161 711 q 1261 705 1202 705 q 1354 708 1284 707 q 1309 589 1352 702 q 1251 410 1266 476 q 1256 324 1238 366 q 1316 262 1275 282 m 1851 448 q 1876 503 1869 479 q 1881 539 1883 527 q 1872 566 1879 551 q 1841 595 1864 588 q 1799 592 1818 604 q 1693 498 1733 559 q 1756 646 1753 644 l 1736 646 q 1674 618 1688 644 q 1610 440 1644 536 q 1604 423 1608 434 q 1552 393 1569 402 q 1585 490 1564 433 q 1622 585 1607 547 l 1637 623 q 1562 600 1580 620 q 1526 548 1558 595 q 1465 468 1493 500 q 1425 442 1436 435 q 1453 521 1414 450 q 1510 620 1492 593 q 1490 619 1502 620 q 1452 608 1477 618 q 1417 580 1427 597 q 1400 546 1407 559 q 1385 514 1394 533 q 1372 483 1377 496 q 1364 455 1367 469 q 1361 432 1360 441 q 1367 416 1362 422 q 1394 404 1375 405 q 1438 416 1413 404 q 1482 453 1462 429 l 1554 550 q 1493 367 1519 444 q 1452 342 1478 358 q 1414 320 1425 327 q 1386 297 1403 313 q 1354 262 1369 282 q 1329 206 1333 234 q 1338 161 1326 178 q 1379 146 1350 145 q 1444 174 1408 148 q 1484 218 1466 189 q 1510 270 1501 246 q 1537 347 1519 293 q 1539 354 1538 351 q 1541 360 1540 356 q 1544 367 1542 363 q 1594 395 1575 387 q 1556 269 1571 334 q 1562 223 1550 248 q 1588 184 1574 199 l 1603 169 q 1638 339 1596 195 q 1697 476 1659 412 q 1764 548 1721 517 q 1820 569 1807 578 q 1821 537 1826 562 q 1805 490 1817 513 q 1753 425 1788 450 q 1674 396 1717 399 q 1685 389 1678 393 q 1714 378 1692 385 q 1756 374 1735 372 q 1803 394 1776 376 q 1851 448 1830 412 m 2024 591 q 2077 616 2053 623 q 2091 591 2095 611 q 2063 551 2086 572 q 1988 534 2030 524 q 2012 508 1996 517 q 2046 500 2028 498 q 2104 526 2081 500 q 2124 587 2127 551 q 2100 625 2123 608 q 2043 644 2077 642 q 1969 618 2009 646 q 1924 571 1944 600 q 1893 511 1904 543 q 1889 447 1882 479 q 1923 393 1896 415 q 1985 379 1949 374 q 2053 403 2021 385 q 2104 441 2085 420 q 2117 489 2117 463 q 2081 450 2105 469 q 2031 421 2056 431 q 1984 408 2006 410 q 1954 419 1962 406 q 1963 498 1939 446 q 2024 591 1988 551 m 575 497 q 596 430 576 460 q 649 383 616 399 q 616 316 635 332 q 574 308 597 301 q 554 369 555 313 q 566 467 553 424 q 575 497 572 487 m 1021 -157 q 998 -149 1008 -158 q 989 -128 988 -140 q 994 -106 989 -117 q 1031 -83 1005 -82 q 1055 -92 1044 -82 q 1063 -113 1063 -100 q 1057 -135 1063 -124 q 1021 -157 1046 -159 m 374 -236 l 421 0 l 1870 0 l 1822 -236 l 374 -236 m 1678 -63 l 1673 -85 l 1710 -85 l 1691 -178 l 1718 -178 l 1737 -85 l 1773 -85 l 1778 -63 l 1678 -63 m 1528 -63 l 1505 -178 l 1531 -178 l 1546 -106 l 1589 -178 l 1611 -178 l 1634 -63 l 1607 -63 l 1593 -135 l 1550 -63 l 1528 -63 m 1349 -95 q 1340 -130 1340 -111 q 1347 -156 1340 -144 q 1367 -174 1354 -168 q 1396 -180 1382 -180 q 1434 -171 1416 -180 q 1459 -146 1449 -163 q 1468 -111 1468 -131 q 1461 -85 1468 -96 q 1441 -67 1453 -73 q 1411 -61 1427 -61 q 1375 -70 1392 -61 q 1349 -95 1358 -79 m 1226 -63 l 1203 -178 l 1230 -178 l 1238 -136 l 1291 -136 l 1296 -115 l 1242 -115 l 1249 -84 l 1309 -84 l 1313 -63 l 1226 -63 m 971 -95 q 962 -130 962 -112 q 968 -156 962 -144 q 988 -174 976 -168 q 1018 -180 1004 -180 q 1055 -171 1038 -180 q 1080 -146 1071 -162 q 1089 -111 1089 -131 q 1082 -85 1089 -96 q 1063 -67 1075 -73 q 1034 -61 1049 -61 q 996 -70 1013 -61 q 971 -95 981 -79 m 795 -63 l 772 -178 l 796 -178 l 810 -109 l 834 -166 l 846 -166 l 890 -110 l 876 -178 l 901 -178 l 924 -63 l 901 -63 l 845 -135 l 817 -63 l 795 -63 m 654 -63 l 632 -178 l 721 -178 l 726 -157 l 663 -157 l 668 -130 l 722 -130 l 726 -109 l 672 -109 l 677 -84 l 737 -84 l 742 -63 l 654 -63 m 489 -63 l 466 -178 l 522 -178 q 560 -170 541 -178 q 585 -146 576 -161 q 594 -111 594 -131 q 587 -85 594 -96 q 568 -68 580 -73 q 537 -63 555 -63 l 489 -63 m 1398 -157 q 1375 -149 1385 -158 q 1367 -128 1367 -140 q 1373 -106 1367 -117 q 1387 -90 1378 -96 q 1409 -83 1397 -83 q 1432 -92 1422 -82 q 1440 -113 1441 -100 q 1436 -135 1440 -125 q 1398 -157 1424 -159 m 547 -151 q 523 -156 536 -156 l 497 -156 l 511 -85 l 534 -85 q 559 -92 548 -83 q 567 -113 568 -102 q 562 -135 567 -124 q 547 -151 556 -146 z "},"\"":{"ha":2244,"x_min":31,"x_max":2214,"o":"m 1373 252 q 1481 334 1415 307 q 1437 229 1455 263 q 1397 187 1419 195 q 1356 197 1362 175 q 1373 252 1350 219 m 612 522 q 651 509 639 564 q 656 416 661 463 l 654 406 l 654 406 q 611 458 626 421 q 612 522 596 494 m 2212 535 q 2197 463 2214 496 q 2205 435 2205 451 q 2178 353 2206 391 q 2007 274 2108 280 q 1929 300 1963 273 q 1902 328 1917 309 q 1780 269 1855 271 q 1727 279 1753 269 q 1726 275 1727 277 q 1725 271 1725 273 q 1689 127 1700 198 q 1687 96 1693 111 q 1666 72 1681 81 q 1635 65 1652 63 q 1607 78 1619 66 q 1562 132 1579 103 q 1511 79 1541 100 q 1412 41 1468 45 q 1325 94 1357 47 q 1289 148 1305 115 q 1278 203 1276 176 q 1276 206 1278 204 q 1274 209 1274 208 q 1233 199 1253 199 q 1177 217 1202 200 q 1138 261 1152 233 q 1128 281 1135 266 q 1126 283 1128 282 q 1124 286 1125 285 q 1122 288 1122 287 q 1116 252 1117 268 q 1101 217 1116 231 q 1065 203 1086 203 q 1041 209 1053 203 q 1023 221 1036 212 q 1012 217 1019 218 q 994 215 1002 215 q 946 226 968 214 q 909 260 924 238 q 841 219 876 221 l 829 219 q 748 256 779 216 q 694 204 728 224 q 623 183 661 184 q 530 222 568 184 q 534 180 530 202 q 511 130 539 147 q 483 122 498 121 q 455 131 467 122 q 376 225 406 170 q 347 268 359 247 q 355 173 338 220 q 354 123 369 149 q 311 98 340 98 q 218 144 256 100 q 148 277 162 200 q 119 269 136 269 q 102 271 109 269 q 51 314 70 285 q 32 378 31 344 q 34 393 33 385 q 46 422 36 400 q 73 461 57 444 q 120 499 88 479 q 193 532 151 519 q 226 642 212 600 q 251 703 240 684 q 269 727 262 722 q 286 736 275 732 q 306 739 297 739 q 408 677 348 739 q 414 669 410 675 q 493 818 447 745 q 532 854 508 842 q 583 867 556 867 q 665 846 626 866 q 729 749 709 804 q 705 705 730 720 q 676 675 690 694 q 736 625 713 655 q 746 599 745 613 q 748 597 747 598 q 750 595 749 596 q 782 637 764 621 q 871 672 820 672 q 959 633 924 674 q 983 635 971 635 q 1077 836 1017 739 q 1116 873 1091 860 q 1167 885 1140 886 q 1249 864 1210 884 q 1276 822 1274 851 l 1276 819 q 1470 822 1326 822 l 1556 822 q 1672 840 1615 822 q 1690 844 1684 844 q 1726 829 1710 844 q 1763 774 1744 806 q 1773 720 1784 750 q 1760 696 1769 709 q 1789 684 1776 695 q 1805 657 1801 673 q 1806 646 1806 650 q 1827 648 1816 648 q 1898 618 1869 650 q 1940 658 1914 640 q 2042 694 1985 692 q 2121 672 2084 694 q 2178 614 2157 651 q 2212 535 2210 580 m 447 226 q 452 390 435 296 q 499 567 468 484 q 570 714 531 649 q 642 801 609 780 q 633 805 638 802 q 613 811 628 807 q 586 816 599 816 q 559 811 573 817 q 536 791 545 805 q 460 648 491 719 q 417 527 430 576 q 400 431 404 477 q 397 363 395 385 q 401 325 398 341 q 371 405 381 359 q 360 490 360 450 q 362 565 359 530 q 368 621 364 600 l 372 642 q 367 647 370 644 q 353 660 363 651 q 335 675 343 669 q 317 686 326 681 q 302 688 307 690 q 233 490 286 682 q 163 467 193 481 q 118 436 133 452 q 95 406 104 420 q 84 382 85 391 l 82 373 q 218 429 104 405 q 199 347 203 373 q 198 277 193 304 q 215 234 203 249 q 241 212 228 219 q 264 204 254 205 l 274 203 q 257 283 258 233 q 268 383 256 333 q 292 479 279 433 q 316 553 305 525 l 328 583 q 347 401 331 487 q 447 226 365 295 m 905 364 q 926 330 908 342 q 964 320 943 317 q 962 323 964 321 q 957 334 960 326 q 952 354 954 343 q 950 386 950 366 q 954 430 950 406 q 991 585 966 503 q 976 585 985 585 q 946 578 966 585 q 921 561 927 572 q 877 472 897 516 q 838 397 858 427 q 813 367 823 375 q 795 365 804 358 q 797 421 785 374 q 833 514 810 469 q 875 580 859 566 q 921 584 890 593 q 903 614 928 603 q 838 614 871 629 q 817 600 826 609 q 747 450 762 533 q 701 404 732 419 q 711 481 712 441 q 688 568 709 545 q 632 587 667 591 q 696 594 662 606 q 693 597 695 595 q 685 606 691 600 q 673 617 679 612 q 657 628 667 622 q 638 637 647 635 q 617 641 629 640 q 594 637 605 643 q 541 575 568 628 q 500 458 513 522 q 499 359 488 394 q 528 313 508 331 q 571 289 547 294 q 621 296 594 283 q 670 340 648 309 q 693 380 684 361 q 741 409 721 388 q 742 365 739 385 q 800 323 749 319 q 852 372 822 325 q 903 465 883 418 l 923 511 q 905 364 899 440 m 1217 310 q 1213 314 1215 311 q 1204 328 1210 317 q 1196 351 1199 338 q 1193 386 1193 364 q 1200 433 1194 408 q 1247 576 1216 503 l 1200 598 q 1183 597 1192 602 q 1042 438 1095 531 q 1126 675 1070 559 q 1225 819 1181 791 q 1217 823 1222 821 q 1197 830 1212 825 q 1170 834 1182 834 q 1142 829 1157 835 q 1120 810 1128 823 q 1006 527 1038 677 q 983 363 986 444 q 997 335 985 349 q 1019 314 1008 321 l 1029 307 q 1083 458 1034 391 q 1173 553 1122 515 q 1166 536 1171 547 q 1153 496 1162 526 q 1138 441 1143 467 q 1133 387 1133 415 q 1143 342 1133 358 q 1178 308 1160 316 q 1206 305 1196 300 l 1217 310 m 1316 262 q 1304 313 1305 281 q 1313 386 1303 345 q 1334 469 1322 426 q 1365 558 1347 511 q 1399 641 1383 604 q 1431 712 1415 677 q 1588 716 1552 713 q 1649 742 1622 721 q 1689 793 1676 762 q 1556 772 1624 772 q 1450 771 1527 771 q 1324 770 1373 772 q 1249 766 1276 769 q 1188 735 1215 758 q 1149 678 1161 711 q 1261 705 1202 705 q 1354 709 1297 708 q 1309 590 1352 703 q 1251 410 1266 477 q 1256 324 1238 366 q 1316 262 1275 282 m 1851 448 q 1876 503 1869 479 q 1881 539 1883 527 q 1872 566 1879 551 q 1841 595 1864 588 q 1799 592 1818 604 q 1693 498 1732 558 q 1756 646 1753 644 l 1736 646 q 1674 618 1688 643 q 1610 441 1644 536 q 1604 423 1606 429 q 1552 393 1566 400 q 1585 490 1564 433 q 1622 585 1607 547 l 1637 623 q 1562 600 1580 620 q 1526 548 1558 595 q 1465 468 1493 500 q 1425 442 1436 435 q 1453 522 1414 450 q 1510 621 1493 595 q 1489 620 1501 621 q 1451 608 1476 618 q 1417 581 1426 598 q 1400 547 1407 561 q 1384 515 1393 533 q 1371 483 1376 496 q 1363 456 1367 469 q 1361 432 1360 442 q 1367 416 1362 422 q 1394 405 1375 405 q 1437 417 1413 404 q 1481 454 1461 429 l 1554 550 q 1493 367 1519 444 q 1452 342 1478 358 q 1414 320 1425 327 q 1386 297 1403 313 q 1354 262 1369 282 q 1329 206 1333 234 q 1338 161 1326 178 q 1379 146 1350 145 q 1444 174 1408 148 q 1484 218 1466 189 q 1510 270 1501 246 q 1537 347 1519 293 q 1539 354 1538 351 q 1541 360 1540 356 q 1544 367 1542 363 q 1594 395 1575 387 q 1556 269 1571 334 q 1562 223 1550 248 q 1588 184 1574 199 l 1603 169 q 1639 340 1596 195 q 1697 476 1659 413 q 1764 549 1721 518 q 1820 570 1807 579 q 1821 538 1826 562 q 1805 491 1817 513 q 1753 425 1788 451 q 1674 396 1717 399 q 1685 389 1678 393 q 1714 378 1692 385 q 1756 374 1735 372 q 1803 394 1776 376 q 1851 448 1830 412 m 2024 591 q 2076 616 2052 621 q 2091 593 2094 613 q 2063 551 2087 573 q 1988 534 2030 525 q 2012 508 1996 517 q 2046 500 2028 498 q 2104 526 2081 500 q 2124 587 2127 551 q 2100 625 2123 608 q 2043 644 2077 642 q 1969 618 2009 646 q 1924 571 1944 600 q 1893 512 1904 543 q 1889 448 1882 480 q 1923 394 1896 416 q 1985 380 1949 374 q 2053 404 2021 386 q 2104 441 2085 421 q 2117 489 2117 463 q 2081 450 2105 469 q 2031 421 2056 431 q 1984 408 2006 410 q 1954 419 1962 406 q 1963 498 1939 446 q 2024 591 1988 551 m 575 497 q 596 430 576 460 q 649 383 616 399 q 616 316 635 332 q 574 308 597 301 q 554 369 555 313 q 566 467 553 424 q 575 497 572 487 m 1020 -157 q 997 -149 1007 -158 q 989 -128 988 -140 q 994 -106 989 -117 q 1031 -83 1005 -82 q 1054 -92 1044 -83 q 1062 -113 1063 -100 q 1057 -135 1062 -125 q 1020 -157 1046 -159 m 374 -236 l 421 0 l 1870 0 l 1822 -236 l 374 -236 m 1678 -63 l 1673 -85 l 1710 -85 l 1691 -178 l 1718 -178 l 1737 -85 l 1773 -85 l 1778 -63 l 1678 -63 m 1528 -63 l 1505 -178 l 1531 -178 l 1546 -106 l 1589 -178 l 1611 -178 l 1634 -63 l 1607 -63 l 1593 -135 l 1550 -63 l 1528 -63 m 1349 -95 q 1340 -130 1340 -111 q 1347 -156 1340 -144 q 1367 -174 1354 -168 q 1396 -180 1382 -180 q 1434 -171 1416 -180 q 1459 -146 1449 -163 q 1468 -111 1468 -131 q 1461 -85 1468 -96 q 1441 -67 1453 -73 q 1411 -61 1427 -61 q 1374 -70 1391 -61 q 1349 -95 1359 -79 m 1226 -63 l 1203 -178 l 1230 -178 l 1238 -136 l 1291 -136 l 1296 -115 l 1242 -115 l 1249 -84 l 1309 -84 l 1313 -63 l 1226 -63 m 971 -95 q 962 -130 962 -112 q 968 -156 962 -144 q 988 -174 976 -168 q 1018 -180 1004 -180 q 1055 -171 1038 -180 q 1080 -146 1071 -162 q 1089 -111 1089 -131 q 1082 -85 1089 -96 q 1063 -67 1075 -73 q 1033 -61 1049 -61 q 996 -70 1013 -61 q 971 -95 981 -79 m 795 -63 l 771 -178 l 796 -178 l 810 -109 l 834 -166 l 846 -166 l 890 -110 l 876 -178 l 901 -178 l 924 -63 l 901 -63 l 845 -135 l 817 -63 l 795 -63 m 654 -63 l 632 -178 l 721 -178 l 726 -157 l 663 -157 l 668 -130 l 722 -130 l 726 -109 l 672 -109 l 677 -84 l 737 -84 l 742 -63 l 654 -63 m 489 -63 l 466 -178 l 522 -178 q 559 -170 541 -178 q 585 -146 577 -160 q 594 -111 594 -131 q 587 -85 594 -96 q 568 -68 580 -73 q 537 -63 555 -63 l 489 -63 m 1398 -157 q 1375 -149 1385 -158 q 1367 -128 1367 -140 q 1372 -106 1367 -115 q 1387 -90 1377 -96 q 1409 -83 1397 -83 q 1432 -92 1422 -82 q 1440 -113 1441 -100 q 1436 -135 1440 -125 q 1398 -157 1424 -159 m 547 -151 q 523 -156 536 -156 l 497 -156 l 511 -85 l 534 -85 q 559 -92 548 -83 q 567 -113 568 -102 q 562 -135 567 -124 q 547 -151 556 -146 z "},"#":{"ha":2244,"x_min":31,"x_max":2214,"o":"m 1373 252 q 1481 334 1415 307 q 1437 229 1455 263 q 1397 187 1419 195 q 1356 197 1362 175 q 1373 252 1350 219 m 612 522 q 651 508 640 564 q 656 414 661 462 q 654 406 655 410 l 654 406 q 611 458 626 421 q 612 522 596 494 m 2212 535 q 2196 463 2214 497 q 2205 435 2205 449 q 2178 353 2206 390 q 2007 274 2109 280 q 1929 300 1963 273 q 1902 328 1914 311 q 1780 269 1855 271 q 1727 278 1751 269 l 1724 271 q 1689 127 1701 201 q 1687 95 1693 111 q 1666 71 1681 80 q 1635 64 1652 62 q 1607 77 1619 66 q 1562 132 1580 102 q 1510 79 1541 100 q 1412 41 1467 45 q 1325 94 1357 47 q 1288 148 1304 117 q 1278 203 1276 175 q 1276 206 1278 204 q 1274 209 1274 208 q 1233 199 1253 199 q 1177 217 1202 201 q 1138 260 1152 233 q 1128 281 1135 264 q 1126 283 1128 282 q 1124 286 1125 285 q 1122 288 1122 287 q 1116 251 1117 268 q 1101 217 1116 231 q 1065 203 1086 203 q 1041 209 1053 203 q 1023 220 1032 214 q 1012 217 1020 218 q 994 215 1002 215 q 946 226 968 214 q 909 260 924 238 q 841 219 876 221 q 829 218 837 218 q 748 256 779 215 q 694 204 728 223 q 623 183 661 184 q 530 222 568 184 q 534 180 530 202 q 530 151 536 165 q 511 129 524 137 q 455 131 484 111 q 376 225 406 170 q 346 267 355 252 q 355 172 337 221 q 354 123 369 149 q 311 98 340 98 q 217 143 254 100 q 147 277 161 199 q 119 268 134 268 q 102 271 111 268 q 51 314 70 285 q 32 378 31 343 q 34 392 33 385 q 46 421 36 399 q 73 461 57 443 q 120 499 88 479 q 193 532 151 519 q 226 642 212 600 q 251 703 240 684 q 269 727 262 722 q 286 736 275 732 q 306 739 297 739 q 408 677 348 739 q 414 669 410 675 q 493 818 447 745 q 532 854 507 842 q 583 867 556 867 q 665 846 627 865 q 728 749 707 806 q 705 705 730 720 q 676 675 690 694 q 736 625 712 656 q 746 599 745 612 l 749 595 q 782 637 763 620 q 871 672 820 672 q 959 633 924 674 q 983 635 967 635 q 1076 836 1017 741 q 1115 873 1090 860 q 1167 885 1140 886 q 1249 864 1210 884 q 1276 822 1274 851 q 1275 820 1276 821 q 1275 819 1275 819 q 1470 822 1326 822 q 1514 822 1485 822 q 1556 823 1542 823 q 1671 841 1615 823 q 1726 829 1702 853 q 1763 774 1744 806 q 1773 720 1784 750 q 1760 696 1769 709 q 1789 684 1776 695 q 1805 657 1801 673 q 1806 646 1806 650 q 1827 648 1816 648 q 1898 618 1868 650 q 1939 658 1917 642 q 2042 694 1984 692 q 2121 672 2084 694 q 2178 614 2157 651 q 2212 535 2210 580 m 447 226 q 452 390 435 296 q 499 567 468 484 q 570 714 531 649 q 642 801 609 780 q 633 805 638 802 q 613 811 628 807 q 586 816 599 816 q 559 811 573 817 q 536 791 545 805 q 460 648 491 719 q 417 527 430 576 q 400 431 404 477 q 397 363 395 385 q 401 325 398 341 q 371 405 381 359 q 360 490 360 450 q 362 565 359 530 q 368 621 364 600 l 372 642 q 367 647 370 644 q 353 660 363 651 q 335 675 343 669 q 317 686 326 681 q 302 688 307 690 q 233 490 286 682 q 163 467 193 481 q 118 436 133 452 q 95 406 104 420 q 84 382 85 391 l 82 373 q 218 429 104 405 q 199 347 203 373 q 198 277 193 304 q 215 234 203 249 q 241 212 228 219 q 264 204 254 205 l 274 203 q 257 283 258 233 q 268 383 256 333 q 292 479 279 433 q 316 553 305 525 l 328 583 q 347 401 331 487 q 447 226 365 295 m 905 364 q 925 330 908 342 q 964 320 943 317 q 962 323 964 321 q 957 334 960 326 q 952 354 954 343 q 950 386 950 366 q 954 430 950 406 q 991 585 966 503 q 976 585 985 585 q 946 578 966 585 q 921 561 927 572 q 877 472 897 516 q 838 397 858 427 q 813 367 823 375 q 795 365 804 358 q 797 421 785 374 q 833 514 810 469 q 875 580 859 566 q 921 584 890 593 q 903 614 928 603 q 838 614 871 629 q 817 600 826 609 q 747 450 762 533 q 701 404 732 420 q 711 481 712 444 q 688 568 709 545 q 632 587 667 591 q 696 594 662 606 q 693 597 695 595 q 685 606 691 600 q 673 617 679 612 q 657 628 667 622 q 638 637 647 635 q 617 641 629 640 q 594 637 605 643 q 541 575 568 628 q 500 458 513 522 q 499 359 488 394 q 528 313 508 331 q 571 289 547 294 q 621 296 594 283 q 670 340 648 309 q 693 380 684 361 q 741 409 720 387 q 742 365 739 388 q 800 323 749 321 q 852 372 822 325 q 903 465 883 418 l 923 511 q 905 364 899 440 m 1217 310 q 1213 314 1215 311 q 1204 328 1210 317 q 1196 351 1199 338 q 1193 386 1193 364 q 1200 433 1194 408 q 1247 576 1216 503 l 1200 598 q 1183 597 1192 602 q 1042 438 1095 531 q 1126 675 1070 559 q 1225 819 1181 791 q 1217 823 1222 821 q 1197 830 1212 825 q 1169 834 1182 834 q 1142 829 1156 835 q 1119 810 1127 823 q 1006 527 1038 679 q 983 363 987 448 q 997 335 985 349 q 1018 314 1008 321 l 1028 307 q 1083 458 1034 389 q 1173 553 1122 515 q 1166 536 1171 547 q 1153 496 1162 526 q 1138 441 1143 467 q 1133 387 1133 415 q 1143 342 1133 358 q 1178 308 1160 316 q 1206 305 1196 300 l 1217 310 m 1316 262 q 1304 313 1305 281 q 1313 386 1303 345 q 1335 469 1322 426 q 1365 558 1348 511 q 1399 641 1383 604 q 1432 712 1415 677 q 1588 716 1582 715 q 1649 742 1622 721 q 1689 793 1676 762 q 1556 772 1624 772 q 1451 771 1527 771 q 1325 770 1374 772 q 1249 766 1276 769 q 1188 735 1215 758 q 1150 678 1162 711 q 1261 705 1203 705 q 1354 709 1297 708 q 1310 591 1353 704 q 1251 410 1267 477 q 1257 324 1238 366 q 1316 262 1275 282 m 1851 448 q 1876 503 1869 479 q 1881 539 1883 527 q 1872 566 1879 551 q 1841 595 1864 588 q 1799 592 1818 604 q 1693 498 1733 559 q 1756 646 1753 644 l 1736 646 q 1674 618 1688 644 q 1610 440 1644 536 l 1604 423 q 1552 393 1566 400 q 1585 490 1564 433 q 1622 585 1607 547 l 1637 623 q 1562 600 1580 620 q 1526 548 1558 595 q 1465 468 1493 500 q 1425 442 1436 435 q 1453 521 1414 450 q 1510 620 1492 593 q 1490 619 1502 620 q 1452 608 1477 618 q 1417 581 1427 598 q 1400 547 1407 561 q 1385 515 1394 533 q 1372 483 1377 496 q 1364 456 1367 469 q 1361 432 1360 442 q 1367 416 1362 422 q 1394 405 1375 405 q 1438 417 1413 404 q 1482 454 1462 429 l 1554 550 q 1493 367 1519 444 q 1452 342 1478 358 q 1414 320 1425 327 q 1386 297 1403 313 q 1354 262 1369 282 q 1329 206 1333 234 q 1338 161 1326 178 q 1379 146 1350 145 q 1444 174 1408 148 q 1471 200 1459 184 q 1492 229 1484 216 q 1511 270 1499 241 q 1527 313 1522 299 q 1544 367 1531 326 q 1594 395 1577 387 q 1556 269 1571 334 q 1562 223 1550 248 q 1588 184 1574 199 l 1603 169 q 1639 340 1596 195 q 1697 476 1659 413 q 1764 549 1721 518 q 1820 570 1807 579 q 1822 538 1826 563 q 1806 491 1817 513 q 1753 425 1789 451 q 1674 396 1717 399 q 1685 389 1678 393 q 1714 378 1692 385 q 1756 374 1735 372 q 1803 394 1776 376 q 1851 448 1830 412 m 2024 591 q 2070 617 2048 616 q 2092 598 2093 617 q 2064 551 2091 578 q 1989 534 2030 525 q 2012 508 1997 517 q 2046 500 2028 498 q 2104 526 2081 500 q 2124 587 2127 551 q 2100 625 2123 608 q 2043 644 2077 642 q 1969 618 2009 646 q 1911 553 1935 593 q 1887 468 1887 513 q 1923 393 1887 422 q 1985 379 1949 374 q 2053 403 2021 385 q 2104 441 2085 421 q 2117 489 2117 463 q 2081 450 2105 469 q 2031 421 2056 431 q 1984 408 2006 410 q 1954 419 1962 406 q 1963 498 1939 446 q 2024 591 1988 551 m 575 497 q 596 430 576 460 q 649 383 616 399 q 616 316 635 332 q 574 308 597 301 q 554 369 555 313 q 566 467 553 424 q 575 497 574 495 m 1020 -157 q 997 -149 1007 -158 q 989 -128 988 -140 q 994 -106 989 -115 q 1031 -83 1005 -82 q 1054 -92 1044 -82 q 1062 -113 1063 -100 q 1057 -135 1062 -125 q 1020 -157 1046 -159 m 374 -236 l 421 0 l 1870 0 l 1822 -236 l 374 -236 m 1678 -63 l 1673 -85 l 1710 -85 l 1691 -178 l 1718 -178 l 1737 -85 l 1773 -85 l 1778 -63 l 1678 -63 m 1528 -63 l 1505 -178 l 1531 -178 l 1546 -106 l 1589 -178 l 1611 -178 l 1634 -63 l 1607 -63 l 1593 -135 l 1550 -63 l 1528 -63 m 1349 -95 q 1340 -130 1340 -111 q 1347 -157 1340 -145 q 1367 -174 1354 -168 q 1396 -180 1381 -180 q 1434 -171 1416 -180 q 1459 -146 1449 -162 q 1468 -111 1468 -131 q 1461 -85 1468 -96 q 1441 -67 1453 -73 q 1411 -61 1427 -61 q 1374 -70 1391 -61 q 1349 -95 1360 -77 m 1226 -63 l 1203 -178 l 1230 -178 l 1238 -136 l 1291 -136 l 1296 -115 l 1242 -115 l 1249 -84 l 1308 -84 l 1313 -63 l 1226 -63 m 970 -95 q 962 -130 962 -111 q 968 -157 962 -145 q 988 -174 976 -168 q 1018 -180 1002 -180 q 1055 -171 1038 -180 q 1080 -146 1070 -163 q 1089 -111 1089 -131 q 1082 -85 1089 -96 q 1063 -67 1075 -73 q 1033 -61 1048 -61 q 996 -70 1013 -61 q 970 -95 981 -77 m 795 -63 l 771 -178 l 796 -178 l 810 -109 l 834 -166 l 846 -166 l 890 -110 l 876 -178 l 901 -178 l 924 -63 l 901 -63 l 845 -135 l 817 -63 l 795 -63 m 654 -63 l 631 -178 l 721 -178 l 725 -157 l 662 -157 l 667 -130 l 721 -130 l 725 -109 l 671 -109 l 677 -84 l 737 -84 l 742 -63 l 654 -63 m 489 -63 l 466 -178 l 522 -178 q 559 -170 541 -178 q 585 -146 577 -160 q 594 -111 594 -131 q 587 -85 594 -96 q 568 -68 580 -73 q 537 -63 555 -63 l 489 -63 m 1398 -157 q 1375 -149 1385 -158 q 1367 -128 1367 -140 q 1372 -106 1367 -115 q 1409 -83 1383 -82 q 1432 -92 1422 -83 q 1440 -113 1441 -100 q 1436 -135 1440 -125 q 1398 -157 1424 -159 m 547 -151 q 523 -156 536 -156 l 497 -156 l 511 -85 l 534 -85 q 559 -92 548 -83 q 567 -113 568 -102 q 562 -135 567 -124 q 547 -151 556 -146 z "},"$":{"ha":2244,"x_min":31,"x_max":2214,"o":"m 1373 252 q 1481 334 1416 308 q 1437 229 1455 263 q 1397 187 1419 195 q 1356 197 1362 175 q 1373 252 1350 219 m 612 522 q 651 509 639 564 q 656 416 661 463 l 654 406 l 654 406 q 611 458 626 421 q 612 522 596 494 m 2212 535 q 2197 463 2214 496 q 2205 435 2205 450 q 2178 353 2206 390 q 2007 274 2109 280 q 1929 300 1963 273 q 1902 328 1916 311 q 1780 269 1855 271 q 1727 278 1751 269 q 1726 274 1727 277 q 1725 271 1725 272 q 1689 127 1700 197 q 1687 95 1693 111 q 1666 71 1681 80 q 1635 64 1652 62 q 1607 77 1619 66 q 1562 132 1580 102 q 1511 79 1541 100 q 1412 41 1468 45 q 1325 94 1357 47 q 1289 148 1305 115 q 1278 203 1276 176 q 1276 206 1278 204 q 1274 209 1274 208 q 1233 199 1253 199 q 1177 217 1202 201 q 1138 260 1152 233 q 1128 281 1135 264 q 1126 283 1128 282 q 1124 286 1125 285 q 1122 288 1122 287 q 1116 251 1117 268 q 1101 217 1116 231 q 1065 203 1086 203 q 1041 209 1053 203 q 1023 220 1032 214 q 1012 217 1020 218 q 994 215 1002 215 q 946 227 968 214 q 909 260 924 239 q 841 219 885 223 q 835 219 839 219 q 829 218 831 218 q 748 256 779 215 q 694 204 728 223 q 623 183 661 184 q 530 222 568 184 q 534 180 530 202 q 511 130 539 147 q 483 122 498 121 q 455 131 467 122 q 376 225 406 170 q 347 267 357 249 q 355 172 338 220 q 354 123 369 149 q 311 98 340 98 q 217 143 254 100 q 147 277 161 199 q 119 268 134 268 q 102 271 111 268 q 51 314 70 285 q 32 378 31 343 q 34 392 33 385 q 46 421 36 399 q 73 461 57 443 q 120 499 88 479 q 193 532 151 519 q 226 642 212 600 q 251 703 240 684 q 269 727 262 722 q 286 736 275 732 q 306 739 297 739 q 408 677 348 739 q 414 669 410 675 q 493 818 447 745 q 532 854 507 842 q 583 867 556 867 q 665 846 627 865 q 729 749 709 804 q 705 705 730 720 q 676 675 690 694 q 736 625 713 655 q 746 599 745 613 q 748 597 747 598 q 750 595 749 596 q 782 637 764 621 q 871 672 820 672 q 959 633 924 674 q 983 635 967 635 q 1076 836 1017 741 q 1115 873 1090 860 q 1167 885 1140 886 q 1249 864 1210 884 q 1276 822 1274 851 q 1275 820 1276 821 q 1275 819 1275 819 q 1470 822 1326 822 q 1514 822 1485 822 q 1556 823 1542 823 q 1671 841 1615 823 q 1726 829 1702 853 q 1763 774 1747 802 q 1773 720 1784 751 q 1761 696 1767 707 q 1789 684 1777 695 q 1805 657 1802 673 q 1807 646 1807 650 q 1827 648 1817 648 q 1898 618 1868 650 q 1940 658 1916 640 q 2042 694 1985 692 q 2121 672 2084 694 q 2178 614 2157 651 q 2212 535 2210 580 m 447 226 q 452 390 435 296 q 499 567 468 484 q 570 714 531 649 q 642 801 609 780 q 633 805 638 802 q 613 811 628 807 q 586 816 599 816 q 559 811 573 817 q 536 791 545 805 q 460 648 491 719 q 417 527 430 576 q 400 431 404 477 q 397 363 395 385 q 401 325 398 341 q 371 405 381 359 q 360 490 360 450 q 362 565 359 530 q 368 621 364 600 l 372 642 q 367 647 370 644 q 353 660 363 651 q 335 675 343 669 q 317 686 326 681 q 302 688 307 690 q 233 490 286 682 q 163 467 193 481 q 118 436 133 452 q 95 406 104 420 q 84 382 85 391 l 82 373 q 218 429 104 405 q 199 347 203 373 q 198 277 193 304 q 215 234 203 249 q 241 212 228 219 q 264 204 254 205 l 274 203 q 257 283 258 233 q 268 383 256 333 q 292 479 279 433 q 316 553 305 525 l 328 583 q 347 401 331 487 q 447 226 365 295 m 905 364 q 926 330 908 342 q 964 320 943 317 q 959 330 962 323 q 951 363 956 336 q 955 430 947 391 q 992 585 967 503 q 976 585 986 585 q 947 578 966 585 q 921 561 927 572 q 878 471 897 516 q 839 397 859 427 q 795 365 810 353 q 797 421 785 374 q 833 514 810 469 q 875 580 859 566 q 921 584 890 593 q 903 614 928 603 q 838 614 871 629 q 817 600 826 609 q 747 450 763 534 q 701 404 732 420 q 711 481 712 441 q 688 568 709 545 q 632 587 667 591 q 696 594 662 606 q 693 597 695 595 q 685 606 691 600 q 673 617 679 612 q 657 628 667 622 q 638 637 647 635 q 617 641 629 640 q 594 637 605 643 q 541 575 568 628 q 500 458 513 522 q 499 359 488 394 q 528 313 508 331 q 571 289 547 294 q 621 296 594 283 q 670 340 648 309 q 693 380 684 361 q 741 409 721 388 q 742 365 739 385 q 800 323 749 321 q 852 372 822 325 q 903 465 883 418 l 923 511 q 905 364 899 440 m 1217 310 q 1213 314 1215 311 q 1204 328 1210 317 q 1196 351 1199 338 q 1193 386 1193 364 q 1200 433 1194 408 q 1247 576 1216 503 l 1200 598 q 1183 597 1192 602 q 1042 438 1095 531 q 1126 675 1070 559 q 1225 819 1181 791 q 1217 823 1222 821 q 1197 830 1212 825 q 1169 834 1182 834 q 1142 829 1156 835 q 1119 810 1127 823 q 1006 527 1038 679 q 983 363 986 444 q 997 335 985 349 q 1019 314 1008 321 l 1029 307 q 1083 458 1034 391 q 1173 553 1122 515 q 1166 536 1171 547 q 1153 496 1162 526 q 1138 441 1143 467 q 1133 387 1133 415 q 1143 342 1133 358 q 1178 308 1160 316 q 1206 305 1196 300 l 1217 310 m 1316 262 l 1317 262 q 1305 313 1305 281 q 1313 386 1304 345 q 1335 469 1322 426 q 1365 558 1348 511 q 1399 641 1383 604 q 1431 712 1415 677 q 1588 716 1583 715 q 1649 742 1622 721 q 1689 793 1676 762 q 1556 772 1624 772 q 1450 771 1527 771 q 1324 770 1373 772 q 1249 766 1276 769 q 1188 735 1215 758 q 1150 678 1162 711 q 1261 705 1203 705 q 1354 709 1297 708 q 1310 591 1353 704 q 1251 410 1267 477 q 1257 324 1238 366 q 1316 262 1275 282 m 1851 448 q 1876 503 1869 479 q 1881 539 1883 527 q 1872 566 1879 551 q 1842 595 1864 588 q 1799 592 1819 604 q 1693 498 1733 558 q 1756 646 1753 644 l 1736 646 q 1674 618 1688 644 q 1610 440 1644 536 l 1605 423 q 1552 393 1569 401 q 1585 490 1564 433 q 1622 585 1607 547 l 1638 623 q 1562 600 1580 620 q 1526 548 1558 595 q 1465 468 1493 500 q 1425 442 1436 435 q 1453 521 1414 450 q 1510 620 1492 593 q 1490 619 1502 620 q 1452 608 1477 618 q 1417 581 1427 598 q 1400 547 1407 561 q 1385 515 1394 533 q 1372 483 1377 496 q 1364 456 1367 469 q 1361 432 1360 442 q 1367 416 1362 422 q 1394 404 1375 405 q 1438 416 1413 404 q 1482 453 1462 429 l 1554 550 q 1493 367 1519 444 q 1452 342 1478 358 q 1414 320 1425 327 q 1386 297 1403 313 q 1354 262 1369 282 q 1329 206 1333 234 q 1338 161 1326 178 q 1380 146 1351 145 q 1444 174 1409 148 q 1485 218 1467 189 q 1511 270 1502 246 q 1537 347 1520 293 q 1540 354 1539 351 q 1542 360 1541 356 q 1544 367 1543 363 q 1594 395 1577 387 q 1556 269 1571 334 q 1562 223 1550 248 q 1588 184 1574 199 l 1603 169 q 1639 340 1596 195 q 1697 476 1659 413 q 1764 549 1721 518 q 1820 570 1807 579 q 1821 538 1826 562 q 1805 491 1817 513 q 1753 425 1788 451 q 1674 396 1717 399 q 1685 389 1678 393 q 1714 378 1692 385 q 1756 374 1735 372 q 1803 394 1776 376 q 1851 448 1830 412 m 2024 591 q 2076 616 2052 621 q 2091 593 2094 613 q 2063 551 2087 573 q 1988 534 2030 525 q 2012 508 1996 517 q 2046 500 2028 498 q 2104 526 2081 500 q 2124 587 2127 551 q 2100 625 2123 608 q 2043 644 2077 642 q 1969 618 2009 646 q 1911 553 1935 593 q 1887 468 1887 513 q 1923 393 1887 422 q 1985 379 1949 374 q 2053 403 2021 385 q 2104 441 2085 421 q 2117 489 2117 463 q 2081 450 2105 469 q 2031 421 2056 431 q 1984 408 2006 410 q 1954 419 1962 406 q 1963 498 1939 446 q 2024 591 1988 551 m 576 497 q 596 430 577 460 q 649 383 616 399 q 616 316 635 332 q 574 308 597 301 q 554 369 555 313 q 566 467 553 424 q 576 497 570 481 m 1021 -157 q 997 -149 1007 -159 q 989 -128 988 -140 q 994 -106 989 -117 q 1031 -83 1005 -82 q 1054 -92 1044 -83 q 1062 -113 1063 -100 q 1057 -135 1062 -125 q 1021 -157 1046 -159 m 374 -236 l 421 0 l 1870 0 l 1822 -236 l 374 -236 m 1678 -63 l 1673 -85 l 1710 -85 l 1691 -178 l 1718 -178 l 1737 -85 l 1773 -85 l 1778 -63 l 1678 -63 m 1528 -63 l 1505 -178 l 1531 -178 l 1546 -106 l 1589 -178 l 1611 -178 l 1634 -63 l 1607 -63 l 1593 -135 l 1550 -63 l 1528 -63 m 1349 -95 q 1340 -130 1340 -111 q 1347 -157 1340 -145 q 1367 -174 1354 -167 q 1396 -180 1382 -180 q 1434 -171 1416 -180 q 1459 -146 1449 -163 q 1468 -111 1468 -131 q 1461 -85 1468 -96 q 1441 -67 1453 -73 q 1411 -61 1427 -61 q 1375 -70 1392 -61 q 1349 -95 1359 -77 m 1226 -63 l 1203 -178 l 1230 -178 l 1238 -136 l 1291 -136 l 1296 -115 l 1242 -115 l 1249 -84 l 1309 -84 l 1313 -63 l 1226 -63 m 971 -95 q 962 -130 962 -112 q 968 -157 962 -145 q 988 -174 975 -167 q 1018 -180 1004 -180 q 1055 -171 1038 -180 q 1080 -146 1071 -162 q 1089 -111 1089 -131 q 1082 -85 1089 -96 q 1063 -67 1075 -73 q 1034 -61 1049 -61 q 996 -70 1013 -61 q 971 -95 981 -79 m 795 -63 l 772 -178 l 796 -178 l 810 -109 l 834 -166 l 846 -166 l 890 -110 l 876 -178 l 901 -178 l 924 -63 l 901 -63 l 845 -135 l 817 -63 l 795 -63 m 654 -63 l 631 -178 l 721 -178 l 725 -157 l 663 -157 l 667 -130 l 722 -130 l 726 -109 l 672 -109 l 677 -84 l 737 -84 l 742 -63 l 654 -63 m 489 -63 l 466 -178 l 522 -178 q 560 -170 541 -178 q 585 -146 576 -161 q 594 -111 594 -131 q 587 -85 594 -96 q 568 -68 580 -73 q 537 -63 555 -63 l 489 -63 m 1398 -157 q 1375 -149 1385 -158 q 1367 -128 1367 -140 q 1372 -106 1367 -115 q 1387 -90 1377 -96 q 1409 -83 1397 -83 q 1432 -92 1422 -83 q 1440 -113 1441 -100 q 1436 -135 1440 -125 q 1398 -157 1424 -159 m 547 -151 q 523 -156 536 -156 l 497 -156 l 511 -85 l 534 -85 q 559 -92 548 -83 q 567 -113 568 -102 q 562 -135 567 -124 q 547 -151 556 -146 z "},"%":{"ha":2244,"x_min":31,"x_max":2214,"o":"m 1373 252 q 1481 334 1416 308 q 1437 229 1455 263 q 1397 187 1419 195 q 1356 197 1362 175 q 1373 252 1350 219 m 612 522 q 651 509 639 564 q 656 416 661 463 l 654 406 l 654 406 q 611 458 626 421 q 612 522 596 494 m 2212 535 q 2196 463 2214 497 q 2205 435 2205 449 q 2178 353 2206 390 q 2007 274 2109 280 q 1929 300 1963 273 q 1902 328 1917 309 q 1780 269 1855 271 q 1727 278 1751 269 q 1726 274 1727 277 q 1725 271 1725 272 q 1689 127 1700 197 q 1687 95 1693 111 q 1666 71 1681 80 q 1635 64 1652 62 q 1607 77 1619 66 q 1562 132 1580 102 q 1511 79 1541 100 q 1412 41 1468 45 q 1325 94 1357 47 q 1288 148 1304 117 q 1278 203 1276 175 q 1276 206 1278 204 q 1274 209 1274 208 q 1233 199 1253 199 q 1177 217 1202 201 q 1138 260 1152 233 q 1128 281 1135 264 q 1126 283 1128 282 q 1124 286 1125 285 q 1122 288 1122 287 q 1116 251 1117 268 q 1101 217 1116 231 q 1065 203 1086 203 q 1041 209 1053 203 q 1023 220 1032 214 q 1012 217 1020 218 q 994 215 1002 215 q 946 227 968 214 q 909 260 924 239 q 841 219 885 223 q 835 219 839 219 q 829 218 831 218 q 748 256 779 215 q 694 204 728 223 q 623 183 661 184 q 530 222 568 184 q 534 180 530 202 q 530 151 536 165 q 511 129 524 137 q 455 131 484 111 q 376 225 406 170 q 347 267 357 249 q 355 172 338 220 q 354 123 369 149 q 311 98 340 98 q 217 143 254 100 q 147 277 161 199 q 119 268 134 268 q 102 271 111 268 q 51 314 70 285 q 32 378 31 343 q 34 392 33 385 q 46 421 36 399 q 73 461 57 443 q 120 499 88 479 q 193 532 151 519 q 226 642 212 600 q 251 703 240 684 q 269 727 262 722 q 286 736 275 732 q 306 739 297 739 q 408 677 348 739 q 414 669 410 675 q 493 818 447 745 q 532 854 507 842 q 583 867 556 867 q 665 846 627 865 q 729 749 709 804 q 705 705 730 720 q 676 675 690 694 q 736 625 713 655 q 746 599 745 613 l 750 595 q 782 637 764 621 q 871 672 820 672 q 959 633 924 674 q 983 635 967 635 q 1076 836 1017 741 q 1115 873 1090 860 q 1167 885 1140 886 q 1249 864 1210 884 q 1276 822 1274 851 q 1275 820 1276 821 q 1275 819 1275 819 q 1470 822 1326 822 q 1514 822 1485 822 q 1556 823 1542 823 q 1671 841 1615 823 q 1726 829 1702 853 q 1763 774 1747 802 q 1773 720 1784 751 q 1761 696 1767 707 q 1789 684 1777 695 q 1805 657 1802 673 q 1807 646 1807 650 q 1827 648 1817 648 q 1898 618 1868 650 q 1940 658 1916 640 q 2042 694 1985 692 q 2121 672 2084 694 q 2178 614 2157 651 q 2212 535 2210 580 m 447 226 q 452 390 435 296 q 499 567 468 484 q 570 714 531 649 q 642 801 609 780 q 633 805 638 802 q 613 811 628 807 q 586 816 599 816 q 559 811 573 817 q 536 791 545 805 q 460 648 491 719 q 417 527 430 576 q 400 431 404 477 q 397 363 395 385 q 401 325 398 341 q 371 405 381 359 q 360 490 360 450 q 362 565 359 530 q 368 621 364 600 l 372 642 q 357 656 366 648 q 330 678 349 665 q 302 688 311 691 q 233 490 286 682 q 163 467 193 481 q 118 436 133 452 q 95 406 104 420 q 84 382 85 391 l 82 373 q 218 429 104 405 q 199 347 203 373 q 198 277 193 304 q 215 234 203 249 q 241 212 228 219 q 264 204 254 205 l 274 203 q 257 283 258 233 q 268 383 256 333 q 292 479 279 433 q 316 553 305 525 l 328 583 q 347 401 331 487 q 447 226 365 295 m 905 364 q 926 330 908 342 q 964 320 943 317 q 959 330 962 323 q 951 363 956 336 q 955 430 947 391 q 992 585 967 503 q 976 585 986 585 q 947 578 966 585 q 921 561 927 572 q 878 471 897 516 q 839 397 859 427 q 795 365 810 353 q 797 421 785 374 q 833 514 810 469 q 875 580 859 566 q 921 584 890 593 q 903 614 928 603 q 838 614 871 629 q 817 600 826 609 q 747 450 763 534 q 701 404 732 420 q 711 481 712 441 q 688 568 709 545 q 632 587 667 591 q 696 594 662 606 q 693 597 695 595 q 685 606 691 600 q 673 617 680 612 q 657 628 667 622 q 638 637 648 635 q 617 641 629 640 q 595 637 606 643 q 541 575 568 628 q 500 458 513 522 q 499 359 488 394 q 528 313 508 331 q 571 289 547 294 q 621 296 594 283 q 670 340 648 309 q 693 380 684 361 q 741 409 721 388 q 742 365 739 385 q 800 323 749 321 q 852 372 822 325 q 903 465 883 418 l 923 511 q 905 364 899 440 m 1217 310 q 1213 314 1215 311 q 1204 328 1210 317 q 1196 351 1199 338 q 1193 386 1193 364 q 1200 433 1194 408 q 1247 576 1216 503 l 1200 598 q 1183 597 1192 602 q 1042 438 1095 531 q 1126 675 1070 559 q 1225 819 1181 791 q 1217 823 1222 821 q 1197 830 1212 825 q 1170 834 1182 834 q 1142 829 1157 835 q 1120 810 1128 823 q 1006 527 1038 677 q 983 363 986 444 q 997 335 985 349 q 1019 314 1008 321 l 1029 307 q 1083 458 1034 391 q 1173 553 1122 515 q 1166 536 1171 547 q 1153 496 1162 526 q 1138 441 1143 467 q 1133 387 1133 415 q 1143 342 1133 358 q 1178 308 1160 316 q 1206 305 1196 300 l 1217 310 m 1317 262 q 1305 313 1305 281 q 1313 386 1304 345 q 1335 469 1322 426 q 1365 557 1348 511 q 1399 641 1383 604 q 1432 712 1415 677 q 1588 716 1582 715 q 1649 742 1622 721 q 1689 793 1676 762 q 1556 772 1624 772 q 1451 771 1527 771 q 1325 770 1374 772 q 1250 766 1276 769 q 1188 735 1215 758 q 1150 678 1162 711 q 1261 705 1203 705 q 1354 709 1297 708 q 1310 591 1353 704 q 1251 410 1267 477 q 1257 324 1238 366 q 1317 262 1276 282 m 1851 448 q 1876 503 1869 479 q 1881 539 1883 527 q 1872 566 1879 551 q 1842 595 1864 588 q 1799 592 1819 604 q 1693 498 1733 558 q 1756 646 1754 644 l 1737 646 q 1674 618 1689 643 q 1611 440 1645 536 l 1605 423 q 1552 393 1569 401 q 1585 490 1564 433 q 1622 585 1607 547 l 1638 623 q 1562 600 1580 620 q 1526 548 1558 595 q 1465 468 1493 500 q 1426 442 1436 435 q 1453 522 1414 450 q 1510 621 1493 593 q 1490 620 1502 621 q 1452 608 1477 618 q 1417 581 1427 598 q 1400 547 1407 561 q 1385 515 1394 533 q 1372 483 1377 496 q 1364 456 1367 469 q 1361 432 1360 442 q 1367 416 1362 422 q 1394 405 1375 405 q 1438 417 1413 404 q 1482 454 1462 429 l 1554 550 q 1493 367 1520 444 q 1452 342 1478 357 q 1414 320 1426 327 q 1386 297 1403 313 q 1354 262 1369 282 q 1329 206 1333 234 q 1338 161 1326 178 q 1380 146 1351 145 q 1444 174 1409 148 q 1485 218 1467 189 q 1511 270 1502 246 q 1537 347 1520 293 q 1540 354 1539 351 q 1542 360 1541 356 q 1544 367 1543 363 q 1594 395 1577 387 q 1556 269 1571 334 q 1563 223 1550 248 q 1590 184 1575 199 l 1604 169 q 1639 340 1596 195 q 1697 476 1659 411 q 1765 549 1723 518 q 1820 570 1807 579 q 1822 538 1826 563 q 1806 491 1817 513 q 1753 425 1789 451 q 1674 396 1717 399 q 1685 389 1678 393 q 1714 378 1692 385 q 1756 374 1735 372 q 1803 394 1776 376 q 1851 448 1830 412 m 2024 591 q 2070 617 2048 616 q 2092 598 2093 617 q 2064 551 2091 578 q 1989 534 2030 525 q 2012 508 1997 517 q 2046 500 2028 498 q 2104 526 2081 500 q 2124 587 2127 551 q 2100 625 2123 608 q 2043 644 2077 642 q 1969 618 2009 646 q 1911 553 1935 593 q 1887 468 1887 513 q 1923 393 1887 422 q 1985 379 1949 374 q 2053 403 2021 385 q 2104 441 2085 421 q 2117 489 2117 463 q 2081 450 2105 469 q 2031 421 2056 431 q 1985 408 2007 410 q 1955 419 1963 406 q 1963 499 1939 446 q 2024 591 1988 552 m 575 497 q 596 430 576 460 q 649 383 616 399 q 616 316 635 332 q 574 308 597 301 q 554 369 555 313 q 566 467 553 424 q 575 497 574 495 m 1021 -157 q 997 -149 1007 -159 q 989 -128 988 -140 q 994 -106 989 -117 q 1031 -83 1005 -82 q 1054 -92 1044 -83 q 1062 -113 1063 -100 q 1057 -135 1062 -125 q 1021 -157 1046 -159 m 374 -236 l 421 0 l 1870 0 l 1822 -236 l 374 -236 m 1678 -63 l 1673 -85 l 1710 -85 l 1691 -178 l 1718 -178 l 1737 -85 l 1773 -85 l 1778 -63 l 1678 -63 m 1528 -63 l 1505 -178 l 1531 -178 l 1546 -106 l 1589 -178 l 1611 -178 l 1634 -63 l 1607 -63 l 1593 -135 l 1550 -63 l 1528 -63 m 1349 -95 l 1350 -95 q 1340 -130 1340 -112 q 1347 -157 1340 -145 q 1367 -174 1354 -167 q 1396 -180 1382 -180 q 1434 -171 1416 -180 q 1459 -146 1449 -162 q 1468 -111 1468 -131 q 1461 -85 1468 -96 q 1441 -67 1453 -73 q 1411 -61 1427 -61 q 1375 -70 1392 -61 q 1349 -95 1359 -77 m 1226 -63 l 1203 -178 l 1230 -178 l 1238 -136 l 1291 -136 l 1296 -115 l 1242 -115 l 1249 -84 l 1309 -84 l 1313 -63 l 1226 -63 m 971 -95 q 962 -130 962 -112 q 968 -157 962 -145 q 988 -174 975 -167 q 1018 -180 1004 -180 q 1055 -171 1038 -180 q 1080 -146 1070 -163 q 1089 -111 1089 -131 q 1082 -85 1089 -96 q 1063 -67 1075 -73 q 1034 -61 1049 -61 q 996 -70 1013 -61 q 971 -95 981 -79 m 795 -63 l 772 -178 l 796 -178 l 810 -109 l 834 -166 l 846 -166 l 890 -110 l 876 -178 l 901 -178 l 924 -63 l 901 -63 l 845 -135 l 817 -63 l 795 -63 m 654 -63 l 631 -178 l 721 -178 l 725 -157 l 663 -157 l 667 -130 l 722 -130 l 726 -109 l 672 -109 l 677 -84 l 737 -84 l 742 -63 l 654 -63 m 489 -63 l 466 -178 l 522 -178 q 560 -170 541 -178 q 585 -146 576 -161 q 594 -111 594 -131 q 587 -85 594 -96 q 568 -68 580 -73 q 537 -63 555 -63 l 489 -63 m 1398 -157 q 1375 -149 1385 -158 q 1367 -128 1367 -140 q 1373 -106 1367 -117 q 1387 -90 1378 -96 q 1409 -83 1397 -83 q 1432 -92 1422 -83 q 1440 -113 1441 -100 q 1436 -135 1440 -125 q 1398 -157 1424 -159 m 547 -151 q 523 -156 536 -156 l 497 -156 l 511 -85 l 534 -85 q 559 -92 548 -83 q 567 -113 568 -102 q 562 -135 567 -124 q 547 -151 556 -146 z "},"&":{"ha":2244,"x_min":31,"x_max":2214,"o":"m 1373 252 q 1481 334 1416 308 q 1437 229 1455 263 q 1397 187 1419 195 q 1356 197 1362 175 q 1373 252 1350 219 m 612 522 q 652 508 640 564 q 656 414 661 462 q 655 406 656 410 l 655 406 q 611 458 627 421 q 612 522 596 494 m 2212 535 q 2196 463 2214 497 q 2205 435 2205 450 q 2178 353 2206 391 q 2007 274 2108 280 q 1929 300 1963 273 q 1902 328 1914 312 q 1780 269 1854 271 q 1727 279 1753 269 l 1724 271 q 1689 127 1701 201 q 1687 96 1693 111 q 1666 72 1681 81 q 1635 65 1652 63 q 1607 78 1619 66 q 1562 133 1580 102 q 1510 79 1540 100 q 1411 42 1468 45 q 1325 94 1356 47 q 1288 148 1304 117 q 1278 204 1275 175 q 1276 207 1278 205 q 1273 209 1274 208 q 1233 199 1253 199 q 1177 217 1202 200 q 1138 261 1152 233 q 1128 281 1135 266 q 1126 283 1128 282 q 1124 286 1125 285 q 1122 288 1122 287 q 1116 252 1116 264 q 1100 217 1114 231 q 1065 203 1086 203 q 1041 210 1053 203 q 1023 221 1032 214 q 1012 217 1019 218 q 994 216 1006 216 q 945 227 968 215 q 909 260 923 239 q 840 219 875 221 l 829 219 q 784 228 806 218 q 747 256 762 237 q 694 204 727 224 q 623 184 661 185 q 530 222 567 185 q 534 180 530 202 q 511 130 539 148 q 483 122 498 121 q 455 131 467 122 q 376 225 406 170 q 346 268 359 245 q 355 173 337 220 q 354 123 368 149 q 311 98 340 98 q 217 144 255 100 q 147 278 161 200 q 119 269 134 269 q 102 272 111 269 q 51 315 70 286 q 32 378 31 344 q 34 393 33 385 q 46 422 36 400 q 73 461 57 444 q 120 499 88 479 q 193 532 151 519 q 226 642 212 600 q 251 703 240 684 q 269 727 262 722 q 286 736 275 732 q 306 739 297 739 q 408 677 349 739 q 410 675 409 677 q 412 672 411 674 q 414 669 414 670 q 493 819 448 747 q 583 867 525 869 q 665 846 627 865 q 729 749 709 804 q 705 705 730 720 q 676 675 690 694 q 736 625 712 656 q 746 599 745 612 l 750 595 q 782 637 764 621 q 871 672 820 672 q 959 633 924 674 q 983 635 967 635 q 1076 836 1017 741 q 1115 873 1090 860 q 1167 885 1140 886 q 1249 864 1210 884 q 1276 822 1274 851 l 1276 819 q 1470 822 1326 822 q 1514 822 1485 822 q 1556 823 1542 823 q 1671 841 1615 823 q 1726 829 1702 853 q 1763 774 1747 802 q 1773 720 1784 750 q 1761 696 1769 709 q 1789 684 1777 695 q 1805 657 1802 673 q 1807 646 1807 650 q 1827 648 1817 648 q 1898 618 1868 650 q 1940 658 1916 640 q 2043 694 1985 692 q 2121 672 2085 694 q 2178 614 2157 651 q 2212 535 2210 580 m 447 226 q 452 390 435 296 q 499 567 468 484 q 570 714 531 649 q 642 801 609 780 q 633 805 638 802 q 613 811 628 807 q 586 816 599 816 q 559 811 573 817 q 536 791 545 805 q 460 648 491 719 q 417 527 430 576 q 400 431 404 477 q 397 363 395 385 q 401 325 398 341 q 371 405 381 359 q 360 490 360 450 q 362 565 359 530 q 368 621 364 600 l 372 642 q 367 647 370 644 q 353 660 363 651 q 335 675 343 669 q 317 686 326 681 q 302 688 307 690 q 233 490 286 682 q 163 467 193 481 q 118 436 133 452 q 95 406 104 420 q 84 382 85 391 l 82 373 q 218 429 104 405 q 200 347 205 381 q 199 277 194 304 q 216 234 203 249 q 241 212 228 219 q 264 204 254 205 l 274 203 q 257 283 258 233 q 268 383 256 333 q 292 479 279 433 q 316 553 305 525 l 328 583 q 347 401 331 487 q 447 226 365 295 m 905 364 q 926 330 908 342 q 964 320 943 317 q 959 330 962 323 q 951 363 956 336 q 955 430 947 391 q 992 585 967 503 q 976 585 986 585 q 947 578 966 585 q 921 561 927 572 q 878 471 897 516 q 839 397 859 427 q 795 365 810 353 q 797 421 785 374 q 833 514 810 469 q 875 580 859 566 q 921 584 890 593 q 903 614 928 603 q 838 614 871 629 q 817 600 826 609 q 747 450 763 534 q 701 404 732 420 q 711 481 712 441 q 688 568 709 545 q 632 587 667 591 q 696 594 662 606 q 693 597 695 595 q 685 606 691 600 q 673 617 680 612 q 657 628 667 622 q 638 637 648 635 q 617 641 629 640 q 595 637 606 643 q 541 575 568 628 q 500 458 513 522 q 499 359 488 394 q 528 313 508 331 q 571 289 547 294 q 621 296 594 283 q 670 340 648 309 q 693 380 684 361 q 741 409 721 388 q 742 365 739 385 q 800 323 749 321 q 852 372 822 325 q 903 465 883 418 l 923 511 q 905 364 899 440 m 1217 310 q 1213 314 1215 311 q 1204 328 1210 317 q 1196 351 1199 338 q 1193 386 1193 364 q 1200 433 1194 408 q 1247 576 1216 503 l 1200 598 q 1183 597 1192 602 q 1042 438 1095 531 q 1126 675 1070 559 q 1225 819 1181 791 q 1217 823 1222 821 q 1197 830 1212 825 q 1170 834 1182 834 q 1142 829 1157 835 q 1120 810 1128 823 q 1006 527 1038 677 q 983 363 987 448 q 997 335 985 349 q 1019 314 1008 321 l 1029 307 q 1083 458 1034 391 q 1173 553 1122 515 q 1166 536 1171 547 q 1153 496 1162 526 q 1138 441 1143 467 q 1133 387 1133 415 q 1143 342 1133 358 q 1178 308 1160 316 q 1206 305 1196 300 l 1217 310 m 1317 262 q 1305 313 1305 281 q 1313 386 1304 345 q 1335 469 1322 426 q 1366 558 1348 511 q 1400 641 1384 604 q 1432 712 1415 677 q 1588 716 1582 715 q 1649 742 1622 722 q 1690 793 1676 762 q 1556 772 1625 772 q 1451 771 1527 771 q 1325 770 1374 772 q 1250 766 1276 769 q 1188 735 1215 758 q 1150 678 1162 711 q 1261 705 1203 705 q 1354 709 1297 708 q 1310 591 1353 704 q 1251 410 1267 477 q 1257 324 1238 366 q 1317 262 1276 282 m 1851 448 q 1876 503 1869 479 q 1881 539 1883 527 q 1872 566 1879 551 q 1842 595 1864 588 q 1799 592 1819 604 q 1693 498 1733 558 q 1756 646 1753 644 l 1736 646 q 1674 618 1688 644 q 1611 440 1645 536 l 1605 423 q 1552 393 1569 401 q 1585 490 1564 433 q 1622 585 1607 547 l 1638 623 q 1562 600 1580 620 q 1526 548 1558 595 q 1465 468 1493 500 q 1425 442 1436 435 q 1453 521 1414 450 q 1510 620 1492 593 q 1490 619 1502 620 q 1452 608 1477 618 q 1417 581 1427 598 q 1400 547 1407 561 q 1385 515 1394 533 q 1372 483 1377 496 q 1364 456 1367 469 q 1361 432 1360 442 q 1367 416 1362 422 q 1394 405 1375 405 q 1438 417 1413 404 q 1482 454 1462 429 l 1554 550 q 1493 367 1519 444 q 1452 342 1478 358 q 1414 320 1425 327 q 1386 297 1403 313 q 1354 262 1369 282 q 1329 206 1333 234 q 1338 161 1326 178 q 1380 146 1351 145 q 1444 174 1409 148 q 1486 220 1468 190 q 1512 272 1504 251 q 1539 353 1520 292 q 1542 360 1541 357 q 1544 367 1544 363 q 1594 395 1577 387 q 1556 269 1571 334 q 1563 223 1550 248 q 1590 184 1575 199 l 1604 169 q 1639 340 1596 195 q 1697 476 1659 411 q 1765 549 1723 518 q 1820 570 1807 579 q 1822 538 1826 563 q 1806 491 1817 513 q 1753 425 1789 451 q 1674 396 1717 399 q 1685 389 1678 393 q 1714 378 1692 385 q 1756 374 1735 372 q 1803 394 1776 376 q 1851 448 1830 412 m 2024 591 q 2070 617 2048 616 q 2092 598 2093 617 q 2064 551 2091 578 q 1989 534 2030 525 q 2012 508 1997 517 q 2046 500 2028 498 q 2104 526 2081 500 q 2124 587 2127 551 q 2100 625 2123 608 q 2043 644 2077 642 q 1969 618 2009 646 q 1911 553 1935 593 q 1887 468 1887 513 q 1923 393 1887 422 q 1985 379 1949 374 q 2053 403 2021 385 q 2104 441 2085 421 q 2117 489 2117 463 q 2081 450 2105 469 q 2031 421 2056 431 q 1985 408 2007 410 q 1955 419 1963 406 q 1963 499 1939 446 q 2024 591 1988 552 m 576 497 q 596 430 577 460 q 649 383 616 399 q 616 316 635 332 q 574 308 597 301 q 554 369 555 313 q 566 467 553 424 q 576 497 570 481 m 1021 -157 q 997 -149 1007 -159 q 989 -128 988 -140 q 994 -106 989 -117 q 1031 -83 1005 -82 q 1054 -92 1044 -82 q 1062 -113 1063 -100 q 1057 -135 1062 -125 q 1021 -157 1046 -159 m 374 -236 l 421 0 l 1870 0 l 1822 -236 l 374 -236 m 1678 -63 l 1673 -85 l 1710 -85 l 1691 -178 l 1718 -178 l 1737 -85 l 1773 -85 l 1778 -63 l 1678 -63 m 1528 -63 l 1505 -178 l 1531 -178 l 1546 -106 l 1589 -178 l 1611 -178 l 1634 -63 l 1607 -63 l 1593 -135 l 1550 -63 l 1528 -63 m 1349 -95 q 1340 -130 1340 -111 q 1347 -157 1340 -145 q 1367 -174 1354 -168 q 1396 -180 1381 -180 q 1434 -171 1416 -180 q 1459 -146 1449 -162 q 1468 -111 1468 -131 q 1461 -85 1468 -96 q 1441 -67 1453 -73 q 1411 -61 1427 -61 q 1375 -70 1392 -61 q 1349 -95 1359 -77 m 1226 -63 l 1203 -178 l 1230 -178 l 1238 -136 l 1291 -136 l 1296 -115 l 1242 -115 l 1249 -84 l 1309 -84 l 1313 -63 l 1226 -63 m 971 -95 q 962 -130 962 -112 q 968 -157 962 -145 q 988 -174 976 -168 q 1018 -180 1002 -180 q 1055 -171 1038 -180 q 1080 -146 1070 -163 q 1089 -111 1089 -131 q 1082 -85 1089 -96 q 1063 -67 1075 -73 q 1033 -61 1049 -61 q 996 -70 1013 -61 q 971 -95 982 -77 m 795 -63 l 772 -178 l 796 -178 l 810 -109 l 834 -166 l 846 -166 l 890 -110 l 876 -178 l 901 -178 l 924 -63 l 901 -63 l 845 -135 l 817 -63 l 795 -63 m 655 -63 l 632 -178 l 721 -178 l 726 -157 l 663 -157 l 668 -130 l 722 -130 l 726 -109 l 672 -109 l 677 -84 l 737 -84 l 742 -63 l 655 -63 m 489 -63 l 467 -178 l 522 -178 q 560 -170 541 -178 q 585 -146 576 -161 q 594 -111 594 -131 q 587 -85 594 -96 q 568 -68 580 -73 q 538 -63 555 -63 l 489 -63 m 1398 -157 q 1375 -149 1385 -158 q 1367 -128 1367 -140 q 1373 -106 1367 -117 q 1409 -83 1383 -82 q 1432 -92 1422 -83 q 1440 -113 1441 -100 q 1436 -135 1440 -125 q 1398 -157 1424 -159 m 547 -151 q 523 -156 536 -156 l 497 -156 l 511 -85 l 534 -85 q 559 -92 548 -83 q 567 -113 568 -102 q 562 -135 567 -124 q 547 -151 556 -146 z "},"'":{"ha":2243,"x_min":31,"x_max":2214,"o":"m 1373 252 q 1481 334 1415 307 q 1437 229 1455 263 q 1397 187 1419 195 q 1356 197 1362 175 q 1373 252 1350 219 m 612 522 q 651 509 639 564 q 656 416 661 463 l 654 406 l 654 406 q 611 458 626 421 q 612 522 596 494 m 2212 535 q 2197 463 2214 496 q 2205 435 2205 451 q 2178 353 2206 391 q 2007 274 2108 280 q 1929 300 1963 273 q 1902 328 1917 309 q 1780 269 1855 271 q 1727 279 1753 269 q 1726 275 1727 277 q 1725 271 1725 273 q 1689 127 1700 198 q 1687 96 1693 111 q 1666 72 1681 81 q 1635 65 1652 63 q 1607 78 1619 66 q 1562 132 1579 103 q 1511 79 1541 100 q 1412 41 1468 45 q 1325 94 1357 47 q 1289 148 1305 115 q 1278 203 1276 176 q 1276 206 1278 204 q 1274 209 1274 208 q 1233 199 1253 199 q 1177 217 1202 200 q 1138 261 1152 233 q 1128 281 1135 266 q 1126 283 1128 282 q 1124 286 1125 285 q 1122 288 1122 287 q 1116 252 1117 268 q 1101 217 1116 231 q 1065 203 1086 203 q 1041 209 1053 203 q 1023 221 1036 212 q 1012 217 1019 218 q 994 215 1002 215 q 946 226 968 214 q 909 260 924 238 q 841 219 876 221 l 829 219 q 748 256 779 216 q 694 204 728 224 q 623 183 661 184 q 530 222 568 184 q 534 180 530 202 q 511 130 539 147 q 483 122 498 121 q 455 131 467 122 q 376 225 406 170 q 347 268 359 247 q 355 173 338 220 q 354 123 369 149 q 311 98 340 98 q 217 144 255 100 q 147 277 161 200 q 119 269 136 269 q 102 271 109 269 q 51 314 70 285 q 32 378 31 344 q 34 393 33 385 q 46 422 36 400 q 73 461 57 444 q 120 499 88 479 q 193 532 151 519 q 226 642 212 600 q 251 703 240 684 q 269 727 262 722 q 286 736 275 732 q 306 739 297 739 q 408 677 348 739 q 414 669 410 675 q 493 818 447 745 q 532 854 508 842 q 583 867 556 867 q 665 846 626 866 q 729 749 709 804 q 705 705 730 720 q 676 675 690 694 q 736 625 713 655 q 746 599 745 613 q 748 597 747 598 q 750 595 749 596 q 782 637 764 621 q 871 672 820 672 q 959 633 924 674 q 983 635 971 635 q 1076 836 1017 741 q 1115 873 1090 860 q 1167 885 1140 886 q 1249 864 1210 884 q 1276 822 1274 851 q 1275 820 1276 821 q 1275 819 1275 819 q 1470 822 1326 822 l 1556 822 q 1671 840 1615 822 q 1689 844 1683 844 q 1725 829 1710 844 q 1763 774 1746 802 q 1773 720 1784 750 q 1760 696 1769 709 q 1789 684 1776 695 q 1805 657 1801 673 q 1806 646 1806 650 q 1827 648 1816 648 q 1898 618 1869 650 q 1939 658 1916 641 q 2042 694 1984 692 q 2121 672 2084 694 q 2178 614 2157 651 q 2212 535 2210 580 m 447 226 q 452 390 435 296 q 499 567 468 484 q 570 714 531 649 q 642 801 609 780 q 633 805 638 802 q 613 811 628 807 q 586 816 599 816 q 559 811 573 817 q 536 791 545 805 q 460 648 491 719 q 417 527 430 576 q 400 431 404 477 q 397 363 395 385 q 401 325 398 341 q 371 405 381 359 q 360 490 360 450 q 362 565 359 530 q 368 621 364 600 l 372 642 q 367 647 370 644 q 353 660 363 651 q 335 675 343 669 q 317 686 326 681 q 302 688 307 690 q 233 490 286 682 q 163 467 193 481 q 118 436 133 452 q 95 406 104 420 q 84 382 85 391 l 82 373 q 217 429 104 406 q 199 347 205 381 q 198 277 193 304 q 215 234 203 249 q 241 212 228 219 q 264 204 254 205 l 274 203 q 257 283 258 233 q 268 383 256 333 q 292 479 279 433 q 316 553 305 525 l 328 583 q 347 401 331 487 q 447 226 365 295 m 905 364 q 925 330 908 342 q 964 320 943 317 q 962 323 964 321 q 957 334 960 326 q 952 354 954 343 q 950 386 950 366 q 954 430 950 406 q 991 585 966 503 q 976 585 985 585 q 946 578 966 585 q 921 561 927 572 q 877 472 897 516 q 838 397 858 427 q 813 367 823 375 q 795 365 804 358 q 797 421 785 374 q 833 514 810 469 q 875 580 859 566 q 921 584 890 593 q 903 614 928 603 q 836 614 870 629 q 816 600 825 608 q 747 450 762 534 q 701 404 732 420 q 711 481 712 444 q 688 568 709 545 q 632 587 667 591 q 696 594 662 606 q 693 597 695 595 q 685 606 691 600 q 673 617 679 612 q 657 628 667 622 q 638 637 647 635 q 617 641 629 640 q 594 637 605 643 q 540 575 568 628 q 500 458 513 522 q 498 359 487 394 q 527 313 507 331 q 570 289 547 294 q 621 296 593 283 q 670 340 648 309 q 693 380 684 361 q 741 409 720 387 q 742 365 739 388 q 800 323 749 319 q 852 372 822 325 q 903 465 883 418 l 923 511 q 905 364 899 440 m 1217 310 q 1213 314 1215 311 q 1204 328 1210 317 q 1196 351 1199 338 q 1193 386 1193 364 q 1200 433 1194 408 q 1246 576 1217 507 l 1200 598 q 1183 597 1192 602 q 1042 438 1095 531 q 1125 675 1070 559 q 1225 819 1181 791 q 1216 823 1221 821 q 1196 830 1211 825 q 1169 834 1181 834 q 1142 829 1156 835 q 1119 810 1127 823 q 1006 527 1038 679 q 983 363 986 444 q 997 335 985 349 q 1018 314 1008 321 l 1028 307 q 1083 458 1034 389 q 1173 553 1122 515 q 1166 536 1171 547 q 1153 496 1162 526 q 1138 441 1143 467 q 1133 387 1133 415 q 1143 342 1133 358 q 1178 308 1160 316 q 1206 305 1196 300 l 1217 310 m 1316 262 q 1304 313 1305 281 q 1313 386 1303 345 q 1334 469 1322 426 q 1365 558 1347 511 q 1399 641 1383 604 q 1431 712 1415 677 q 1588 716 1552 713 q 1649 742 1622 721 q 1689 793 1676 762 q 1556 772 1624 772 q 1450 771 1527 771 q 1324 770 1373 772 q 1249 766 1276 769 q 1188 735 1215 758 q 1149 678 1161 711 q 1261 705 1202 705 q 1354 709 1297 708 q 1309 590 1352 703 q 1251 410 1266 477 q 1256 324 1238 366 q 1316 262 1275 282 m 1851 448 q 1875 503 1869 479 q 1881 539 1882 527 q 1872 566 1879 551 q 1841 595 1864 588 q 1799 592 1818 604 q 1693 498 1732 558 q 1756 646 1753 644 l 1736 646 q 1674 618 1688 643 q 1610 441 1644 536 q 1604 423 1606 429 q 1552 393 1569 402 q 1585 490 1564 433 q 1622 585 1607 547 l 1637 623 q 1561 600 1579 620 q 1525 548 1557 595 q 1464 468 1493 500 q 1425 442 1436 435 q 1453 522 1414 450 q 1510 621 1493 595 q 1489 620 1501 621 q 1451 608 1476 618 q 1417 581 1426 598 q 1400 547 1407 561 q 1384 515 1393 533 q 1371 483 1376 496 q 1363 456 1367 469 q 1361 432 1360 442 q 1367 416 1362 422 q 1394 405 1375 405 q 1437 417 1413 404 q 1481 454 1461 429 l 1554 550 q 1493 367 1519 444 q 1451 342 1478 357 q 1414 320 1425 327 q 1385 297 1402 313 q 1354 262 1369 282 q 1329 206 1332 234 q 1338 161 1325 178 q 1379 146 1350 145 q 1444 174 1408 148 q 1484 218 1466 189 q 1510 270 1501 246 q 1537 347 1519 293 q 1539 354 1538 351 q 1541 360 1540 356 q 1544 367 1542 363 q 1594 395 1575 387 q 1556 269 1571 334 q 1562 223 1550 248 q 1588 184 1574 199 l 1603 169 q 1638 340 1596 195 q 1697 476 1659 411 q 1764 549 1722 518 q 1819 570 1806 579 q 1821 538 1825 563 q 1805 491 1816 513 q 1753 425 1788 451 q 1674 396 1717 399 q 1685 389 1678 393 q 1714 378 1692 385 q 1756 374 1735 372 q 1803 394 1776 376 q 1851 448 1830 412 m 2024 591 q 2076 616 2052 621 q 2091 593 2094 613 q 2063 551 2087 573 q 1988 534 2030 525 q 2012 508 1996 517 q 2046 500 2028 498 q 2104 526 2081 500 q 2124 587 2127 551 q 2100 625 2123 608 q 2043 644 2077 642 q 1969 618 2009 646 q 1924 571 1944 600 q 1893 512 1904 543 q 1889 448 1882 480 q 1923 394 1896 416 q 1985 380 1949 374 q 2053 404 2021 386 q 2104 441 2085 421 q 2117 489 2117 463 q 2080 450 2104 469 q 2031 421 2056 431 q 1984 408 2006 410 q 1954 419 1962 406 q 1963 498 1939 446 q 2024 591 1988 551 m 575 497 q 596 430 576 460 q 649 383 616 399 q 616 316 635 332 q 574 308 597 301 q 554 369 555 313 q 566 467 553 424 q 575 497 572 487 m 1020 -157 q 997 -149 1007 -158 q 989 -128 988 -140 q 994 -106 989 -115 q 1031 -83 1005 -82 q 1054 -92 1044 -83 q 1062 -113 1063 -100 q 1057 -135 1062 -125 q 1020 -157 1046 -159 m 374 -236 l 421 0 l 1869 0 l 1822 -236 l 374 -236 m 1678 -63 l 1673 -85 l 1710 -85 l 1691 -178 l 1718 -178 l 1737 -85 l 1773 -85 l 1778 -63 l 1678 -63 m 1528 -63 l 1505 -178 l 1531 -178 l 1546 -106 l 1589 -178 l 1611 -178 l 1634 -63 l 1607 -63 l 1593 -135 l 1550 -63 l 1528 -63 m 1349 -95 q 1340 -130 1340 -111 q 1347 -156 1340 -144 q 1367 -174 1354 -168 q 1396 -180 1382 -180 q 1433 -171 1415 -180 q 1459 -146 1449 -163 q 1468 -111 1468 -131 q 1461 -85 1468 -96 q 1441 -67 1453 -73 q 1411 -61 1427 -61 q 1374 -70 1391 -61 q 1349 -95 1359 -79 m 1226 -63 l 1203 -178 l 1230 -178 l 1238 -136 l 1291 -136 l 1295 -115 l 1242 -115 l 1249 -84 l 1308 -84 l 1313 -63 l 1226 -63 m 970 -95 q 962 -130 962 -111 q 968 -156 962 -144 q 988 -174 976 -168 q 1018 -180 1004 -180 q 1055 -171 1038 -180 q 1080 -146 1071 -162 q 1089 -111 1089 -131 q 1082 -85 1089 -96 q 1063 -67 1075 -73 q 1033 -61 1048 -61 q 996 -70 1013 -61 q 970 -95 980 -79 m 794 -63 l 771 -178 l 796 -178 l 810 -109 l 833 -166 l 846 -166 l 890 -110 l 876 -178 l 901 -178 l 924 -63 l 901 -63 l 845 -135 l 816 -63 l 794 -63 m 654 -63 l 631 -178 l 721 -178 l 725 -157 l 663 -157 l 668 -130 l 722 -130 l 726 -109 l 672 -109 l 677 -84 l 737 -84 l 742 -63 l 654 -63 m 489 -63 l 466 -178 l 522 -178 q 559 -170 541 -178 q 585 -146 577 -160 q 594 -111 594 -131 q 587 -85 594 -96 q 568 -68 580 -73 q 537 -63 555 -63 l 489 -63 m 1398 -157 q 1375 -149 1385 -158 q 1367 -128 1367 -140 q 1372 -106 1367 -115 q 1387 -90 1377 -96 q 1409 -83 1397 -83 q 1432 -92 1422 -82 q 1440 -113 1441 -100 q 1435 -135 1440 -124 q 1398 -157 1424 -159 m 547 -151 q 523 -156 536 -156 l 497 -156 l 511 -85 l 534 -85 q 558 -92 547 -84 q 567 -113 568 -102 q 562 -135 567 -124 q 547 -151 556 -146 z "},"(":{"ha":2244,"x_min":31,"x_max":2214,"o":"m 1373 252 q 1481 334 1416 308 q 1437 229 1455 263 q 1397 187 1419 195 q 1356 197 1362 175 q 1373 252 1350 219 m 612 522 q 651 509 639 564 q 656 416 661 463 l 654 406 l 654 406 q 611 458 626 421 q 612 522 596 494 m 2212 535 q 2196 463 2214 497 q 2205 435 2205 450 q 2178 353 2206 391 q 2007 274 2108 280 q 1929 300 1963 273 q 1902 328 1915 311 q 1780 269 1855 271 q 1727 279 1753 269 q 1726 275 1727 277 q 1725 271 1725 273 q 1689 127 1700 198 q 1687 96 1693 111 q 1666 72 1681 81 q 1635 65 1652 63 q 1607 78 1619 66 q 1562 133 1580 102 q 1510 79 1540 100 q 1412 42 1468 45 q 1325 94 1356 47 q 1288 148 1304 117 q 1278 204 1275 175 q 1276 207 1278 205 q 1274 209 1274 208 q 1233 199 1253 199 q 1177 217 1202 200 q 1138 261 1152 233 q 1128 281 1135 266 q 1126 283 1128 282 q 1124 286 1125 285 q 1122 288 1122 287 q 1116 252 1117 268 q 1101 217 1116 231 q 1065 203 1086 203 q 1041 210 1053 203 q 1023 221 1032 214 q 1012 217 1019 218 q 994 216 1006 216 q 946 227 968 215 q 909 260 924 239 q 841 219 876 221 l 829 219 q 748 256 779 216 q 694 204 728 224 q 623 184 661 185 q 530 222 567 185 q 534 180 530 202 q 511 130 539 147 q 483 122 498 121 q 455 131 467 122 q 376 225 406 170 q 347 268 359 247 q 355 173 338 220 q 354 123 369 149 q 311 98 340 98 q 217 144 255 100 q 147 277 161 200 q 119 269 136 269 q 102 272 111 269 q 51 315 70 286 q 32 378 31 344 q 34 393 33 385 q 46 422 36 400 q 73 461 57 444 q 120 499 88 479 q 193 532 151 519 q 226 642 212 600 q 251 703 240 684 q 269 727 262 722 q 286 736 275 732 q 306 739 297 739 q 408 677 349 739 q 410 675 409 677 q 412 672 411 674 q 414 669 414 670 q 493 819 448 747 q 583 867 525 869 q 665 846 627 865 q 729 749 709 804 q 705 705 730 720 q 676 675 690 694 q 736 625 713 655 q 746 599 745 613 q 748 597 747 598 q 750 595 749 596 q 782 637 764 621 q 871 672 820 672 q 959 633 924 674 q 983 635 967 635 q 1076 836 1017 741 q 1115 873 1090 860 q 1167 885 1140 886 q 1249 864 1210 884 q 1276 822 1274 851 q 1275 820 1276 821 q 1275 819 1275 819 q 1470 822 1326 822 q 1514 822 1485 822 q 1556 823 1542 823 q 1671 841 1615 823 q 1726 829 1702 853 q 1763 774 1747 802 q 1773 720 1784 751 q 1761 696 1767 707 q 1789 684 1777 695 q 1805 657 1802 673 q 1807 646 1807 650 q 1827 648 1817 648 q 1898 618 1869 650 q 1940 658 1914 640 q 2042 694 1985 692 q 2121 672 2084 694 q 2178 614 2157 651 q 2212 535 2210 580 m 447 226 q 452 390 435 296 q 499 567 468 484 q 570 714 531 649 q 642 801 609 780 q 633 805 638 802 q 613 811 628 807 q 586 816 599 816 q 559 811 573 817 q 536 791 545 805 q 460 648 491 719 q 417 527 430 576 q 400 431 404 477 q 397 363 395 385 q 401 325 398 341 q 371 405 381 359 q 360 490 360 450 q 362 565 359 530 q 368 621 364 600 l 372 642 q 357 656 366 648 q 330 678 349 665 q 302 688 311 691 q 233 490 286 682 q 163 467 193 481 q 118 436 133 452 q 95 406 104 420 q 84 382 85 391 l 82 373 q 218 429 104 405 q 199 347 203 373 q 198 277 193 304 q 215 234 203 249 q 241 212 228 219 q 264 204 254 205 l 274 203 q 257 283 258 233 q 268 383 256 333 q 292 479 279 433 q 316 553 305 525 l 328 583 q 347 401 331 487 q 447 226 365 295 m 905 364 q 926 330 908 342 q 964 320 943 317 q 959 330 962 323 q 951 363 956 336 q 955 430 947 391 q 992 585 967 503 q 976 585 986 585 q 947 578 966 585 q 921 561 927 572 q 878 471 897 516 q 839 397 859 427 q 795 365 810 353 q 797 421 785 374 q 833 514 810 469 q 875 580 859 566 q 921 584 890 593 q 903 614 928 603 q 838 614 871 630 q 817 601 826 610 q 747 450 763 535 q 701 404 732 420 q 711 481 712 441 q 688 568 709 545 q 632 587 667 591 q 696 594 662 606 q 693 597 695 595 q 685 606 691 600 q 673 617 679 612 q 657 628 667 622 q 638 637 647 635 q 617 641 629 640 q 594 637 605 643 q 541 575 568 628 q 500 458 513 522 q 499 359 488 394 q 528 313 508 331 q 571 289 547 294 q 621 296 594 283 q 670 340 648 309 q 693 380 684 361 q 741 409 721 388 q 742 365 739 385 q 800 323 749 319 q 852 372 822 325 q 903 465 883 418 l 923 511 q 905 364 899 440 m 1217 310 q 1213 314 1215 311 q 1204 328 1210 317 q 1196 351 1199 338 q 1193 386 1193 364 q 1200 433 1194 408 q 1247 576 1216 503 l 1200 598 q 1183 597 1192 602 q 1042 438 1095 531 q 1126 675 1070 559 q 1225 819 1181 791 q 1217 823 1222 821 q 1197 830 1212 825 q 1170 834 1182 834 q 1142 829 1157 835 q 1120 810 1128 823 q 1006 527 1038 677 q 983 363 986 444 q 997 335 985 349 q 1019 314 1008 321 l 1029 307 q 1083 458 1034 391 q 1173 553 1122 515 q 1166 536 1171 547 q 1153 496 1162 526 q 1138 441 1143 467 q 1133 387 1133 415 q 1143 342 1133 358 q 1178 308 1160 316 q 1206 305 1196 300 l 1217 310 m 1317 262 q 1305 313 1305 281 q 1313 386 1304 345 q 1335 469 1322 426 q 1365 557 1348 511 q 1399 641 1383 604 q 1432 712 1415 677 q 1588 716 1552 713 q 1649 742 1622 721 q 1689 793 1676 762 q 1556 772 1624 772 q 1451 771 1527 771 q 1325 770 1374 772 q 1250 766 1276 769 q 1188 735 1215 758 q 1150 678 1162 711 q 1261 705 1203 705 q 1354 709 1297 708 q 1310 591 1353 704 q 1251 410 1267 477 q 1257 324 1238 366 q 1317 262 1276 282 m 1851 448 q 1876 503 1869 479 q 1881 539 1883 527 q 1872 566 1879 551 q 1842 595 1864 588 q 1799 592 1819 604 q 1693 498 1733 558 q 1756 646 1753 644 l 1736 646 q 1674 618 1688 644 q 1611 441 1645 536 l 1605 423 q 1552 393 1569 401 q 1585 490 1564 433 q 1622 585 1607 547 l 1638 623 q 1562 600 1580 620 q 1526 548 1558 595 q 1465 468 1493 500 q 1425 442 1436 435 q 1453 521 1413 450 q 1510 621 1492 593 q 1490 620 1502 621 q 1452 608 1477 618 q 1417 581 1427 598 q 1400 547 1407 561 q 1385 515 1394 533 q 1372 483 1377 496 q 1364 456 1367 469 q 1361 432 1360 442 q 1367 416 1362 422 q 1394 405 1375 405 q 1438 417 1413 404 q 1482 454 1462 429 l 1554 550 q 1493 367 1519 444 q 1452 342 1478 358 q 1414 320 1425 327 q 1386 297 1403 313 q 1354 262 1369 282 q 1329 206 1333 234 q 1338 161 1326 178 q 1380 146 1351 145 q 1444 174 1409 148 q 1485 218 1467 189 q 1511 270 1502 246 q 1537 347 1520 293 q 1540 354 1539 351 q 1542 360 1541 356 q 1544 367 1543 363 q 1594 395 1577 387 q 1556 269 1571 334 q 1563 223 1550 248 q 1590 184 1575 199 l 1604 169 q 1639 340 1596 195 q 1697 476 1659 411 q 1765 549 1723 518 q 1820 570 1807 579 q 1822 538 1826 563 q 1806 491 1817 513 q 1753 425 1789 451 q 1674 396 1717 399 q 1685 389 1678 393 q 1714 378 1692 385 q 1756 374 1735 372 q 1803 394 1776 376 q 1851 448 1830 412 m 2024 591 q 2070 617 2048 616 q 2092 598 2093 617 q 2064 551 2091 578 q 1989 534 2030 525 q 2012 508 1997 517 q 2046 500 2028 498 q 2104 526 2081 500 q 2124 587 2127 551 q 2100 625 2123 608 q 2043 644 2077 642 q 1969 618 2009 646 q 1911 553 1935 593 q 1887 468 1887 513 q 1923 394 1887 423 q 1985 380 1949 374 q 2053 404 2021 386 q 2104 441 2085 421 q 2117 489 2117 463 q 2081 450 2105 469 q 2031 421 2056 431 q 1985 408 2007 410 q 1955 419 1963 406 q 1963 499 1939 446 q 2024 591 1988 552 m 575 497 q 596 430 576 460 q 649 383 616 399 q 616 316 635 332 q 574 308 597 301 q 554 369 555 313 q 566 467 553 424 q 575 497 572 487 m 1021 -157 q 997 -149 1007 -159 q 989 -128 988 -140 q 994 -106 989 -117 q 1031 -83 1005 -82 q 1054 -92 1044 -83 q 1062 -113 1063 -100 q 1057 -135 1062 -125 q 1021 -157 1046 -159 m 374 -236 l 421 0 l 1870 0 l 1822 -236 l 374 -236 m 1678 -63 l 1674 -85 l 1710 -85 l 1691 -178 l 1718 -178 l 1737 -85 l 1773 -85 l 1778 -63 l 1678 -63 m 1528 -63 l 1505 -178 l 1531 -178 l 1546 -106 l 1589 -178 l 1611 -178 l 1634 -63 l 1607 -63 l 1593 -135 l 1550 -63 l 1528 -63 m 1349 -95 q 1340 -130 1340 -111 q 1347 -156 1340 -144 q 1367 -174 1354 -168 q 1396 -180 1382 -180 q 1434 -171 1416 -180 q 1459 -146 1449 -162 q 1468 -111 1468 -131 q 1461 -85 1468 -96 q 1441 -67 1453 -73 q 1411 -61 1427 -61 q 1375 -70 1392 -61 q 1349 -95 1358 -79 m 1226 -63 l 1203 -178 l 1230 -178 l 1238 -136 l 1291 -136 l 1296 -115 l 1242 -115 l 1249 -84 l 1309 -84 l 1313 -63 l 1226 -63 m 971 -95 q 962 -130 962 -112 q 968 -156 962 -144 q 988 -174 976 -168 q 1018 -180 1004 -180 q 1055 -171 1038 -180 q 1080 -146 1070 -163 q 1089 -111 1089 -131 q 1082 -85 1089 -96 q 1063 -67 1075 -73 q 1034 -61 1049 -61 q 996 -70 1013 -61 q 971 -95 981 -79 m 795 -63 l 772 -178 l 796 -178 l 810 -109 l 834 -166 l 846 -166 l 890 -110 l 876 -178 l 901 -178 l 924 -63 l 901 -63 l 845 -135 l 817 -63 l 795 -63 m 654 -63 l 631 -178 l 721 -178 l 726 -157 l 663 -157 l 668 -130 l 722 -130 l 726 -109 l 672 -109 l 677 -84 l 737 -84 l 742 -63 l 654 -63 m 489 -63 l 466 -178 l 522 -178 q 560 -170 541 -178 q 585 -146 576 -161 q 594 -111 594 -131 q 587 -85 594 -96 q 568 -68 580 -73 q 537 -63 555 -63 l 489 -63 m 1398 -157 q 1375 -149 1385 -159 q 1367 -128 1367 -140 q 1373 -106 1367 -117 q 1387 -90 1378 -96 q 1409 -83 1397 -83 q 1432 -92 1422 -82 q 1440 -113 1441 -100 q 1436 -135 1440 -125 q 1398 -157 1424 -159 m 547 -151 q 523 -156 536 -156 l 497 -156 l 511 -85 l 534 -85 q 559 -92 548 -83 q 567 -113 568 -102 q 562 -135 567 -124 q 547 -151 556 -146 z "},")":{"ha":2244,"x_min":31,"x_max":2214,"o":"m 1373 252 q 1481 334 1416 308 q 1437 229 1455 263 q 1397 187 1419 195 q 1356 197 1362 175 q 1373 252 1350 219 m 612 522 q 651 508 639 564 q 656 414 661 462 q 655 406 656 410 l 655 406 q 611 458 627 421 q 612 522 596 494 m 2212 535 q 2197 463 2214 496 q 2205 435 2205 451 q 2178 353 2206 391 q 2007 274 2108 280 q 1929 300 1963 273 q 1902 328 1917 310 q 1780 270 1855 271 q 1727 279 1751 270 q 1726 275 1727 277 q 1725 271 1725 273 q 1689 127 1700 197 q 1687 96 1693 111 q 1666 72 1681 81 q 1635 65 1652 63 q 1607 78 1619 66 q 1562 133 1580 102 q 1511 79 1540 99 q 1412 42 1468 45 q 1325 94 1356 47 q 1288 148 1304 117 q 1278 204 1275 175 q 1276 207 1278 205 q 1274 209 1274 208 q 1233 199 1253 199 q 1177 217 1202 200 q 1138 261 1152 233 q 1128 281 1135 266 q 1126 283 1128 282 q 1124 286 1125 285 q 1122 288 1122 287 q 1116 252 1117 268 q 1101 217 1116 231 q 1065 203 1086 203 q 1041 210 1053 203 q 1023 221 1032 214 q 1012 217 1019 218 q 994 216 1006 216 q 946 227 968 215 q 909 260 924 239 q 841 219 876 221 l 829 219 q 748 256 779 216 q 694 204 728 224 q 623 184 661 185 q 530 222 567 185 q 534 180 530 202 q 511 130 539 147 q 483 122 498 121 q 455 131 467 122 q 376 225 406 170 q 347 268 359 247 q 355 173 338 220 q 354 123 369 149 q 311 98 340 98 q 217 144 255 100 q 147 277 161 200 q 119 269 136 269 q 102 272 111 269 q 51 315 70 286 q 32 378 31 344 q 34 393 33 385 q 46 422 36 400 q 73 461 57 444 q 120 499 88 479 q 193 532 151 519 q 226 642 212 600 q 251 703 240 684 q 269 727 262 722 q 286 736 275 732 q 306 739 297 739 q 408 677 349 739 q 410 675 409 677 q 412 672 411 674 q 414 669 414 670 q 493 819 448 747 q 583 867 525 869 q 665 846 627 865 q 729 749 709 804 q 705 705 730 720 q 676 675 690 694 q 736 625 713 655 q 746 599 745 613 q 748 597 747 598 q 750 595 749 596 q 782 637 764 621 q 871 672 820 672 q 959 633 924 674 q 983 635 967 635 q 1076 836 1017 741 q 1115 873 1090 860 q 1167 885 1140 886 q 1249 864 1210 884 q 1276 822 1274 851 q 1275 820 1276 821 q 1275 819 1275 819 q 1470 822 1326 822 q 1514 822 1485 822 q 1556 823 1542 823 q 1671 841 1615 823 q 1726 829 1702 853 q 1763 774 1747 802 q 1773 720 1784 751 q 1761 696 1767 707 q 1789 684 1777 695 q 1805 657 1802 673 q 1807 646 1807 650 q 1827 648 1817 648 q 1898 618 1869 650 q 1940 658 1914 640 q 2042 694 1985 692 q 2121 672 2084 694 q 2178 614 2157 651 q 2212 535 2210 580 m 447 226 q 452 390 435 296 q 499 567 468 484 q 570 714 531 649 q 642 801 609 780 q 633 805 638 802 q 613 811 628 807 q 586 816 599 816 q 559 811 573 817 q 536 791 545 805 q 460 648 491 719 q 417 527 430 576 q 400 431 404 477 q 397 363 395 385 q 401 325 398 341 q 371 405 381 359 q 360 490 360 450 q 362 565 359 530 q 368 621 364 600 l 372 642 q 357 656 366 648 q 330 678 349 665 q 302 688 311 691 q 233 490 286 682 q 163 467 193 481 q 118 436 133 452 q 95 406 104 420 q 84 382 85 391 l 82 373 q 218 429 104 405 q 199 347 203 373 q 198 277 193 304 q 215 234 203 249 q 241 212 228 219 q 264 204 254 205 l 274 203 q 257 283 258 233 q 268 383 256 333 q 292 479 279 433 q 316 553 305 525 l 328 583 q 347 401 331 487 q 447 226 365 295 m 905 364 q 926 330 908 342 q 964 320 943 317 q 959 330 962 323 q 951 363 956 336 q 955 430 947 391 q 992 585 967 503 q 976 585 986 585 q 947 578 966 585 q 921 561 927 572 q 878 471 897 516 q 839 397 859 427 q 795 365 810 353 q 797 421 785 374 q 833 514 810 469 q 875 580 859 566 q 921 584 890 593 q 903 614 928 603 q 838 614 871 630 q 817 601 826 610 q 747 450 763 535 q 701 404 732 420 q 711 481 712 441 q 688 568 709 545 q 632 587 667 591 q 696 594 662 606 q 693 597 695 595 q 685 606 691 600 q 673 617 680 612 q 657 628 667 622 q 638 637 648 635 q 617 641 629 640 q 595 637 606 643 q 541 575 568 628 q 500 458 513 522 q 499 359 488 394 q 528 313 508 331 q 571 289 547 294 q 621 296 594 283 q 670 340 648 309 q 693 380 684 361 q 741 409 721 388 q 742 365 739 385 q 800 323 749 319 q 852 372 822 325 q 903 465 883 418 l 923 511 q 905 364 899 440 m 1217 310 q 1213 314 1215 311 q 1204 328 1210 317 q 1196 351 1199 338 q 1193 386 1193 364 q 1200 433 1194 408 q 1246 576 1217 507 l 1200 598 q 1183 597 1192 602 q 1042 438 1095 531 q 1125 675 1070 559 q 1225 819 1181 791 q 1216 823 1221 821 q 1196 830 1211 825 q 1169 834 1181 834 q 1142 829 1156 835 q 1119 810 1127 823 q 1006 527 1038 679 q 983 363 986 444 q 997 335 985 349 q 1018 314 1008 321 l 1028 307 q 1083 458 1034 389 q 1173 554 1122 516 q 1166 537 1171 548 q 1153 496 1162 526 q 1138 441 1143 467 q 1133 387 1133 415 q 1143 342 1133 358 q 1178 308 1160 316 q 1206 305 1196 300 l 1217 310 m 1316 262 l 1317 262 q 1305 313 1305 281 q 1313 386 1304 345 q 1335 469 1322 426 q 1365 558 1348 511 q 1399 641 1383 604 q 1431 712 1415 677 q 1588 716 1552 713 q 1649 742 1622 721 q 1689 793 1676 762 q 1556 772 1624 772 q 1451 771 1527 771 q 1325 770 1374 772 q 1249 766 1276 769 q 1188 735 1215 758 q 1150 678 1162 711 q 1261 705 1203 705 q 1354 709 1297 708 q 1310 591 1353 704 q 1251 410 1267 477 q 1257 324 1238 366 q 1316 262 1275 282 m 1851 448 q 1876 503 1869 479 q 1881 539 1883 527 q 1872 566 1879 551 q 1841 595 1864 588 q 1799 592 1818 604 q 1693 498 1732 558 q 1756 646 1753 644 l 1736 646 q 1674 618 1688 643 q 1610 441 1644 536 l 1604 423 q 1552 393 1566 400 q 1585 490 1564 433 q 1622 585 1607 547 l 1637 623 q 1562 600 1580 620 q 1526 548 1558 595 q 1465 468 1493 500 q 1425 442 1436 435 q 1453 521 1413 450 q 1510 621 1492 593 q 1490 620 1502 621 q 1452 608 1477 618 q 1417 581 1426 598 q 1369 475 1384 517 q 1367 416 1354 433 q 1394 405 1375 405 q 1437 417 1413 404 q 1481 454 1461 429 l 1554 550 q 1493 367 1519 444 q 1452 342 1478 358 q 1414 320 1425 327 q 1386 297 1403 313 q 1354 262 1369 282 q 1329 206 1333 234 q 1338 161 1326 178 q 1379 146 1350 145 q 1444 174 1408 148 q 1495 234 1476 197 q 1539 351 1513 272 q 1544 367 1542 361 q 1594 395 1577 387 q 1556 269 1571 334 q 1562 223 1550 248 q 1588 184 1574 199 l 1603 169 q 1639 340 1596 195 q 1697 476 1659 413 q 1764 549 1721 518 q 1820 570 1807 579 q 1821 538 1826 562 q 1805 491 1817 513 q 1753 425 1788 451 q 1674 396 1717 399 q 1685 389 1678 393 q 1714 378 1692 385 q 1756 374 1735 372 q 1803 394 1776 376 q 1851 448 1830 412 m 2024 591 q 2076 616 2052 621 q 2091 593 2094 613 q 2063 551 2087 573 q 1988 534 2030 525 q 2012 508 1996 517 q 2046 500 2028 498 q 2104 526 2081 500 q 2124 587 2127 551 q 2100 625 2123 608 q 2043 644 2077 642 q 1969 618 2009 646 q 1911 553 1935 593 q 1887 468 1887 513 q 1923 394 1887 423 q 1985 380 1949 374 q 2053 404 2021 386 q 2104 441 2085 421 q 2117 489 2117 463 q 2081 450 2105 469 q 2031 421 2056 431 q 1984 408 2006 410 q 1954 419 1962 406 q 1963 498 1939 446 q 2024 591 1988 551 m 575 497 q 596 430 576 460 q 649 383 616 399 q 616 316 635 332 q 574 308 597 301 q 554 369 555 313 q 566 467 553 424 q 575 497 572 487 m 1021 -157 q 997 -149 1007 -159 q 989 -128 988 -140 q 994 -106 989 -117 q 1031 -83 1005 -82 q 1054 -92 1044 -83 q 1062 -113 1063 -100 q 1057 -135 1062 -125 q 1021 -157 1046 -159 m 374 -236 l 421 0 l 1870 0 l 1822 -236 l 374 -236 m 1678 -63 l 1673 -85 l 1710 -85 l 1691 -178 l 1718 -178 l 1737 -85 l 1773 -85 l 1778 -63 l 1678 -63 m 1528 -63 l 1505 -178 l 1531 -178 l 1546 -106 l 1589 -178 l 1611 -178 l 1634 -63 l 1607 -63 l 1593 -135 l 1550 -63 l 1528 -63 m 1349 -95 q 1340 -130 1340 -111 q 1347 -156 1340 -144 q 1367 -174 1354 -168 q 1396 -180 1382 -180 q 1434 -171 1416 -180 q 1459 -146 1449 -162 q 1468 -111 1468 -131 q 1461 -85 1468 -96 q 1441 -67 1453 -73 q 1411 -61 1427 -61 q 1375 -70 1392 -61 q 1349 -95 1358 -79 m 1226 -63 l 1203 -178 l 1230 -178 l 1238 -136 l 1291 -136 l 1296 -115 l 1242 -115 l 1249 -84 l 1309 -84 l 1313 -63 l 1226 -63 m 971 -95 q 962 -130 962 -112 q 968 -156 962 -144 q 988 -174 976 -168 q 1018 -180 1004 -180 q 1055 -171 1038 -180 q 1080 -146 1070 -163 q 1089 -111 1089 -131 q 1082 -85 1089 -96 q 1063 -67 1075 -73 q 1034 -61 1049 -61 q 996 -70 1013 -61 q 971 -95 981 -79 m 795 -63 l 772 -178 l 796 -178 l 810 -109 l 834 -166 l 846 -166 l 890 -110 l 876 -178 l 901 -178 l 924 -63 l 901 -63 l 845 -135 l 817 -63 l 795 -63 m 654 -63 l 631 -178 l 721 -178 l 726 -157 l 663 -157 l 668 -130 l 722 -130 l 726 -109 l 672 -109 l 677 -84 l 737 -84 l 742 -63 l 654 -63 m 489 -63 l 466 -178 l 522 -178 q 560 -170 541 -178 q 585 -146 576 -161 q 594 -111 594 -131 q 587 -85 594 -96 q 568 -68 580 -73 q 537 -63 555 -63 l 489 -63 m 1398 -157 q 1375 -149 1385 -159 q 1367 -128 1367 -140 q 1373 -106 1367 -117 q 1387 -90 1378 -96 q 1409 -83 1397 -83 q 1432 -92 1422 -82 q 1440 -113 1441 -100 q 1436 -135 1440 -125 q 1398 -157 1424 -159 m 547 -151 q 523 -156 536 -156 l 497 -156 l 511 -85 l 534 -85 q 559 -92 548 -83 q 567 -113 568 -102 q 562 -135 567 -124 q 547 -151 556 -146 z "},"*":{"ha":2244,"x_min":31,"x_max":2214,"o":"m 1373 252 q 1481 334 1416 308 q 1437 229 1455 263 q 1397 187 1419 195 q 1356 197 1362 175 q 1373 252 1350 219 m 612 522 q 651 509 639 564 q 656 416 661 463 l 654 406 l 654 406 q 611 458 626 421 q 612 522 596 494 m 2212 535 q 2196 463 2214 497 q 2205 435 2205 450 q 2178 353 2206 391 q 2007 274 2108 280 q 1929 300 1963 273 q 1902 328 1919 308 q 1780 269 1855 271 q 1727 279 1753 269 q 1726 275 1727 277 q 1725 271 1725 273 q 1689 127 1700 197 q 1687 96 1693 111 q 1666 72 1681 81 q 1635 65 1652 63 q 1607 78 1619 66 q 1562 133 1580 102 q 1511 79 1540 99 q 1412 42 1468 45 q 1325 94 1356 47 q 1288 148 1304 117 q 1278 204 1275 175 q 1276 207 1278 205 q 1274 209 1274 208 q 1233 199 1253 199 q 1177 217 1202 200 q 1138 261 1152 233 q 1128 281 1135 266 q 1126 283 1128 282 q 1124 286 1125 285 q 1122 288 1122 287 q 1116 252 1117 268 q 1100 217 1115 231 q 1065 203 1086 203 q 1041 210 1053 203 q 1023 221 1032 214 q 1012 217 1019 218 q 994 216 1006 216 q 946 227 968 215 q 909 260 924 239 q 841 219 885 223 l 829 219 q 748 256 779 216 q 694 204 728 224 q 623 184 661 185 q 530 222 567 185 q 534 180 530 202 q 511 130 539 147 q 483 122 498 121 q 455 131 467 122 q 376 225 406 170 q 347 268 359 247 q 355 173 338 220 q 354 123 369 149 q 311 98 340 98 q 217 144 255 100 q 147 278 161 200 q 119 269 134 269 q 102 272 111 269 q 51 315 70 286 q 32 378 31 344 q 34 393 33 385 q 46 422 36 400 q 73 461 57 444 q 120 499 88 479 q 193 532 151 519 q 226 642 212 600 q 251 703 240 684 q 269 727 262 722 q 286 736 275 732 q 306 739 297 739 q 408 677 349 739 q 410 675 409 677 q 412 672 411 674 q 414 669 414 670 q 493 819 448 747 q 583 867 525 869 q 665 846 627 865 q 729 749 709 804 q 705 705 730 720 q 676 675 690 694 q 736 625 713 655 q 746 599 745 613 l 750 595 q 782 637 764 621 q 871 672 820 672 q 959 633 924 674 q 983 635 967 635 q 1076 836 1017 741 q 1115 873 1090 860 q 1167 885 1140 886 q 1249 864 1210 884 q 1276 822 1274 851 q 1275 820 1276 821 q 1275 819 1275 819 q 1470 822 1326 822 q 1514 822 1485 822 q 1556 823 1542 823 q 1671 841 1615 823 q 1726 829 1702 853 q 1763 774 1747 802 q 1773 720 1784 751 q 1761 696 1767 707 q 1789 684 1777 695 q 1805 657 1802 673 q 1807 646 1807 650 q 1827 648 1817 648 q 1898 618 1868 650 q 1940 658 1916 640 q 2042 694 1985 692 q 2121 672 2084 694 q 2178 614 2157 651 q 2212 535 2210 580 m 447 226 q 452 390 435 296 q 499 567 468 484 q 570 714 531 649 q 642 801 609 780 q 633 805 638 802 q 613 811 628 807 q 586 816 599 816 q 559 811 573 817 q 536 791 545 805 q 460 648 491 719 q 417 527 430 576 q 400 431 404 477 q 397 363 395 385 q 401 325 398 341 q 371 405 381 359 q 360 490 360 450 q 362 565 359 530 q 368 621 364 600 l 372 642 q 357 656 366 648 q 330 678 349 665 q 302 688 311 691 q 233 490 286 682 q 163 467 193 481 q 118 436 133 452 q 95 406 104 420 q 84 382 85 391 l 82 373 q 218 429 104 405 q 199 347 203 373 q 198 277 193 304 q 215 234 203 249 q 241 212 228 219 q 264 204 254 205 l 274 203 q 257 283 258 233 q 268 383 256 333 q 292 479 279 433 q 316 553 305 525 l 328 583 q 347 401 331 487 q 447 226 365 295 m 905 364 q 926 330 908 342 q 964 320 943 317 q 959 330 962 323 q 951 363 956 336 q 955 430 947 391 q 992 585 967 503 q 976 585 986 585 q 947 578 966 585 q 921 561 927 572 q 878 471 897 516 q 839 397 859 427 q 795 365 810 353 q 797 421 785 374 q 833 514 810 469 q 875 580 859 566 q 921 584 890 593 q 903 614 928 603 q 838 614 871 629 q 817 600 826 609 q 747 450 763 534 q 701 404 732 420 q 711 481 712 441 q 688 568 709 545 q 632 587 667 591 q 696 594 662 606 q 693 597 695 595 q 685 606 691 600 q 673 617 679 612 q 657 628 667 622 q 638 637 647 635 q 617 641 629 640 q 594 637 605 643 q 541 575 568 628 q 500 458 513 522 q 499 359 488 394 q 528 313 508 331 q 571 289 547 294 q 621 296 594 283 q 670 340 648 309 q 693 380 684 361 q 741 409 721 388 q 742 365 739 385 q 800 323 749 321 q 852 372 822 325 q 903 465 883 418 l 923 511 q 905 364 899 440 m 1217 310 q 1213 314 1215 311 q 1204 328 1210 317 q 1196 351 1199 338 q 1193 386 1193 364 q 1200 433 1194 408 q 1246 576 1217 507 l 1200 598 q 1183 597 1192 602 q 1042 438 1095 531 q 1125 675 1070 559 q 1225 819 1181 791 q 1216 823 1221 821 q 1196 830 1211 825 q 1169 834 1181 834 q 1142 829 1156 835 q 1119 810 1127 823 q 1006 527 1038 679 q 983 363 986 444 q 997 335 985 349 q 1018 314 1008 321 l 1028 307 q 1083 458 1034 389 q 1173 553 1122 515 q 1166 536 1171 547 q 1153 496 1162 526 q 1138 441 1143 467 q 1133 387 1133 415 q 1143 342 1133 358 q 1178 308 1160 316 q 1206 305 1196 300 l 1217 310 m 1316 262 l 1317 262 q 1305 313 1305 281 q 1313 386 1304 345 q 1335 469 1322 426 q 1365 558 1348 511 q 1399 641 1383 604 q 1431 712 1415 677 q 1588 716 1583 715 q 1649 742 1622 721 q 1689 793 1676 762 q 1556 772 1624 772 q 1450 771 1527 771 q 1324 770 1373 772 q 1249 766 1276 769 q 1188 735 1215 758 q 1150 678 1162 711 q 1261 705 1203 705 q 1354 709 1297 708 q 1310 591 1353 704 q 1251 410 1267 477 q 1257 324 1238 366 q 1316 262 1275 282 m 1851 448 q 1876 503 1869 479 q 1881 539 1883 527 q 1872 566 1879 551 q 1841 595 1864 588 q 1799 592 1818 604 q 1693 498 1732 558 q 1756 646 1753 644 l 1736 646 q 1674 618 1688 643 q 1610 440 1644 536 l 1604 423 q 1552 393 1566 400 q 1585 490 1564 433 q 1622 585 1607 547 l 1637 623 q 1562 600 1580 620 q 1526 548 1558 595 q 1465 468 1493 500 q 1425 442 1436 435 q 1453 522 1414 450 q 1510 621 1493 595 q 1489 620 1501 621 q 1451 608 1476 618 q 1417 581 1426 598 q 1369 475 1384 517 q 1367 416 1354 433 q 1394 405 1375 405 q 1437 417 1413 404 q 1481 454 1461 429 l 1554 550 q 1493 367 1519 444 q 1452 342 1478 358 q 1414 320 1425 327 q 1386 297 1403 313 q 1354 262 1369 282 q 1329 206 1333 234 q 1338 161 1326 178 q 1379 146 1350 145 q 1444 174 1408 148 q 1495 234 1476 197 q 1539 351 1513 272 q 1544 367 1542 361 q 1594 395 1577 387 q 1556 269 1571 334 q 1562 223 1550 248 q 1588 184 1574 199 l 1603 169 q 1639 340 1596 195 q 1697 476 1659 413 q 1764 549 1721 518 q 1820 570 1807 579 q 1821 538 1826 562 q 1805 491 1817 513 q 1753 425 1788 451 q 1674 396 1717 399 q 1685 389 1678 393 q 1714 378 1692 385 q 1756 374 1735 372 q 1803 394 1776 376 q 1851 448 1830 412 m 2024 591 q 2076 616 2052 621 q 2091 593 2094 613 q 2063 551 2087 573 q 1988 534 2030 525 q 2012 508 1996 517 q 2046 500 2028 498 q 2104 526 2081 500 q 2124 587 2127 551 q 2100 625 2123 608 q 2043 644 2077 642 q 1969 618 2009 646 q 1911 553 1935 593 q 1887 468 1887 513 q 1923 393 1887 422 q 1985 379 1949 374 q 2053 403 2021 385 q 2104 441 2085 421 q 2117 489 2117 463 q 2081 450 2105 469 q 2031 421 2056 431 q 1984 408 2006 410 q 1954 419 1962 406 q 1963 498 1939 446 q 2024 591 1988 551 m 575 497 q 596 430 576 460 q 649 383 616 399 q 616 316 635 332 q 574 308 597 301 q 554 369 555 313 q 566 467 553 424 q 575 497 574 495 m 1021 -157 q 997 -149 1007 -159 q 989 -128 988 -140 q 994 -106 989 -117 q 1031 -83 1005 -82 q 1054 -92 1044 -83 q 1063 -113 1063 -101 q 1057 -135 1063 -124 q 1021 -157 1046 -159 m 374 -236 l 421 0 l 1870 0 l 1822 -236 l 374 -236 m 1678 -63 l 1673 -85 l 1710 -85 l 1691 -178 l 1718 -178 l 1737 -85 l 1773 -85 l 1778 -63 l 1678 -63 m 1528 -63 l 1505 -178 l 1531 -178 l 1546 -106 l 1589 -178 l 1611 -178 l 1634 -63 l 1607 -63 l 1593 -135 l 1550 -63 l 1528 -63 m 1349 -95 q 1340 -130 1340 -111 q 1347 -156 1340 -144 q 1367 -174 1354 -168 q 1396 -180 1382 -180 q 1434 -171 1416 -180 q 1459 -146 1449 -162 q 1468 -111 1468 -131 q 1461 -85 1468 -96 q 1441 -67 1453 -73 q 1411 -61 1427 -61 q 1375 -70 1392 -61 q 1349 -95 1359 -77 m 1226 -63 l 1203 -178 l 1230 -178 l 1238 -136 l 1291 -136 l 1296 -115 l 1242 -115 l 1249 -84 l 1309 -84 l 1313 -63 l 1226 -63 m 971 -95 q 962 -130 962 -112 q 968 -157 962 -145 q 988 -174 975 -167 q 1018 -180 1004 -180 q 1055 -171 1038 -180 q 1080 -146 1070 -163 q 1089 -111 1089 -131 q 1082 -85 1089 -96 q 1063 -67 1075 -73 q 1034 -61 1049 -61 q 996 -70 1013 -61 q 971 -95 981 -79 m 795 -63 l 772 -178 l 796 -178 l 810 -109 l 834 -166 l 846 -166 l 890 -110 l 876 -178 l 901 -178 l 924 -63 l 901 -63 l 845 -135 l 817 -63 l 795 -63 m 654 -63 l 631 -178 l 721 -178 l 725 -157 l 663 -157 l 668 -130 l 722 -130 l 726 -109 l 672 -109 l 677 -84 l 737 -84 l 742 -63 l 654 -63 m 489 -63 l 466 -178 l 522 -178 q 560 -170 541 -178 q 585 -146 576 -161 q 594 -111 594 -131 q 587 -85 594 -96 q 568 -68 580 -73 q 537 -63 555 -63 l 489 -63 m 1398 -157 q 1375 -149 1385 -158 q 1367 -128 1367 -140 q 1373 -106 1367 -117 q 1387 -90 1378 -96 q 1409 -83 1397 -83 q 1432 -92 1422 -83 q 1440 -113 1441 -100 q 1436 -135 1440 -125 q 1398 -157 1424 -159 m 547 -151 q 523 -156 536 -156 l 497 -156 l 511 -85 l 534 -85 q 559 -92 548 -83 q 567 -113 568 -102 q 562 -135 567 -124 q 547 -151 556 -146 z "},"+":{"ha":2244,"x_min":31,"x_max":2214,"o":"m 1373 252 q 1481 334 1416 308 q 1437 229 1455 263 q 1397 187 1419 195 q 1356 197 1362 175 q 1373 252 1350 219 m 612 522 q 651 509 639 564 q 656 416 661 463 l 654 406 l 654 406 q 611 458 626 421 q 612 522 596 494 m 2212 535 q 2197 463 2214 496 q 2205 435 2205 451 q 2178 353 2206 391 q 2007 274 2108 280 q 1929 300 1963 273 q 1902 328 1914 312 q 1780 269 1855 271 q 1727 279 1753 269 l 1725 271 q 1689 127 1700 198 q 1687 96 1693 111 q 1666 72 1681 81 q 1635 65 1652 63 q 1607 78 1619 66 q 1562 132 1579 103 q 1511 79 1541 100 q 1412 41 1468 45 q 1325 94 1357 47 q 1289 148 1305 115 q 1278 203 1276 176 q 1276 206 1278 204 q 1274 209 1274 208 q 1233 199 1253 199 q 1177 217 1202 200 q 1138 261 1152 233 q 1128 281 1135 266 q 1126 283 1128 282 q 1124 286 1125 285 q 1122 288 1122 287 q 1116 252 1117 268 q 1101 217 1116 231 q 1065 203 1086 203 q 1041 209 1053 203 q 1023 221 1036 212 q 1012 217 1019 218 q 994 215 1002 215 q 946 226 968 214 q 909 260 924 238 q 841 219 876 221 l 829 219 q 748 256 779 216 q 694 204 728 224 q 623 183 661 184 q 530 222 568 184 q 534 180 530 202 q 511 130 539 147 q 483 122 498 121 q 455 131 467 122 q 376 225 406 170 q 347 268 361 243 q 355 173 338 220 q 354 123 369 149 q 311 98 340 98 q 217 144 255 100 q 147 277 161 200 q 119 269 136 269 q 102 271 109 269 q 51 314 70 285 q 32 378 31 344 q 34 393 33 385 q 46 422 36 400 q 73 461 57 444 q 120 499 88 479 q 193 532 151 519 q 226 642 212 600 q 251 703 240 684 q 269 727 262 722 q 286 736 275 732 q 306 739 297 739 q 408 677 348 739 q 414 669 410 675 q 493 818 447 745 q 532 854 508 842 q 583 867 556 867 q 665 846 626 866 q 729 749 709 804 q 705 705 730 720 q 676 675 690 694 q 736 625 713 655 q 746 599 745 613 l 750 595 q 782 637 764 621 q 871 672 820 672 q 959 633 924 674 q 983 635 971 635 q 1077 836 1017 739 q 1116 873 1091 860 q 1167 885 1140 886 q 1249 864 1210 884 q 1276 822 1274 851 l 1276 819 q 1470 822 1326 822 l 1556 822 q 1672 840 1615 822 q 1690 844 1684 844 q 1726 829 1710 844 q 1763 774 1744 806 q 1773 720 1784 750 q 1760 696 1769 709 q 1789 684 1776 695 q 1805 657 1801 673 q 1806 646 1806 650 q 1827 648 1816 648 q 1898 618 1869 650 q 1940 658 1914 640 q 2042 694 1985 692 q 2121 672 2084 694 q 2178 614 2157 651 q 2212 535 2210 580 m 447 226 q 452 390 435 296 q 499 567 468 484 q 570 714 531 649 q 642 801 609 780 q 633 805 638 802 q 613 811 628 807 q 586 816 599 816 q 559 811 573 817 q 536 791 545 805 q 460 648 491 719 q 417 527 430 576 q 400 431 404 477 q 397 363 395 385 q 401 325 398 341 q 371 405 381 359 q 360 490 360 450 q 362 565 359 530 q 368 621 364 600 l 372 642 q 367 647 370 644 q 353 660 363 651 q 335 675 343 669 q 317 686 326 681 q 302 688 307 690 q 233 490 286 682 q 163 467 193 481 q 118 436 133 452 q 95 406 104 420 q 84 382 85 391 l 82 373 q 218 429 104 405 q 199 347 203 373 q 198 277 193 304 q 215 234 203 249 q 241 212 228 219 q 264 204 254 205 l 274 203 q 257 283 258 233 q 268 383 256 333 q 292 479 279 433 q 316 553 305 525 l 328 583 q 347 401 331 487 q 447 226 365 295 m 905 364 q 926 330 908 342 q 964 320 943 317 q 962 323 964 321 q 957 334 960 326 q 952 354 954 343 q 950 386 950 366 q 954 430 950 406 q 991 585 966 503 q 976 585 985 585 q 946 578 966 585 q 921 561 927 572 q 877 472 897 516 q 838 397 858 427 q 813 367 823 375 q 795 365 804 358 q 797 421 785 374 q 833 514 810 469 q 875 580 859 566 q 921 584 890 593 q 903 614 928 603 q 838 614 871 629 q 817 600 826 609 q 747 450 762 533 q 701 404 732 419 q 711 481 712 441 q 688 568 709 545 q 632 587 667 591 q 696 594 662 606 q 693 597 695 595 q 685 606 691 600 q 673 617 679 612 q 657 628 667 622 q 638 637 647 635 q 617 641 629 640 q 594 637 605 643 q 541 575 568 628 q 500 458 513 522 q 499 359 488 394 q 528 313 508 331 q 571 289 547 294 q 621 296 594 283 q 670 340 648 309 q 693 380 684 361 q 741 409 720 387 q 742 365 739 388 q 800 323 749 319 q 852 372 822 325 q 903 465 883 418 l 923 511 q 905 364 899 440 m 1217 310 q 1213 314 1215 311 q 1204 328 1210 317 q 1196 351 1199 338 q 1193 386 1193 364 q 1200 433 1194 408 q 1247 576 1216 503 l 1200 598 q 1183 597 1192 602 q 1042 438 1095 531 q 1126 675 1070 559 q 1225 819 1181 791 q 1217 823 1222 821 q 1197 830 1212 825 q 1170 834 1182 834 q 1142 829 1157 835 q 1120 810 1128 823 q 1006 527 1038 677 q 983 363 986 444 q 997 335 985 349 q 1019 314 1008 321 l 1029 307 q 1083 458 1034 391 q 1173 553 1122 515 q 1166 536 1171 547 q 1153 496 1162 526 q 1138 441 1143 467 q 1133 387 1133 415 q 1143 342 1133 358 q 1178 308 1160 316 q 1206 305 1196 300 l 1217 310 m 1316 262 q 1304 313 1305 281 q 1313 386 1303 345 q 1335 469 1322 426 q 1365 558 1348 511 q 1399 641 1383 604 q 1432 712 1415 677 q 1588 716 1552 713 q 1649 742 1622 721 q 1689 793 1676 762 q 1556 772 1624 772 q 1451 771 1527 771 q 1325 770 1374 772 q 1250 766 1276 769 q 1188 735 1215 758 q 1150 678 1162 711 q 1261 705 1203 705 q 1354 709 1297 708 q 1310 591 1353 704 q 1251 410 1267 477 q 1257 324 1238 366 q 1316 262 1275 282 m 1851 448 q 1876 503 1869 479 q 1881 539 1883 527 q 1872 566 1879 551 q 1841 595 1864 588 q 1799 592 1818 604 q 1693 498 1733 559 q 1756 646 1753 644 l 1736 646 q 1674 618 1688 644 q 1610 441 1644 536 l 1604 423 q 1552 393 1569 402 q 1585 490 1564 433 q 1622 585 1607 547 l 1637 623 q 1562 600 1580 620 q 1526 548 1558 595 q 1465 468 1493 500 q 1425 442 1436 435 q 1453 522 1414 450 q 1510 621 1493 594 q 1490 620 1502 621 q 1452 608 1477 618 q 1417 581 1427 598 q 1400 547 1407 561 q 1385 515 1394 533 q 1372 483 1377 496 q 1364 456 1367 469 q 1361 432 1360 442 q 1367 416 1362 422 q 1394 405 1375 405 q 1438 417 1413 404 q 1482 454 1462 429 l 1554 550 q 1493 367 1519 444 q 1452 342 1478 358 q 1414 320 1425 327 q 1386 297 1403 313 q 1354 262 1369 282 q 1329 206 1333 234 q 1338 161 1326 178 q 1379 146 1350 145 q 1444 174 1408 148 q 1495 234 1476 197 q 1539 351 1513 272 q 1544 367 1542 361 q 1594 395 1577 387 q 1556 269 1571 334 q 1562 223 1550 248 q 1588 184 1574 199 l 1603 169 q 1639 340 1596 195 q 1697 476 1659 413 q 1764 549 1721 518 q 1820 570 1807 579 q 1822 538 1826 563 q 1806 491 1817 513 q 1753 425 1789 451 q 1674 396 1717 399 q 1685 389 1678 393 q 1714 378 1692 385 q 1756 374 1735 372 q 1803 394 1776 376 q 1851 448 1830 412 m 2024 591 q 2070 617 2048 616 q 2092 598 2093 617 q 2064 551 2091 578 q 1989 534 2030 525 q 2012 508 1997 517 q 2046 500 2028 498 q 2104 526 2081 500 q 2124 587 2127 551 q 2100 625 2123 608 q 2043 644 2077 642 q 1969 618 2009 646 q 1911 553 1935 593 q 1887 468 1887 513 q 1923 394 1887 423 q 1985 380 1949 374 q 2053 404 2021 386 q 2104 441 2085 421 q 2117 489 2117 463 q 2081 450 2105 469 q 2031 421 2056 431 q 1984 408 2006 410 q 1954 419 1962 406 q 1963 498 1939 446 q 2024 591 1988 551 m 575 497 q 596 430 576 460 q 649 383 616 399 q 616 316 635 332 q 574 308 597 301 q 554 369 555 313 q 566 467 553 424 q 575 497 572 487 m 1020 -157 q 997 -149 1008 -158 q 989 -128 988 -140 q 994 -106 989 -117 q 1031 -83 1005 -82 q 1054 -92 1044 -82 q 1062 -113 1063 -100 q 1057 -135 1062 -125 q 1020 -157 1046 -159 m 374 -236 l 421 0 l 1870 0 l 1822 -236 l 374 -236 m 1678 -63 l 1673 -85 l 1710 -85 l 1691 -178 l 1718 -178 l 1737 -85 l 1773 -85 l 1778 -63 l 1678 -63 m 1528 -63 l 1505 -178 l 1531 -178 l 1546 -106 l 1589 -178 l 1611 -178 l 1634 -63 l 1607 -63 l 1593 -135 l 1550 -63 l 1528 -63 m 1350 -95 l 1349 -95 q 1340 -130 1340 -111 q 1347 -156 1340 -144 q 1367 -174 1354 -168 q 1396 -180 1382 -180 q 1434 -171 1416 -180 q 1459 -146 1449 -163 q 1468 -111 1468 -131 q 1461 -85 1468 -96 q 1442 -67 1453 -73 q 1411 -61 1428 -61 q 1375 -70 1392 -61 q 1350 -95 1360 -79 m 1226 -63 l 1203 -178 l 1230 -178 l 1238 -136 l 1291 -136 l 1296 -115 l 1242 -115 l 1249 -84 l 1309 -84 l 1313 -63 l 1226 -63 m 971 -95 q 962 -130 962 -111 q 968 -156 962 -146 q 988 -174 976 -168 q 1018 -180 1004 -180 q 1055 -171 1038 -180 q 1080 -146 1070 -163 q 1089 -111 1089 -131 q 1082 -85 1089 -96 q 1063 -67 1075 -73 q 1034 -61 1049 -61 q 996 -70 1013 -61 q 971 -95 982 -77 m 795 -63 l 772 -178 l 796 -178 l 810 -109 l 834 -166 l 846 -166 l 890 -110 l 876 -178 l 901 -178 l 924 -63 l 901 -63 l 845 -135 l 817 -63 l 795 -63 m 655 -63 l 631 -178 l 721 -178 l 726 -157 l 663 -157 l 668 -130 l 722 -130 l 726 -109 l 672 -109 l 677 -84 l 737 -84 l 742 -63 l 655 -63 m 490 -63 l 466 -178 l 523 -178 q 560 -170 541 -178 q 585 -146 576 -161 q 594 -111 594 -131 q 587 -85 594 -96 q 568 -68 580 -73 q 538 -63 555 -63 l 490 -63 m 1398 -157 q 1375 -149 1385 -158 q 1367 -128 1367 -140 q 1372 -106 1367 -115 q 1409 -83 1383 -82 q 1432 -92 1422 -83 q 1440 -113 1441 -100 q 1436 -135 1440 -125 q 1398 -157 1424 -159 m 547 -151 q 523 -156 536 -156 l 497 -156 l 511 -85 l 534 -85 q 559 -92 548 -83 q 567 -113 568 -102 q 562 -135 567 -124 q 547 -151 556 -146 z "},",":{"ha":2244,"x_min":31,"x_max":2214,"o":"m 1373 252 q 1481 334 1416 308 q 1437 229 1455 263 q 1397 187 1419 195 q 1356 197 1362 175 q 1373 252 1350 219 m 612 522 q 651 509 639 564 q 656 416 661 463 l 654 406 l 654 406 q 611 458 626 421 q 612 522 596 494 m 2212 535 q 2196 463 2214 497 q 2205 435 2205 450 q 2178 353 2206 391 q 2007 274 2108 280 q 1929 300 1963 273 q 1902 328 1919 308 q 1780 269 1855 271 q 1727 279 1753 269 q 1726 275 1727 277 q 1725 271 1725 273 q 1689 127 1700 197 q 1687 96 1693 111 q 1666 72 1681 81 q 1635 65 1652 63 q 1607 78 1619 66 q 1562 133 1580 102 q 1511 79 1540 99 q 1412 42 1468 45 q 1325 94 1356 47 q 1288 148 1304 117 q 1278 204 1275 175 q 1276 207 1278 205 q 1274 209 1274 208 q 1233 199 1253 199 q 1177 217 1202 200 q 1138 261 1152 233 q 1128 281 1135 266 q 1126 283 1128 282 q 1124 286 1125 285 q 1122 288 1122 287 q 1116 252 1117 268 q 1100 217 1115 231 q 1065 203 1086 203 q 1041 210 1053 203 q 1023 221 1032 214 q 1012 217 1019 218 q 994 216 1006 216 q 946 227 968 215 q 909 260 924 239 q 841 219 885 223 l 829 219 q 748 256 779 216 q 694 204 728 224 q 623 184 661 185 q 530 222 567 185 q 534 180 530 202 q 511 130 539 147 q 483 122 498 121 q 455 131 467 122 q 376 225 406 170 q 346 268 356 250 q 355 173 337 222 q 354 123 369 149 q 311 98 340 98 q 217 144 255 100 q 147 278 161 200 q 119 269 134 269 q 102 272 111 269 q 51 315 70 286 q 32 378 31 344 q 34 393 33 385 q 46 422 36 400 q 73 461 57 444 q 120 499 88 479 q 193 532 151 519 q 226 642 212 600 q 251 703 240 684 q 269 727 262 722 q 286 736 275 732 q 306 739 297 739 q 408 677 349 739 q 410 675 409 677 q 412 672 411 674 q 414 669 414 670 q 493 819 448 747 q 583 867 525 869 q 665 846 627 865 q 729 749 709 804 q 705 705 730 720 q 676 675 690 694 q 736 625 713 655 q 746 599 745 613 l 750 595 q 782 637 764 621 q 871 672 820 672 q 959 633 924 674 q 983 635 967 635 q 1076 836 1017 741 q 1115 873 1090 860 q 1167 885 1140 886 q 1249 864 1210 884 q 1276 822 1274 851 q 1275 820 1276 821 q 1275 819 1275 819 q 1470 822 1326 822 q 1514 822 1485 822 q 1556 823 1542 823 q 1671 841 1615 823 q 1726 829 1702 853 q 1763 774 1747 802 q 1773 720 1784 751 q 1761 696 1767 707 q 1789 684 1777 695 q 1805 657 1802 673 q 1807 646 1807 650 q 1827 648 1817 648 q 1898 618 1868 650 q 1940 658 1916 640 q 2042 694 1985 692 q 2121 672 2084 694 q 2178 614 2157 651 q 2212 535 2210 580 m 447 226 q 452 390 435 296 q 499 567 468 484 q 570 714 531 649 q 642 801 609 780 q 633 805 638 802 q 613 811 628 807 q 586 816 599 816 q 559 811 573 817 q 536 791 545 805 q 460 648 491 719 q 417 527 430 576 q 400 431 404 477 q 397 363 395 385 q 401 325 398 341 q 371 405 381 359 q 360 490 360 450 q 362 565 359 530 q 368 621 364 600 l 372 642 q 367 647 370 644 q 353 660 363 651 q 335 675 343 669 q 317 686 326 681 q 302 688 307 690 q 233 490 286 682 q 163 467 193 481 q 118 436 133 452 q 95 406 104 420 q 84 382 85 391 l 82 373 q 218 429 104 405 q 199 347 203 373 q 198 277 193 304 q 215 234 203 249 q 241 212 228 219 q 264 204 254 205 l 274 203 q 257 283 258 233 q 268 383 256 333 q 292 479 279 433 q 316 553 305 525 l 328 583 q 347 401 331 487 q 447 226 365 295 m 905 364 q 926 330 908 342 q 964 320 943 317 q 959 330 962 323 q 951 363 956 336 q 955 430 947 391 q 992 585 967 503 q 976 585 986 585 q 947 578 966 585 q 921 561 927 572 q 878 471 897 516 q 839 397 859 427 q 795 365 810 353 q 797 421 785 374 q 833 514 810 469 q 875 580 859 566 q 921 584 890 593 q 903 614 928 603 q 838 614 871 629 q 817 600 826 609 q 747 450 763 534 q 701 404 732 420 q 711 481 712 441 q 688 568 709 545 q 632 587 667 591 q 696 594 662 606 q 693 597 695 595 q 685 606 691 600 q 673 617 680 612 q 657 628 667 622 q 638 637 648 635 q 617 641 629 640 q 595 637 606 643 q 541 575 568 628 q 500 458 513 522 q 499 359 488 394 q 528 313 508 331 q 571 289 547 294 q 621 296 594 283 q 670 340 648 309 q 693 380 684 361 q 741 409 721 388 q 742 365 739 385 q 800 323 749 321 q 852 372 822 325 q 903 465 883 418 l 923 511 q 905 364 899 440 m 1217 310 q 1213 314 1215 311 q 1204 328 1210 317 q 1196 351 1199 338 q 1193 386 1193 364 q 1200 433 1194 408 q 1247 576 1216 503 l 1200 598 q 1183 597 1192 602 q 1042 438 1095 531 q 1126 675 1070 559 q 1225 819 1181 791 q 1217 823 1222 821 q 1197 830 1212 825 q 1170 834 1182 834 q 1142 829 1157 835 q 1120 810 1128 823 q 1006 527 1038 677 q 983 363 986 444 q 997 335 985 349 q 1019 314 1008 321 l 1029 307 q 1083 458 1034 391 q 1173 553 1122 515 q 1166 536 1171 547 q 1153 496 1162 526 q 1138 441 1143 467 q 1133 387 1133 415 q 1143 342 1133 358 q 1178 308 1160 316 q 1206 305 1196 300 l 1217 310 m 1317 262 q 1305 313 1305 281 q 1313 386 1304 345 q 1335 469 1322 426 q 1365 557 1348 511 q 1399 641 1383 604 q 1432 712 1415 677 q 1588 716 1582 715 q 1649 742 1622 721 q 1689 793 1676 762 q 1556 772 1624 772 q 1451 771 1527 771 q 1325 770 1374 772 q 1250 766 1276 769 q 1188 735 1215 758 q 1150 678 1162 711 q 1261 705 1203 705 q 1354 709 1297 708 q 1310 591 1353 704 q 1251 410 1267 477 q 1257 324 1238 366 q 1317 262 1276 282 m 1851 448 q 1876 503 1869 479 q 1881 539 1883 527 q 1872 566 1879 551 q 1842 595 1864 588 q 1799 592 1819 604 q 1693 498 1733 558 q 1756 646 1753 644 l 1736 646 q 1674 618 1688 644 q 1611 440 1645 536 l 1605 423 q 1552 393 1569 401 q 1585 490 1564 433 q 1622 585 1607 547 l 1638 623 q 1562 600 1580 620 q 1526 548 1558 595 q 1465 468 1493 500 q 1425 442 1436 435 q 1453 521 1413 450 q 1510 621 1492 593 q 1490 620 1502 621 q 1452 608 1477 618 q 1417 581 1427 598 q 1400 547 1407 561 q 1385 515 1394 533 q 1372 483 1377 496 q 1364 456 1367 469 q 1361 432 1360 442 q 1367 416 1362 422 q 1394 405 1375 405 q 1438 417 1413 404 q 1482 454 1462 429 l 1554 550 q 1493 367 1519 444 q 1452 342 1478 358 q 1414 320 1425 327 q 1386 297 1403 313 q 1354 262 1369 282 q 1329 206 1333 234 q 1338 161 1326 178 q 1380 146 1351 145 q 1444 174 1409 148 q 1485 218 1467 189 q 1511 270 1502 246 q 1537 347 1520 293 q 1540 354 1539 351 q 1542 360 1541 356 q 1544 367 1543 363 q 1594 395 1577 387 q 1556 269 1571 334 q 1563 223 1550 248 q 1590 184 1575 199 l 1604 169 q 1639 340 1596 195 q 1697 476 1659 411 q 1765 549 1723 518 q 1820 570 1807 579 q 1822 538 1826 563 q 1806 491 1817 513 q 1753 425 1789 451 q 1674 396 1717 399 q 1685 389 1678 393 q 1714 378 1692 385 q 1756 374 1735 372 q 1803 394 1776 376 q 1851 448 1830 412 m 2024 591 q 2070 617 2048 616 q 2092 598 2093 617 q 2064 551 2091 578 q 1989 534 2030 525 q 2012 508 1997 517 q 2046 500 2028 498 q 2104 526 2081 500 q 2124 587 2127 551 q 2100 625 2123 608 q 2043 644 2077 642 q 1969 618 2009 646 q 1911 553 1935 593 q 1887 468 1887 513 q 1923 393 1887 422 q 1985 379 1949 374 q 2053 403 2021 385 q 2104 441 2085 421 q 2117 489 2117 463 q 2081 450 2105 469 q 2031 421 2056 431 q 1985 408 2007 410 q 1955 419 1963 406 q 1963 499 1939 446 q 2024 591 1988 552 m 576 497 q 596 430 577 460 q 649 383 616 399 q 616 316 635 332 q 575 308 598 301 q 555 369 555 313 q 567 467 554 424 q 576 497 575 495 m 1021 -157 q 997 -149 1007 -159 q 989 -128 988 -140 q 994 -106 989 -117 q 1031 -83 1005 -82 q 1054 -92 1044 -83 q 1062 -113 1063 -100 q 1057 -135 1062 -125 q 1021 -157 1046 -159 m 374 -236 l 421 0 l 1870 0 l 1822 -236 l 374 -236 m 1678 -63 l 1673 -85 l 1710 -85 l 1691 -178 l 1718 -178 l 1737 -85 l 1773 -85 l 1778 -63 l 1678 -63 m 1528 -63 l 1505 -178 l 1531 -178 l 1546 -106 l 1589 -178 l 1611 -178 l 1634 -63 l 1607 -63 l 1593 -135 l 1550 -63 l 1528 -63 m 1349 -95 q 1340 -130 1340 -111 q 1347 -156 1340 -144 q 1367 -174 1354 -168 q 1396 -180 1382 -180 q 1434 -171 1416 -180 q 1459 -146 1449 -162 q 1468 -111 1468 -131 q 1461 -85 1468 -96 q 1441 -67 1453 -73 q 1411 -61 1427 -61 q 1375 -70 1392 -61 q 1349 -95 1359 -77 m 1226 -63 l 1203 -178 l 1230 -178 l 1238 -136 l 1291 -136 l 1296 -115 l 1242 -115 l 1249 -84 l 1309 -84 l 1313 -63 l 1226 -63 m 971 -95 q 962 -130 962 -112 q 968 -157 962 -145 q 988 -174 975 -167 q 1018 -180 1004 -180 q 1055 -171 1038 -180 q 1080 -146 1070 -163 q 1089 -111 1089 -131 q 1082 -85 1089 -96 q 1063 -67 1075 -73 q 1034 -61 1049 -61 q 996 -70 1013 -61 q 971 -95 981 -79 m 795 -63 l 772 -178 l 796 -178 l 810 -109 l 834 -166 l 846 -166 l 890 -110 l 876 -178 l 901 -178 l 924 -63 l 901 -63 l 845 -135 l 817 -63 l 795 -63 m 654 -63 l 631 -178 l 721 -178 l 725 -157 l 663 -157 l 667 -130 l 722 -130 l 726 -109 l 672 -109 l 677 -84 l 737 -84 l 742 -63 l 654 -63 m 489 -63 l 466 -178 l 522 -178 q 560 -170 541 -178 q 585 -146 576 -161 q 594 -111 594 -131 q 587 -85 594 -96 q 568 -68 580 -73 q 537 -63 555 -63 l 489 -63 m 1399 -157 q 1375 -149 1385 -159 q 1367 -128 1367 -140 q 1373 -106 1367 -117 q 1387 -90 1378 -96 q 1409 -83 1397 -83 q 1432 -92 1422 -83 q 1440 -113 1441 -100 q 1436 -135 1440 -125 q 1399 -157 1425 -159 m 547 -151 q 523 -156 536 -156 l 497 -156 l 511 -85 l 534 -85 q 559 -92 548 -83 q 567 -113 568 -102 q 562 -135 567 -124 q 547 -151 556 -146 z "}}}
